FW_Gmkhi_033_transform.ufo
<glyph name="quotedbl" format="1">
  <advance width="561"/>
  <unicode hex="0022"/>
  <outline>
    <contour>
      <point x="347" y="913" type="line"/>
      <point x="369" y="913" type="line"/>
      <point x="457" y="1179" type="line"/>
      <point x="457" y="1181" type="line"/>
      <point x="411" y="1181" type="line"/>
    </contour>
    <contour>
      <point x="111" y="913" type="line"/>
      <point x="132" y="913" type="line"/>
      <point x="221" y="1179" type="line"/>
      <point x="221" y="1181" type="line"/>
      <point x="176" y="1181" type="line"/>
    </contour>
  </outline>
</glyph>
<glyph name="quotesingle" format="1">
  <advance width="324.0"/>
  <unicode hex="0027"/>
  <outline>
    <contour>
      <point x="111" y="913" type="line"/>
      <point x="132" y="913" type="line"/>
      <point x="221" y="1179" type="line"/>
      <point x="221" y="1181" type="line"/>
      <point x="176" y="1181" type="line"/>
    </contour>
  </outline>
</glyph>
<glyph name="parenright" format="1">
  <advance width="607"/>
  <unicode hex="0029"/>
  <outline>
    <contour>
      <point x="130" y="-319" type="line"/>
      <point x="397" y="-194"/>
      <point x="483" y="-67"/>
      <point x="483" y="109" type="curve" smooth="yes"/>
      <point x="483" y="110" type="line" smooth="yes"/>
      <point x="483" y="284"/>
      <point x="376" y="423"/>
      <point x="130" y="536" type="curve"/>
      <point x="113" y="524" type="line"/>
      <point x="331" y="425"/>
      <point x="451" y="298"/>
      <point x="451" y="109" type="curve" smooth="yes"/>
      <point x="451" y="-95"/>
      <point x="331" y="-203"/>
      <point x="113" y="-306" type="curve"/>
    </contour>
  </outline>
</glyph>
<glyph name="plus" format="1">
  <advance width="1106"/>
  <unicode hex="002B"/>
  <outline>
    <contour>
      <point x="535" y="231" type="line"/>
      <point x="572" y="231" type="line"/>
      <point x="572" y="474" type="line"/>
      <point x="975" y="474" type="line"/>
      <point x="975" y="493" type="line"/>
      <point x="572" y="493" type="line"/>
      <point x="572" y="735" type="line"/>
      <point x="535" y="735" type="line"/>
      <point x="535" y="493" type="line"/>
      <point x="131" y="493" type="line"/>
      <point x="131" y="474" type="line"/>
      <point x="535" y="474" type="line"/>
    </contour>
  </outline>
</glyph>
<glyph name="hyphen" format="1">
  <advance width="622"/>
  <unicode hex="002D"/>
  <outline>
    <contour>
      <point x="492" y="431" type="line"/>
      <point x="125" y="431" type="line"/>
      <point x="127" y="412" type="line"/>
      <point x="492" y="412" type="line"/>
    </contour>
  </outline>
</glyph>
<glyph name="slash" format="1">
  <advance width="573"/>
  <unicode hex="002F"/>
  <outline>
    <contour>
      <point x="483" y="609" type="line"/>
      <point x="445" y="609" type="line"/>
      <point x="73" y="-84" type="line"/>
      <point x="111" y="-84" type="line"/>
    </contour>
  </outline>
</glyph>
<glyph name="zero" format="1">
  <advance width="872"/>
  <unicode hex="0030"/>
  <outline>
    <contour>
      <point x="448" y="473" type="curve" smooth="yes"/>
      <point x="260" y="473"/>
      <point x="112" y="375"/>
      <point x="112" y="239" type="curve" smooth="yes"/>
      <point x="112" y="105"/>
      <point x="260" y="1"/>
      <point x="448" y="1" type="curve" smooth="yes"/>
      <point x="635" y="1"/>
      <point x="785" y="105"/>
      <point x="785" y="239" type="curve" smooth="yes"/>
      <point x="785" y="375"/>
      <point x="635" y="473"/>
    </contour>
    <contour>
      <point x="447" y="453" type="curve" smooth="yes"/>
      <point x="617" y="453"/>
      <point x="752" y="363"/>
      <point x="752" y="238" type="curve" smooth="yes"/>
      <point x="752" y="115"/>
      <point x="617" y="21"/>
      <point x="447" y="21" type="curve" smooth="yes"/>
      <point x="278" y="21"/>
      <point x="144" y="115"/>
      <point x="144" y="238" type="curve" smooth="yes"/>
      <point x="144" y="363"/>
      <point x="278" y="453"/>
    </contour>
  </outline>
</glyph>
<glyph name="two" format="1">
  <advance width="727"/>
  <unicode hex="0032"/>
  <outline>
    <contour>
      <point x="117" y="21" type="line"/>
      <point x="117" y="0" type="line"/>
      <point x="664" y="0" type="line"/>
      <point x="664" y="19" type="line"/>
      <point x="158" y="19" type="line"/>
      <point x="338" y="112" type="line" smooth="yes"/>
      <point x="561" y="220"/>
      <point x="651" y="288"/>
      <point x="651" y="344" type="curve" smooth="yes"/>
      <point x="651" y="427"/>
      <point x="564" y="474"/>
      <point x="405" y="474" type="curve" smooth="yes"/>
      <point x="304" y="474"/>
      <point x="211" y="451"/>
      <point x="119" y="415" type="curve"/>
      <point x="138" y="401" type="line"/>
      <point x="215" y="432"/>
      <point x="307" y="455"/>
      <point x="400" y="455" type="curve" smooth="yes"/>
      <point x="543" y="455"/>
      <point x="618" y="410"/>
      <point x="618" y="344" type="curve" smooth="yes"/>
      <point x="618" y="296"/>
      <point x="539" y="235"/>
      <point x="316" y="125" type="curve" smooth="yes"/>
    </contour>
  </outline>
</glyph>
<glyph name="three" format="1">
  <advance width="740"/>
  <unicode hex="0033"/>
  <outline>
    <contour>
      <point x="374" y="-4" type="curve" smooth="yes"/>
      <point x="539" y="-4"/>
      <point x="655" y="45"/>
      <point x="655" y="120" type="curve" smooth="yes"/>
      <point x="655" y="167"/>
      <point x="616" y="217"/>
      <point x="450" y="250" type="curve"/>
      <point x="570" y="270"/>
      <point x="633" y="317"/>
      <point x="633" y="369" type="curve" smooth="yes"/>
      <point x="633" y="430"/>
      <point x="555" y="473"/>
      <point x="382" y="473" type="curve" smooth="yes"/>
      <point x="265" y="473"/>
      <point x="166" y="449"/>
      <point x="95" y="421" type="curve"/>
      <point x="110" y="403" type="line"/>
      <point x="186" y="435"/>
      <point x="284" y="454"/>
      <point x="385" y="454" type="curve" smooth="yes"/>
      <point x="537" y="454"/>
      <point x="600" y="413"/>
      <point x="600" y="369" type="curve" smooth="yes"/>
      <point x="600" y="311"/>
      <point x="485" y="257"/>
      <point x="363" y="257" type="curve" smooth="yes"/>
      <point x="230" y="257" type="line"/>
      <point x="230" y="239" type="line"/>
      <point x="362" y="239" type="line" smooth="yes"/>
      <point x="515" y="239"/>
      <point x="623" y="179"/>
      <point x="623" y="120" type="curve" smooth="yes"/>
      <point x="623" y="57"/>
      <point x="532" y="15"/>
      <point x="376" y="15" type="curve" smooth="yes"/>
      <point x="285" y="15"/>
      <point x="190" y="32"/>
      <point x="97" y="64" type="curve"/>
      <point x="81" y="48" type="line"/>
      <point x="167" y="19"/>
      <point x="266" y="-4"/>
    </contour>
  </outline>
</glyph>
<glyph name="four" format="1">
  <advance width="816"/>
  <unicode hex="0034"/>
  <outline>
    <contour>
      <point x="76" y="126" type="line"/>
      <point x="77" y="126" type="line"/>
      <point x="77" y="126" type="line"/>
      <point x="90" y="112" type="line"/>
      <point x="573" y="112" type="line"/>
      <point x="573" y="0" type="line"/>
      <point x="605" y="0" type="line"/>
      <point x="605" y="112" type="line"/>
      <point x="742" y="112" type="line"/>
      <point x="742" y="130" type="line"/>
      <point x="605" y="130" type="line"/>
      <point x="605" y="319" type="line"/>
      <point x="573" y="319" type="line"/>
      <point x="573" y="130" type="line"/>
      <point x="115" y="130" type="line"/>
      <point x="496" y="473" type="line"/>
      <point x="460" y="473" type="line"/>
    </contour>
  </outline>
</glyph>
<glyph name="five" format="1">
  <advance width="746"/>
  <unicode hex="0035"/>
  <outline>
    <contour>
      <point x="134" y="269" type="line"/>
      <point x="142" y="250" type="line"/>
      <point x="195" y="256"/>
      <point x="280" y="261"/>
      <point x="363" y="261" type="curve" smooth="yes"/>
      <point x="546" y="261"/>
      <point x="633" y="205"/>
      <point x="633" y="140" type="curve" smooth="yes"/>
      <point x="633" y="139" type="line" smooth="yes"/>
      <point x="633" y="65"/>
      <point x="528" y="16"/>
      <point x="383" y="16" type="curve" smooth="yes"/>
      <point x="271" y="16"/>
      <point x="191" y="31"/>
      <point x="81" y="75" type="curve"/>
      <point x="68" y="58" type="line"/>
      <point x="142" y="26"/>
      <point x="253" y="-3"/>
      <point x="381" y="-3" type="curve" smooth="yes"/>
      <point x="552" y="-3"/>
      <point x="665" y="54"/>
      <point x="665" y="140" type="curve" smooth="yes"/>
      <point x="665" y="142" type="line" smooth="yes"/>
      <point x="665" y="217"/>
      <point x="561" y="280"/>
      <point x="366" y="280" type="curve" smooth="yes"/>
      <point x="299" y="280"/>
      <point x="232" y="273"/>
      <point x="164" y="270" type="curve"/>
      <point x="216" y="453" type="line"/>
      <point x="637" y="453" type="line"/>
      <point x="637" y="471" type="line"/>
      <point x="189" y="471" type="line"/>
    </contour>
  </outline>
</glyph>
<glyph name="six" format="1">
  <advance width="791"/>
  <unicode hex="0036"/>
  <outline>
    <contour>
      <point x="608" y="457" type="curve"/>
      <point x="588" y="472" type="line"/>
      <point x="266" y="424"/>
      <point x="124" y="292"/>
      <point x="124" y="151" type="curve" smooth="yes"/>
      <point x="124" y="144" type="line" smooth="yes"/>
      <point x="128" y="65"/>
      <point x="247" y="-4"/>
      <point x="422" y="-4" type="curve" smooth="yes"/>
      <point x="589" y="-4"/>
      <point x="705" y="60"/>
      <point x="705" y="142" type="curve" smooth="yes"/>
      <point x="705" y="220"/>
      <point x="606" y="281"/>
      <point x="437" y="281" type="curve" smooth="yes"/>
      <point x="333" y="281"/>
      <point x="239" y="254"/>
      <point x="165" y="212" type="curve"/>
      <point x="199" y="316"/>
      <point x="340" y="418"/>
    </contour>
    <contour>
      <point x="157" y="161" type="line" smooth="yes"/>
      <point x="157" y="170"/>
      <point x="158" y="180"/>
      <point x="159" y="190" type="curve"/>
      <point x="244" y="239"/>
      <point x="339" y="262"/>
      <point x="434" y="262" type="curve" smooth="yes"/>
      <point x="572" y="262"/>
      <point x="672" y="211"/>
      <point x="672" y="142" type="curve" smooth="yes"/>
      <point x="672" y="71"/>
      <point x="562" y="15"/>
      <point x="412" y="15" type="curve" smooth="yes"/>
      <point x="259" y="15"/>
      <point x="157" y="79"/>
      <point x="157" y="153" type="curve" smooth="yes"/>
    </contour>
  </outline>
</glyph>
<glyph name="semicolon" format="1">
  <advance width="395"/>
  <unicode hex="003B"/>
  <outline>
    <contour>
      <point x="180" y="132" type="line"/>
      <point x="218" y="132" type="line"/>
      <point x="218" y="203" type="line"/>
      <point x="180" y="203" type="line"/>
    </contour>
    <contour>
      <point x="179" y="-94" type="line"/>
      <point x="179" y="-144" type="line" smooth="yes"/>
      <point x="179" y="-204"/>
      <point x="166" y="-264"/>
      <point x="123" y="-341" type="curve"/>
      <point x="149" y="-343" type="line"/>
      <point x="194" y="-269"/>
      <point x="212" y="-199"/>
      <point x="212" y="-146" type="curve" smooth="yes"/>
      <point x="212" y="-94" type="line"/>
    </contour>
  </outline>
</glyph>
<glyph name="less" format="1">
  <advance width="1106"/>
  <unicode hex="003C"/>
  <outline>
    <contour>
      <point x="953" y="229" type="line"/>
      <point x="953" y="253" type="line"/>
      <point x="164" y="482" type="line"/>
      <point x="953" y="711" type="line"/>
      <point x="953" y="735" type="line"/>
      <point x="105" y="488" type="line"/>
      <point x="105" y="477" type="line"/>
    </contour>
  </outline>
</glyph>
<glyph name="greater" format="1">
  <advance width="1106"/>
  <unicode hex="003E"/>
  <outline>
    <contour>
      <point x="153" y="229" type="line"/>
      <point x="1001" y="477" type="line"/>
      <point x="1001" y="488" type="line"/>
      <point x="153" y="735" type="line"/>
      <point x="153" y="711" type="line"/>
      <point x="942" y="482" type="line"/>
      <point x="153" y="253" type="line"/>
    </contour>
  </outline>
</glyph>
<glyph name="at" format="1">
  <advance width="1289"/>
  <unicode hex="0040"/>
  <outline>
    <contour>
      <point x="690" y="-97" type="curve" smooth="yes"/>
      <point x="792" y="-97"/>
      <point x="875" y="-88"/>
      <point x="943" y="-74" type="curve"/>
      <point x="934" y="-58" type="line"/>
      <point x="848" y="-73"/>
      <point x="783" y="-78"/>
      <point x="692" y="-78" type="curve" smooth="yes"/>
      <point x="395" y="-78"/>
      <point x="213" y="36"/>
      <point x="213" y="185" type="curve" smooth="yes"/>
      <point x="213" y="334"/>
      <point x="411" y="463"/>
      <point x="700" y="463" type="curve" smooth="yes"/>
      <point x="941" y="463"/>
      <point x="1123" y="367"/>
      <point x="1123" y="236" type="curve" smooth="yes"/>
      <point x="1123" y="131"/>
      <point x="1058" y="85"/>
      <point x="974" y="85" type="curve" smooth="yes"/>
      <point x="902" y="85"/>
      <point x="847" y="115"/>
      <point x="847" y="200" type="curve" smooth="yes"/>
      <point x="847" y="201"/>
      <point x="846" y="213"/>
      <point x="849" y="226" type="curve" smooth="yes"/>
      <point x="865" y="317" type="line"/>
      <point x="825" y="323" type="line" smooth="yes"/>
      <point x="806" y="326"/>
      <point x="719" y="332"/>
      <point x="719" y="332" type="curve"/>
      <point x="555" y="332"/>
      <point x="451" y="245"/>
      <point x="451" y="155" type="curve" smooth="yes"/>
      <point x="451" y="97"/>
      <point x="508" y="66"/>
      <point x="580" y="66" type="curve" smooth="yes"/>
      <point x="674" y="66"/>
      <point x="769" y="117"/>
      <point x="818" y="191" type="curve"/>
      <point x="815" y="105"/>
      <point x="882" y="66"/>
      <point x="975" y="66" type="curve" smooth="yes"/>
      <point x="1079" y="66"/>
      <point x="1156" y="122"/>
      <point x="1156" y="236" type="curve" smooth="yes"/>
      <point x="1156" y="376"/>
      <point x="960" y="481"/>
      <point x="696" y="481" type="curve" smooth="yes"/>
      <point x="401" y="481"/>
      <point x="180" y="340"/>
      <point x="180" y="184" type="curve" smooth="yes"/>
      <point x="180" y="29"/>
      <point x="377" y="-97"/>
    </contour>
    <contour>
      <point x="580" y="85" type="curve" smooth="yes"/>
      <point x="523" y="85"/>
      <point x="486" y="108"/>
      <point x="486" y="160" type="curve" smooth="yes"/>
      <point x="486" y="242"/>
      <point x="590" y="313"/>
      <point x="716" y="313" type="curve" smooth="yes"/>
      <point x="721" y="313"/>
      <point x="806" y="306"/>
      <point x="821" y="304" type="curve"/>
      <point x="822" y="290"/>
      <point x="824" y="245"/>
      <point x="799" y="206" type="curve" smooth="yes"/>
      <point x="756" y="139"/>
      <point x="662" y="85"/>
    </contour>
  </outline>
</glyph>
<glyph name="backslash" format="1">
  <advance width="575"/>
  <unicode hex="005C"/>
  <outline>
    <contour>
      <point x="454" y="-84" type="line"/>
      <point x="490" y="-84" type="line"/>
      <point x="130" y="609" type="line"/>
      <point x="93" y="609" type="line"/>
    </contour>
  </outline>
</glyph>
<glyph name="asciicircum" format="1">
  <advance width="922"/>
  <unicode hex="005E"/>
  <outline>
    <contour>
      <point x="162" y="1012" type="line"/>
      <point x="194" y="1012" type="line"/>
      <point x="461" y="1205" type="line"/>
      <point x="728" y="1012" type="line"/>
      <point x="760" y="1012" type="line"/>
      <point x="472" y="1232" type="line"/>
      <point x="450" y="1232" type="line"/>
    </contour>
  </outline>
</glyph>
<glyph name="underscore" format="1">
  <advance width="854"/>
  <unicode hex="005F"/>
  <outline>
    <contour>
      <point x="851" y="-187" type="line"/>
      <point x="-1" y="-187" type="line"/>
      <point x="1" y="-206" type="line"/>
      <point x="851" y="-206" type="line"/>
    </contour>
  </outline>
</glyph>
<glyph name="braceleft" format="1">
  <advance width="608"/>
  <unicode hex="007B"/>
  <outline>
    <contour>
      <point x="505" y="-300" type="line"/>
      <point x="352" y="-300"/>
      <point x="293" y="-265"/>
      <point x="293" y="-198" type="curve" smooth="yes"/>
      <point x="293" y="-137"/>
      <point x="307" y="-77"/>
      <point x="307" y="-7" type="curve" smooth="yes"/>
      <point x="307" y="55"/>
      <point x="275" y="94"/>
      <point x="149" y="108" type="curve"/>
      <point x="149" y="111" type="line"/>
      <point x="275" y="125"/>
      <point x="307" y="167"/>
      <point x="307" y="225" type="curve" smooth="yes"/>
      <point x="307" y="292"/>
      <point x="293" y="357"/>
      <point x="293" y="419" type="curve" smooth="yes"/>
      <point x="293" y="484"/>
      <point x="352" y="518"/>
      <point x="505" y="518" type="curve"/>
      <point x="505" y="536" type="line"/>
      <point x="408" y="536"/>
      <point x="261" y="525"/>
      <point x="261" y="411" type="curve" smooth="yes"/>
      <point x="261" y="346"/>
      <point x="275" y="272"/>
      <point x="275" y="211" type="curve" smooth="yes"/>
      <point x="275" y="167"/>
      <point x="236" y="130"/>
      <point x="112" y="118" type="curve"/>
      <point x="112" y="98" type="line"/>
      <point x="230" y="90"/>
      <point x="275" y="52"/>
      <point x="275" y="8" type="curve" smooth="yes"/>
      <point x="275" y="-52"/>
      <point x="261" y="-123"/>
      <point x="261" y="-197" type="curve" smooth="yes"/>
      <point x="261" y="-309"/>
      <point x="408" y="-319"/>
      <point x="505" y="-319" type="curve"/>
    </contour>
  </outline>
</glyph>
<glyph name="asciitilde" format="1">
  <advance width="811"/>
  <unicode hex="007E"/>
  <outline>
    <contour>
      <point x="524" y="523" type="curve" smooth="yes"/>
      <point x="582" y="523"/>
      <point x="635" y="546"/>
      <point x="656" y="608" type="curve"/>
      <point x="632" y="611" type="line"/>
      <point x="605" y="559"/>
      <point x="572" y="544"/>
      <point x="527" y="544" type="curve" smooth="yes"/>
      <point x="498" y="544"/>
      <point x="459" y="558"/>
      <point x="419" y="573" type="curve" smooth="yes"/>
      <point x="374" y="589"/>
      <point x="326" y="606"/>
      <point x="287" y="606" type="curve" smooth="yes"/>
      <point x="229" y="606"/>
      <point x="177" y="582"/>
      <point x="155" y="521" type="curve"/>
      <point x="179" y="518" type="line"/>
      <point x="206" y="570"/>
      <point x="239" y="584"/>
      <point x="284" y="584" type="curve" smooth="yes"/>
      <point x="313" y="584"/>
      <point x="352" y="571"/>
      <point x="392" y="556" type="curve" smooth="yes"/>
      <point x="437" y="540"/>
      <point x="485" y="523"/>
    </contour>
  </outline>
</glyph>
<glyph name="cent" format="1">
  <advance width="1034"/>
  <unicode hex="00A2"/>
  <outline>
    <contour>
      <point x="721" y="739" type="line"/>
      <point x="684" y="739" type="line"/>
      <point x="652" y="644" type="line"/>
      <point x="635" y="645"/>
      <point x="617" y="645"/>
      <point x="598" y="645" type="curve" smooth="yes"/>
      <point x="334" y="645"/>
      <point x="125" y="517"/>
      <point x="125" y="369" type="curve" smooth="yes"/>
      <point x="125" y="243"/>
      <point x="264" y="133"/>
      <point x="466" y="101" type="curve"/>
      <point x="428" y="-12" type="line"/>
      <point x="463" y="-12" type="line"/>
      <point x="500" y="97" type="line"/>
      <point x="527" y="94"/>
      <point x="557" y="92"/>
      <point x="588" y="92" type="curve" smooth="yes"/>
      <point x="758" y="92"/>
      <point x="879" y="134"/>
      <point x="971" y="197" type="curve"/>
      <point x="946" y="209" type="line"/>
      <point x="860" y="153"/>
      <point x="744" y="112"/>
      <point x="590" y="112" type="curve" smooth="yes"/>
      <point x="561" y="112"/>
      <point x="533" y="114"/>
      <point x="507" y="117" type="curve"/>
      <point x="680" y="620" type="line"/>
      <point x="793" y="608"/>
      <point x="875" y="570"/>
      <point x="940" y="532" type="curve"/>
      <point x="966" y="547" type="line"/>
      <point x="896" y="589"/>
      <point x="810" y="628"/>
      <point x="687" y="641" type="curve"/>
    </contour>
    <contour>
      <point x="164" y="370" type="curve" smooth="yes"/>
      <point x="164" y="507"/>
      <point x="352" y="625"/>
      <point x="596" y="625" type="curve" smooth="yes"/>
      <point x="613" y="625"/>
      <point x="629" y="625"/>
      <point x="644" y="624" type="curve"/>
      <point x="473" y="121" type="line"/>
      <point x="290" y="152"/>
      <point x="164" y="255"/>
    </contour>
  </outline>
</glyph>
<glyph name="sterling" format="1">
  <advance width="1104"/>
  <unicode hex="00A3"/>
  <outline>
    <contour>
      <point x="120" y="0" type="line"/>
      <point x="1020" y="0" type="line"/>
      <point x="1020" y="21" type="line"/>
      <point x="329" y="21" type="line"/>
      <point x="329" y="336" type="line"/>
      <point x="885" y="336" type="line"/>
      <point x="885" y="357" type="line"/>
      <point x="329" y="357" type="line"/>
      <point x="329" y="484" type="line" smooth="yes"/>
      <point x="329" y="571"/>
      <point x="374" y="636"/>
      <point x="438" y="673" type="curve" smooth="yes"/>
      <point x="501" y="709"/>
      <point x="573" y="728"/>
      <point x="679" y="728" type="curve" smooth="yes"/>
      <point x="824" y="728"/>
      <point x="927" y="681"/>
      <point x="999" y="619" type="curve"/>
      <point x="1032" y="632" type="line"/>
      <point x="955" y="699"/>
      <point x="837" y="749"/>
      <point x="680" y="749" type="curve" smooth="yes"/>
      <point x="564" y="749"/>
      <point x="479" y="727"/>
      <point x="411" y="688" type="curve" smooth="yes"/>
      <point x="334" y="643"/>
      <point x="287" y="576"/>
      <point x="287" y="481" type="curve" smooth="yes"/>
      <point x="287" y="357" type="line"/>
      <point x="120" y="357" type="line"/>
      <point x="120" y="336" type="line"/>
      <point x="287" y="336" type="line"/>
      <point x="287" y="22" type="line"/>
      <point x="120" y="14" type="line"/>
    </contour>
  </outline>
</glyph>
<glyph name="yen" format="1">
  <advance width="1138"/>
  <unicode hex="00A5"/>
  <outline>
    <contour>
      <point x="169" y="306" type="line"/>
      <point x="549" y="306" type="line"/>
      <point x="549" y="148" type="line"/>
      <point x="169" y="148" type="line"/>
      <point x="169" y="127" type="line"/>
      <point x="549" y="127" type="line"/>
      <point x="549" y="0" type="line"/>
      <point x="590" y="0" type="line"/>
      <point x="590" y="127" type="line"/>
      <point x="968" y="127" type="line"/>
      <point x="968" y="148" type="line"/>
      <point x="590" y="148" type="line"/>
      <point x="590" y="306" type="line"/>
      <point x="968" y="306" type="line"/>
      <point x="968" y="327" type="line"/>
      <point x="610" y="327" type="line"/>
      <point x="1097" y="739" type="line"/>
      <point x="1049" y="739" type="line"/>
      <point x="572" y="329" type="line"/>
      <point x="92" y="739" type="line"/>
      <point x="41" y="739" type="line"/>
      <point x="527" y="327" type="line"/>
      <point x="169" y="327" type="line"/>
    </contour>
  </outline>
</glyph>
<glyph name="section" format="1">
  <advance width="1165"/>
  <unicode hex="00A7"/>
  <outline>
    <contour>
      <point x="677" y="230" type="curve"/>
      <point x="907" y="223"/>
      <point x="1032" y="280"/>
      <point x="1032" y="345" type="curve" smooth="yes"/>
      <point x="1032" y="347" type="line" smooth="yes"/>
      <point x="1032" y="415"/>
      <point x="911" y="457"/>
      <point x="679" y="482" type="curve" smooth="yes"/>
      <point x="429" y="508"/>
      <point x="292" y="543"/>
      <point x="292" y="612" type="curve" smooth="yes"/>
      <point x="292" y="614" type="line" smooth="yes"/>
      <point x="292" y="675"/>
      <point x="404" y="718"/>
      <point x="586" y="718" type="curve" smooth="yes"/>
      <point x="717" y="718"/>
      <point x="860" y="685"/>
      <point x="932" y="650" type="curve"/>
      <point x="959" y="668" type="line"/>
      <point x="883" y="704"/>
      <point x="734" y="739"/>
      <point x="586" y="739" type="curve" smooth="yes"/>
      <point x="374" y="739"/>
      <point x="251" y="682"/>
      <point x="251" y="614" type="curve" smooth="yes"/>
      <point x="251" y="612" type="line" smooth="yes"/>
      <point x="251" y="546"/>
      <point x="354" y="509"/>
      <point x="491" y="489" type="curve"/>
      <point x="260" y="497"/>
      <point x="135" y="438"/>
      <point x="135" y="374" type="curve" smooth="yes"/>
      <point x="135" y="372" type="line" smooth="yes"/>
      <point x="135" y="303"/>
      <point x="257" y="261"/>
      <point x="489" y="237" type="curve" smooth="yes"/>
      <point x="737" y="211"/>
      <point x="876" y="176"/>
      <point x="876" y="106" type="curve" smooth="yes"/>
      <point x="876" y="104" type="line" smooth="yes"/>
      <point x="876" y="44"/>
      <point x="763" y="1"/>
      <point x="581" y="1" type="curve" smooth="yes"/>
      <point x="450" y="1"/>
      <point x="306" y="35"/>
      <point x="234" y="70" type="curve"/>
      <point x="208" y="52" type="line"/>
      <point x="284" y="15"/>
      <point x="433" y="-20"/>
      <point x="581" y="-20" type="curve" smooth="yes"/>
      <point x="793" y="-20"/>
      <point x="916" y="37"/>
      <point x="916" y="104" type="curve" smooth="yes"/>
      <point x="916" y="106" type="line" smooth="yes"/>
      <point x="916" y="173"/>
      <point x="813" y="210"/>
    </contour>
    <contour>
      <point x="712" y="247" type="curve" smooth="yes"/>
      <point x="644" y="247"/>
      <point x="581" y="250"/>
      <point x="496" y="259" type="curve" smooth="yes"/>
      <point x="275" y="283"/>
      <point x="176" y="318"/>
      <point x="176" y="374" type="curve" smooth="yes"/>
      <point x="176" y="377" type="line" smooth="yes"/>
      <point x="176" y="432"/>
      <point x="302" y="472"/>
      <point x="455" y="472" type="curve" smooth="yes"/>
      <point x="524" y="472"/>
      <point x="586" y="469"/>
      <point x="671" y="459" type="curve" smooth="yes"/>
      <point x="892" y="435"/>
      <point x="992" y="401"/>
      <point x="992" y="345" type="curve" smooth="yes"/>
      <point x="992" y="343" type="line" smooth="yes"/>
      <point x="992" y="286"/>
      <point x="865" y="247"/>
    </contour>
  </outline>
</glyph>
<glyph name="degree" format="1">
  <advance width="793"/>
  <unicode hex="00B0"/>
  <outline>
    <contour>
      <point x="396" y="872" type="curve" smooth="yes"/>
      <point x="538" y="872"/>
      <point x="660" y="938"/>
      <point x="660" y="1019" type="curve" smooth="yes"/>
      <point x="660" y="1021" type="line" smooth="yes"/>
      <point x="660" y="1101"/>
      <point x="538" y="1168"/>
      <point x="396" y="1168" type="curve" smooth="yes"/>
      <point x="255" y="1168"/>
      <point x="132" y="1101"/>
      <point x="132" y="1021" type="curve" smooth="yes"/>
      <point x="132" y="1019" type="line" smooth="yes"/>
      <point x="132" y="938"/>
      <point x="255" y="872"/>
    </contour>
    <contour>
      <point x="396" y="891" type="curve" smooth="yes"/>
      <point x="273" y="891"/>
      <point x="169" y="949"/>
      <point x="169" y="1019" type="curve" smooth="yes"/>
      <point x="169" y="1021" type="line" smooth="yes"/>
      <point x="169" y="1090"/>
      <point x="273" y="1149"/>
      <point x="396" y="1149" type="curve" smooth="yes"/>
      <point x="520" y="1149"/>
      <point x="623" y="1090"/>
      <point x="623" y="1021" type="curve" smooth="yes"/>
      <point x="623" y="1019" type="line" smooth="yes"/>
      <point x="623" y="949"/>
      <point x="520" y="891"/>
    </contour>
  </outline>
</glyph>
<glyph name="plusminus" format="1">
  <advance width="1106"/>
  <unicode hex="00B1"/>
  <outline>
    <contour>
      <point x="975" y="393" type="line"/>
      <point x="975" y="413" type="line"/>
      <point x="572" y="413" type="line"/>
      <point x="572" y="637" type="line"/>
      <point x="535" y="637" type="line"/>
      <point x="535" y="413" type="line"/>
      <point x="131" y="413" type="line"/>
      <point x="131" y="393" type="line"/>
      <point x="535" y="393" type="line"/>
      <point x="535" y="169" type="line"/>
      <point x="572" y="169" type="line"/>
      <point x="572" y="393" type="line"/>
    </contour>
    <contour>
      <point x="975" y="0" type="line"/>
      <point x="975" y="19" type="line"/>
      <point x="131" y="19" type="line"/>
      <point x="131" y="0" type="line"/>
    </contour>
  </outline>
</glyph>
<glyph name="periodcentered" format="1">
  <advance width="391"/>
  <unicode hex="00B7"/>
  <outline>
    <contour>
      <point x="177" y="342" type="line"/>
      <point x="215" y="342" type="line"/>
      <point x="215" y="413" type="line"/>
      <point x="177" y="413" type="line"/>
    </contour>
  </outline>
</glyph>
<glyph name="multiply" format="1">
  <advance width="1106"/>
  <unicode hex="00D7"/>
  <outline>
    <contour>
      <point x="905" y="299" type="line"/>
      <point x="932" y="315" type="line"/>
      <point x="577" y="517" type="line"/>
      <point x="932" y="720" type="line"/>
      <point x="909" y="734" type="line"/>
      <point x="554" y="530" type="line"/>
      <point x="201" y="734" type="line"/>
      <point x="174" y="718" type="line"/>
      <point x="529" y="515" type="line"/>
      <point x="174" y="313" type="line"/>
      <point x="197" y="299" type="line"/>
      <point x="551" y="502" type="line"/>
    </contour>
  </outline>
</glyph>
<glyph name="divide" format="1">
  <advance width="1106"/>
  <unicode hex="00F7"/>
  <outline>
    <contour>
      <point x="520" y="681" type="line"/>
      <point x="586" y="681" type="line"/>
      <point x="586" y="736" type="line"/>
      <point x="520" y="736" type="line"/>
    </contour>
    <contour>
      <point x="975" y="476" type="line"/>
      <point x="975" y="495" type="line"/>
      <point x="131" y="495" type="line"/>
      <point x="131" y="476" type="line"/>
    </contour>
    <contour>
      <point x="520" y="236" type="line"/>
      <point x="586" y="236" type="line"/>
      <point x="586" y="291" type="line"/>
      <point x="520" y="291" type="line"/>
    </contour>
  </outline>
</glyph>
<glyph name="uni0964" format="1">
  <advance width="670"/>
  <unicode hex="0964"/>
  <outline>
    <contour>
      <point x="409" y="489" type="line"/>
      <point x="409" y="-110" type="line"/>
      <point x="442" y="-110" type="line"/>
      <point x="442" y="489" type="line"/>
    </contour>
  </outline>
</glyph>
<glyph name="uni0965" format="1">
  <advance width="1018"/>
  <unicode hex="0965"/>
  <outline>
    <contour>
      <point x="467" y="489" type="line"/>
      <point x="467" y="-110" type="line"/>
      <point x="500" y="-110" type="line"/>
      <point x="500" y="489" type="line"/>
    </contour>
    <contour>
      <point x="758" y="489" type="line"/>
      <point x="758" y="-110" type="line"/>
      <point x="791" y="-110" type="line"/>
      <point x="791" y="489" type="line"/>
    </contour>
  </outline>
</glyph>
<glyph name="uni0A03" format="1">
  <advance width="-7"/>
  <unicode hex="0A03"/>
  <outline>
    <contour>
      <point x="-405" y="428" type="curve" smooth="yes"/>
      <point x="-405" y="391"/>
      <point x="-350" y="361"/>
      <point x="-283" y="361" type="curve" smooth="yes"/>
      <point x="-213" y="361"/>
      <point x="-157" y="391"/>
      <point x="-157" y="428" type="curve" smooth="yes"/>
      <point x="-157" y="468"/>
      <point x="-210" y="499"/>
      <point x="-283" y="499" type="curve" smooth="yes"/>
      <point x="-353" y="499"/>
      <point x="-405" y="468"/>
    </contour>
    <contour>
      <point x="-374" y="429" type="curve" smooth="yes"/>
      <point x="-374" y="460"/>
      <point x="-333" y="482"/>
      <point x="-283" y="482" type="curve" smooth="yes"/>
      <point x="-230" y="482"/>
      <point x="-188" y="460"/>
      <point x="-188" y="429" type="curve" smooth="yes"/>
      <point x="-188" y="400"/>
      <point x="-230" y="379"/>
      <point x="-283" y="379" type="curve" smooth="yes"/>
      <point x="-333" y="379"/>
      <point x="-374" y="400"/>
    </contour>
    <contour>
      <point x="-405" y="163" type="curve" smooth="yes"/>
      <point x="-405" y="126"/>
      <point x="-350" y="96"/>
      <point x="-283" y="96" type="curve" smooth="yes"/>
      <point x="-213" y="96"/>
      <point x="-157" y="126"/>
      <point x="-157" y="163" type="curve" smooth="yes"/>
      <point x="-157" y="203"/>
      <point x="-210" y="234"/>
      <point x="-283" y="234" type="curve" smooth="yes"/>
      <point x="-353" y="234"/>
      <point x="-405" y="203"/>
    </contour>
    <contour>
      <point x="-374" y="164" type="curve" smooth="yes"/>
      <point x="-374" y="193"/>
      <point x="-333" y="215"/>
      <point x="-283" y="215" type="curve" smooth="yes"/>
      <point x="-230" y="215"/>
      <point x="-188" y="193"/>
      <point x="-188" y="164" type="curve" smooth="yes"/>
      <point x="-188" y="135"/>
      <point x="-230" y="113"/>
      <point x="-283" y="113" type="curve" smooth="yes"/>
      <point x="-333" y="113"/>
      <point x="-374" y="135"/>
    </contour>
  </outline>
</glyph>
<glyph name="uni0A07" format="1">
  <advance width="1405"/>
  <unicode hex="0A07"/>
  <outline>
    <contour>
      <point x="1404" y="474" type="line"/>
      <point x="1404" y="492" type="line"/>
      <point x="425" y="492" type="line"/>
      <point x="425" y="474" type="line"/>
      <point x="601" y="474" type="line"/>
      <point x="628" y="404"/>
      <point x="720" y="306"/>
      <point x="802" y="249" type="curve"/>
      <point x="725" y="224"/>
      <point x="651" y="188"/>
      <point x="592" y="140" type="curve"/>
      <point x="687" y="65"/>
      <point x="888" y="8"/>
      <point x="1052" y="8" type="curve" smooth="yes"/>
      <point x="1122" y="8"/>
      <point x="1211" y="25"/>
      <point x="1286" y="54" type="curve"/>
      <point x="1275" y="71" type="line"/>
      <point x="1190" y="41"/>
      <point x="1114" y="27"/>
      <point x="1055" y="27" type="curve" smooth="yes"/>
      <point x="918" y="27"/>
      <point x="726" y="74"/>
      <point x="634" y="140" type="curve"/>
      <point x="778" y="250"/>
      <point x="1013" y="288"/>
      <point x="1153" y="288" type="curve" smooth="yes"/>
      <point x="1192" y="288" type="line"/>
      <point x="1192" y="474" type="line"/>
    </contour>
    <contour>
      <point x="636" y="474" type="curve"/>
      <point x="1160" y="474" type="line"/>
      <point x="1160" y="306" type="line"/>
      <point x="1153" y="306" type="line" smooth="yes"/>
      <point x="1071" y="306"/>
      <point x="950" y="294"/>
      <point x="832" y="259" type="curve"/>
      <point x="759" y="304"/>
      <point x="663" y="402"/>
    </contour>
    <contour>
      <point x="424" y="474" type="line"/>
      <point x="424" y="492" type="line"/>
      <point x="228" y="492" type="line"/>
      <point x="228" y="565" type="line" smooth="yes"/>
      <point x="228" y="689"/>
      <point x="311" y="753"/>
      <point x="475" y="753" type="curve" smooth="yes"/>
      <point x="594" y="753"/>
      <point x="675" y="707"/>
      <point x="707" y="647" type="curve" smooth="yes"/>
      <point x="714" y="635" type="line"/>
      <point x="745" y="636" type="line"/>
      <point x="739" y="648" type="line" smooth="yes"/>
      <point x="703" y="722"/>
      <point x="602" y="772"/>
      <point x="473" y="772" type="curve" smooth="yes"/>
      <point x="296" y="772"/>
      <point x="196" y="701"/>
      <point x="196" y="573" type="curve" smooth="yes"/>
      <point x="196" y="492" type="line"/>
      <point x="0" y="492" type="line"/>
      <point x="0" y="474" type="line"/>
      <point x="196" y="474" type="line"/>
      <point x="196" y="0" type="line"/>
      <point x="228" y="0" type="line"/>
      <point x="228" y="474" type="line"/>
    </contour>
  </outline>
</glyph>
<glyph name="uni0A09" format="1">
  <advance width="1175"/>
  <unicode hex="0A09"/>
  <outline>
    <contour>
      <point x="0" y="350" type="line"/>
      <point x="0" y="331" type="line"/>
      <point x="196" y="331" type="line"/>
      <point x="134" y="74"/>
      <point x="373" y="-135"/>
      <point x="647" y="-135" type="curve" smooth="yes"/>
      <point x="779" y="-135"/>
      <point x="870" y="-88"/>
      <point x="870" y="-20" type="curve" smooth="yes"/>
      <point x="870" y="21"/>
      <point x="826" y="73"/>
      <point x="708" y="98" type="curve"/>
      <point x="853" y="119"/>
      <point x="980" y="210"/>
      <point x="984" y="331" type="curve"/>
      <point x="1175" y="331" type="line"/>
      <point x="1175" y="350" type="line"/>
      <point x="985" y="350" type="line"/>
      <point x="985" y="473"/>
      <point x="852" y="567"/>
      <point x="638" y="567" type="curve" smooth="yes"/>
      <point x="462" y="567"/>
      <point x="278" y="499"/>
      <point x="215" y="376" type="curve" smooth="yes"/>
      <point x="202" y="350" type="line"/>
    </contour>
    <contour>
      <point x="662" y="111" type="curve" smooth="yes"/>
      <point x="250" y="111" type="line"/>
      <point x="216" y="178"/>
      <point x="205" y="254"/>
      <point x="228" y="331" type="curve"/>
      <point x="952" y="331" type="line"/>
      <point x="949" y="224"/>
      <point x="818" y="112"/>
    </contour>
    <contour>
      <point x="243" y="365" type="line" smooth="yes"/>
      <point x="308" y="489"/>
      <point x="476" y="549"/>
      <point x="645" y="549" type="curve" smooth="yes"/>
      <point x="808" y="549"/>
      <point x="952" y="474"/>
      <point x="953" y="350" type="curve"/>
      <point x="235" y="350" type="line"/>
    </contour>
    <contour>
      <point x="618" y="92" type="line" smooth="yes"/>
      <point x="715" y="92"/>
      <point x="838" y="49"/>
      <point x="838" y="-23" type="curve" smooth="yes"/>
      <point x="838" y="-76"/>
      <point x="760" y="-116"/>
      <point x="644" y="-116" type="curve" smooth="yes"/>
      <point x="482" y="-116"/>
      <point x="333" y="-29"/>
      <point x="261" y="92" type="curve"/>
    </contour>
    <contour>
      <point x="273" y="-261" type="line"/>
      <point x="346" y="-275"/>
      <point x="459" y="-294"/>
      <point x="582" y="-294" type="curve" smooth="yes"/>
      <point x="708" y="-294"/>
      <point x="832" y="-276"/>
      <point x="911" y="-261" type="curve"/>
      <point x="911" y="-243" type="line"/>
      <point x="828" y="-257"/>
      <point x="725" y="-275"/>
      <point x="582" y="-275" type="curve" smooth="yes"/>
      <point x="439" y="-275"/>
      <point x="356" y="-257"/>
      <point x="273" y="-243" type="curve"/>
    </contour>
  </outline>
</glyph>
<glyph name="uni0A0F" format="1">
  <advance width="1000"/>
  <unicode hex="0A0F"/>
  <outline>
    <contour>
      <point x="734" y="295" type="curve" smooth="yes"/>
      <point x="772" y="295" type="line"/>
      <point x="772" y="481" type="line"/>
      <point x="985" y="481" type="line"/>
      <point x="985" y="500" type="line"/>
      <point x="771" y="500" type="line"/>
      <point x="706" y="751" type="line"/>
      <point x="673" y="747" type="line"/>
      <point x="739" y="500" type="line"/>
      <point x="5" y="500" type="line"/>
      <point x="5" y="481" type="line"/>
      <point x="182" y="481" type="line"/>
      <point x="209" y="412"/>
      <point x="301" y="313"/>
      <point x="383" y="257" type="curve"/>
      <point x="305" y="231"/>
      <point x="231" y="195"/>
      <point x="173" y="147" type="curve"/>
      <point x="267" y="73"/>
      <point x="469" y="15"/>
      <point x="633" y="15" type="curve" smooth="yes"/>
      <point x="703" y="15"/>
      <point x="791" y="32"/>
      <point x="867" y="61" type="curve"/>
      <point x="856" y="78" type="line"/>
      <point x="770" y="48"/>
      <point x="695" y="34"/>
      <point x="635" y="34" type="curve" smooth="yes"/>
      <point x="499" y="34"/>
      <point x="307" y="81"/>
      <point x="214" y="147" type="curve"/>
      <point x="358" y="257"/>
      <point x="594" y="295"/>
    </contour>
    <contour>
      <point x="217" y="481" type="curve"/>
      <point x="741" y="481" type="line"/>
      <point x="741" y="314" type="line"/>
      <point x="734" y="314" type="line" smooth="yes"/>
      <point x="652" y="314"/>
      <point x="530" y="301"/>
      <point x="412" y="266" type="curve"/>
      <point x="339" y="312"/>
      <point x="244" y="409"/>
    </contour>
  </outline>
</glyph>
<glyph name="uni0A10" format="1">
  <advance width="1209"/>
  <unicode hex="0A10"/>
  <outline>
    <contour>
      <point x="868" y="740" type="line"/>
      <point x="935" y="487" type="line"/>
      <point x="966" y="487" type="line"/>
      <point x="966" y="222" type="line"/>
      <point x="852" y="221"/>
      <point x="738" y="208"/>
      <point x="639" y="164" type="curve"/>
      <point x="686" y="220"/>
      <point x="698" y="327"/>
      <point x="668" y="402" type="curve"/>
      <point x="571" y="407"/>
      <point x="393" y="364"/>
      <point x="289" y="297" type="curve"/>
      <point x="290" y="363"/>
      <point x="264" y="426"/>
      <point x="212" y="455" type="curve" smooth="yes"/>
      <point x="164" y="483"/>
      <point x="95" y="492"/>
      <point x="29" y="492" type="curve" smooth="yes"/>
      <point x="1" y="492" type="line"/>
      <point x="-5" y="474" type="line"/>
      <point x="19" y="474" type="line" smooth="yes"/>
      <point x="109" y="474"/>
      <point x="157" y="461"/>
      <point x="185" y="445" type="curve" smooth="yes"/>
      <point x="240" y="413"/>
      <point x="262" y="343"/>
      <point x="258" y="277" type="curve"/>
      <point x="128" y="189" type="line"/>
      <point x="167" y="178" type="line"/>
      <point x="302" y="278" type="line" smooth="yes"/>
      <point x="376" y="336"/>
      <point x="542" y="384"/>
      <point x="647" y="382" type="curve"/>
      <point x="661" y="303"/>
      <point x="651" y="203"/>
      <point x="585" y="141" type="curve"/>
      <point x="476" y="64" type="line"/>
      <point x="516" y="53" type="line"/>
      <point x="599" y="118" type="line" smooth="yes"/>
      <point x="681" y="177"/>
      <point x="811" y="201"/>
      <point x="966" y="202" type="curve"/>
      <point x="966" y="0" type="line"/>
      <point x="997" y="0" type="line"/>
      <point x="997" y="474" type="line"/>
      <point x="1208" y="474" type="line"/>
      <point x="1208" y="492" type="line"/>
      <point x="966" y="492" type="line"/>
      <point x="900" y="744" type="line"/>
    </contour>
    <contour>
      <point x="624" y="486" type="line"/>
      <point x="556" y="743" type="line"/>
      <point x="524" y="739" type="line"/>
      <point x="591" y="486" type="line"/>
    </contour>
  </outline>
</glyph>
<glyph name="uni0A13" format="1">
  <advance width="1141"/>
  <unicode hex="0A13"/>
  <outline>
    <contour>
      <point x="0" y="500" type="line"/>
      <point x="0" y="481" type="line"/>
      <point x="160" y="481" type="line"/>
      <point x="98" y="224"/>
      <point x="337" y="15"/>
      <point x="611" y="15" type="curve" smooth="yes"/>
      <point x="743" y="15"/>
      <point x="834" y="62"/>
      <point x="834" y="130" type="curve" smooth="yes"/>
      <point x="834" y="171"/>
      <point x="790" y="223"/>
      <point x="672" y="248" type="curve"/>
      <point x="815" y="268"/>
      <point x="927" y="360"/>
      <point x="930" y="481" type="curve"/>
      <point x="1141" y="481" type="line"/>
      <point x="1141" y="500" type="line"/>
      <point x="201" y="500" type="line"/>
      <point x="208" y="515" type="line" smooth="yes"/>
      <point x="268" y="640"/>
      <point x="433" y="699"/>
      <point x="734" y="699" type="curve" smooth="yes"/>
      <point x="766" y="699"/>
      <point x="610" y="699"/>
      <point x="823" y="699" type="curve" smooth="yes"/>
      <point x="858" y="699" type="line"/>
      <point x="858" y="718" type="line"/>
      <point x="727" y="718" type="line" smooth="yes"/>
      <point x="416" y="718"/>
      <point x="234" y="650"/>
      <point x="179" y="526" type="curve" smooth="yes"/>
      <point x="167" y="500" type="line"/>
    </contour>
    <contour>
      <point x="626" y="261" type="curve" smooth="yes"/>
      <point x="214" y="261" type="line"/>
      <point x="180" y="328"/>
      <point x="169" y="404"/>
      <point x="192" y="481" type="curve"/>
      <point x="899" y="481" type="line"/>
      <point x="896" y="373"/>
      <point x="782" y="262"/>
    </contour>
    <contour>
      <point x="582" y="242" type="line" smooth="yes"/>
      <point x="679" y="242"/>
      <point x="802" y="199"/>
      <point x="802" y="127" type="curve" smooth="yes"/>
      <point x="802" y="74"/>
      <point x="724" y="34"/>
      <point x="608" y="34" type="curve" smooth="yes"/>
      <point x="446" y="34"/>
      <point x="297" y="121"/>
      <point x="225" y="242" type="curve"/>
    </contour>
  </outline>
</glyph>
<glyph name="uni0A1B" format="1">
  <advance width="1066"/>
  <unicode hex="0A1B"/>
  <outline>
    <contour>
      <point x="851" y="358" type="line"/>
      <point x="851" y="481" type="line"/>
      <point x="1077" y="481" type="line"/>
      <point x="1077" y="500" type="line"/>
      <point x="-69" y="500" type="line"/>
      <point x="-69" y="481" type="line"/>
      <point x="819" y="481" type="line"/>
      <point x="819" y="377" type="line"/>
      <point x="341" y="377" type="line" smooth="yes"/>
      <point x="230" y="377"/>
      <point x="167" y="347"/>
      <point x="167" y="307" type="curve" smooth="yes"/>
      <point x="167" y="270"/>
      <point x="208" y="244"/>
      <point x="279" y="217" type="curve"/>
      <point x="174" y="197"/>
      <point x="128" y="164"/>
      <point x="128" y="132" type="curve" smooth="yes"/>
      <point x="128" y="60"/>
      <point x="273" y="15"/>
      <point x="536" y="15" type="curve" smooth="yes"/>
      <point x="826" y="15"/>
      <point x="960" y="64"/>
      <point x="960" y="131" type="curve" smooth="yes"/>
      <point x="960" y="190"/>
      <point x="842" y="236"/>
      <point x="538" y="236" type="curve" smooth="yes"/>
      <point x="446" y="236"/>
      <point x="373" y="231"/>
      <point x="313" y="223" type="curve"/>
      <point x="239" y="253"/>
      <point x="202" y="271"/>
      <point x="202" y="306" type="curve" smooth="yes"/>
      <point x="202" y="335"/>
      <point x="258" y="358"/>
      <point x="341" y="358" type="curve" smooth="yes"/>
    </contour>
    <contour>
      <point x="163" y="129" type="curve" smooth="yes"/>
      <point x="163" y="177"/>
      <point x="267" y="217"/>
      <point x="533" y="218" type="curve"/>
      <point x="533" y="34" type="line"/>
      <point x="297" y="35"/>
      <point x="163" y="76"/>
    </contour>
    <contour>
      <point x="925" y="129" type="curve" smooth="yes"/>
      <point x="925" y="78"/>
      <point x="799" y="36"/>
      <point x="564" y="34" type="curve"/>
      <point x="564" y="218" type="line"/>
      <point x="825" y="215"/>
      <point x="925" y="175"/>
    </contour>
  </outline>
</glyph>
<glyph name="uni0A1C" format="1">
  <advance width="1006"/>
  <unicode hex="0A1C"/>
  <outline>
    <contour>
      <point x="1006" y="474" type="line"/>
      <point x="1006" y="492" type="line"/>
      <point x="0" y="492" type="line"/>
      <point x="0" y="474" type="line"/>
      <point x="764" y="474" type="line"/>
      <point x="764" y="254" type="line"/>
      <point x="276" y="254" type="line"/>
      <point x="176" y="373" type="line"/>
      <point x="147" y="364" type="line"/>
      <point x="253" y="244" type="line"/>
      <point x="253" y="0" type="line"/>
      <point x="284" y="0" type="line"/>
      <point x="284" y="235" type="line"/>
      <point x="764" y="235" type="line"/>
      <point x="764" y="0" type="line"/>
      <point x="796" y="0" type="line"/>
      <point x="796" y="474" type="line"/>
    </contour>
  </outline>
</glyph>
<glyph name="uni0A1D" format="1">
  <advance width="1051"/>
  <unicode hex="0A1D"/>
  <outline>
    <contour>
      <point x="109" y="292" type="line"/>
      <point x="111" y="273" type="line"/>
      <point x="674" y="273" type="line" smooth="yes"/>
      <point x="811" y="273"/>
      <point x="882" y="242"/>
      <point x="882" y="211" type="curve" smooth="yes"/>
      <point x="882" y="172"/>
      <point x="821" y="141"/>
      <point x="614" y="136" type="curve"/>
      <point x="537" y="137"/>
      <point x="392" y="138"/>
      <point x="303" y="139" type="curve"/>
      <point x="302" y="120" type="line"/>
      <point x="374" y="115"/>
      <point x="540" y="117"/>
      <point x="608" y="117" type="curve"/>
      <point x="659" y="102"/>
      <point x="782" y="54"/>
      <point x="862" y="-1" type="curve"/>
      <point x="887" y="13" type="line"/>
      <point x="836" y="46"/>
      <point x="738" y="94"/>
      <point x="659" y="121" type="curve"/>
      <point x="855" y="127"/>
      <point x="915" y="166"/>
      <point x="915" y="209" type="curve" smooth="yes"/>
      <point x="915" y="253"/>
      <point x="842" y="292"/>
      <point x="687" y="292" type="curve" smooth="yes"/>
      <point x="642" y="292" type="line"/>
      <point x="730" y="321"/>
      <point x="809" y="387"/>
      <point x="843" y="473" type="curve"/>
      <point x="1085" y="473" type="line"/>
      <point x="1085" y="492" type="line"/>
      <point x="-59" y="492" type="line"/>
      <point x="-59" y="473" type="line"/>
      <point x="221" y="473" type="line"/>
      <point x="262" y="391"/>
      <point x="339" y="322"/>
      <point x="430" y="292" type="curve"/>
    </contour>
    <contour>
      <point x="554" y="292" type="curve"/>
      <point x="522" y="292" type="line"/>
      <point x="401" y="298"/>
      <point x="294" y="385"/>
      <point x="257" y="473" type="curve"/>
      <point x="808" y="473" type="line"/>
      <point x="772" y="373"/>
      <point x="662" y="299"/>
    </contour>
  </outline>
</glyph>
<glyph name="uni0A20" format="1">
  <advance width="1051"/>
  <unicode hex="0A20"/>
  <outline>
    <contour>
      <point x="521" y="15" type="curve" smooth="yes"/>
      <point x="780" y="15"/>
      <point x="915" y="93"/>
      <point x="915" y="162" type="curve" smooth="yes"/>
      <point x="915" y="222"/>
      <point x="844" y="289"/>
      <point x="538" y="356" type="curve"/>
      <point x="538" y="481" type="line"/>
      <point x="1102" y="481" type="line"/>
      <point x="1102" y="500" type="line"/>
      <point x="-57" y="500" type="line"/>
      <point x="-57" y="481" type="line"/>
      <point x="507" y="481" type="line"/>
      <point x="507" y="355" type="line"/>
      <point x="218" y="289"/>
      <point x="136" y="228"/>
      <point x="136" y="162" type="curve" smooth="yes"/>
      <point x="136" y="96"/>
      <point x="231" y="15"/>
    </contour>
    <contour>
      <point x="521" y="34" type="curve" smooth="yes"/>
      <point x="269" y="34"/>
      <point x="169" y="100"/>
      <point x="169" y="161" type="curve" smooth="yes"/>
      <point x="169" y="229"/>
      <point x="288" y="291"/>
      <point x="522" y="340" type="curve"/>
      <point x="788" y="279"/>
      <point x="882" y="224"/>
      <point x="882" y="161" type="curve" smooth="yes"/>
      <point x="882" y="100"/>
      <point x="743" y="34"/>
    </contour>
  </outline>
</glyph>
<glyph name="uni0A21" format="1">
  <advance width="1040"/>
  <unicode hex="0A21"/>
  <outline>
    <contour>
      <point x="1050" y="481" type="line"/>
      <point x="1050" y="500" type="line"/>
      <point x="0" y="500" type="line"/>
      <point x="0" y="481" type="line"/>
      <point x="807" y="481" type="line"/>
      <point x="807" y="449" type="line" smooth="yes"/>
      <point x="807" y="371"/>
      <point x="692" y="325"/>
      <point x="466" y="327" type="curve" smooth="yes"/>
      <point x="280" y="327" type="line"/>
      <point x="287" y="308" type="line"/>
      <point x="465" y="308" type="line" smooth="yes"/>
      <point x="666" y="308"/>
      <point x="834" y="237"/>
      <point x="834" y="159" type="curve" smooth="yes"/>
      <point x="834" y="115"/>
      <point x="770" y="73"/>
      <point x="665" y="51" type="curve"/>
      <point x="614" y="134"/>
      <point x="501" y="202"/>
      <point x="352" y="202" type="curve" smooth="yes"/>
      <point x="236" y="202"/>
      <point x="175" y="161"/>
      <point x="175" y="126" type="curve" smooth="yes"/>
      <point x="175" y="65"/>
      <point x="276" y="15"/>
      <point x="486" y="15" type="curve" smooth="yes"/>
      <point x="706" y="15"/>
      <point x="867" y="73"/>
      <point x="867" y="160" type="curve" smooth="yes"/>
      <point x="867" y="225"/>
      <point x="787" y="283"/>
      <point x="617" y="316" type="curve"/>
      <point x="762" y="332"/>
      <point x="839" y="373"/>
      <point x="839" y="460" type="curve" smooth="yes"/>
      <point x="839" y="481" type="line"/>
    </contour>
    <contour>
      <point x="489" y="34" type="curve" smooth="yes"/>
      <point x="281" y="34"/>
      <point x="209" y="72"/>
      <point x="209" y="126" type="curve" smooth="yes"/>
      <point x="209" y="153"/>
      <point x="261" y="184"/>
      <point x="352" y="184" type="curve" smooth="yes"/>
      <point x="482" y="184"/>
      <point x="582" y="124"/>
      <point x="635" y="45" type="curve"/>
      <point x="592" y="38"/>
      <point x="543" y="34"/>
    </contour>
  </outline>
</glyph>
<glyph name="uni0A26" format="1">
  <advance width="980"/>
  <unicode hex="0A26"/>
  <outline>
    <contour>
      <point x="186" y="397" type="line"/>
      <point x="152" y="392" type="line"/>
      <point x="187" y="294" type="line" smooth="yes"/>
      <point x="253" y="121"/>
      <point x="422" y="24"/>
      <point x="641" y="24" type="curve" smooth="yes"/>
      <point x="642" y="24" type="line" smooth="yes"/>
      <point x="732" y="24"/>
      <point x="802" y="29"/>
      <point x="851" y="36" type="curve"/>
      <point x="847" y="55" type="line"/>
      <point x="790" y="47"/>
      <point x="734" y="43"/>
      <point x="650" y="43" type="curve" smooth="yes"/>
      <point x="649" y="43" type="line" smooth="yes"/>
      <point x="450" y="43"/>
      <point x="289" y="129"/>
      <point x="227" y="279" type="curve"/>
      <point x="770" y="279" type="line"/>
      <point x="770" y="485" type="line"/>
      <point x="980" y="485" type="line"/>
      <point x="980" y="504" type="line"/>
      <point x="0" y="504" type="line"/>
      <point x="0" y="485" type="line"/>
      <point x="738" y="485" type="line"/>
      <point x="738" y="297" type="line"/>
      <point x="220" y="297" type="line"/>
    </contour>
  </outline>
</glyph>
<glyph name="uni0A27" format="1">
  <advance width="991"/>
  <unicode hex="0A27"/>
  <outline>
    <contour>
      <point x="991" y="474" type="line"/>
      <point x="991" y="492" type="line"/>
      <point x="0" y="492" type="line"/>
      <point x="0" y="474" type="line"/>
      <point x="230" y="474" type="line"/>
      <point x="231" y="312" type="line" smooth="yes"/>
      <point x="231" y="287"/>
      <point x="195" y="201"/>
      <point x="176" y="153" type="curve"/>
      <point x="249" y="107"/>
      <point x="375" y="74"/>
      <point x="496" y="74" type="curve" smooth="yes"/>
      <point x="497" y="74" type="line" smooth="yes"/>
      <point x="589" y="74"/>
      <point x="679" y="84"/>
      <point x="748" y="96" type="curve"/>
      <point x="748" y="0" type="line"/>
      <point x="779" y="0" type="line"/>
      <point x="779" y="474" type="line"/>
    </contour>
    <contour>
      <point x="497" y="93" type="curve" smooth="yes"/>
      <point x="496" y="93" type="line" smooth="yes"/>
      <point x="398" y="93"/>
      <point x="283" y="119"/>
      <point x="212" y="159" type="curve"/>
      <point x="230" y="205"/>
      <point x="263" y="286"/>
      <point x="264" y="307" type="curve" smooth="yes"/>
      <point x="264" y="474" type="line"/>
      <point x="748" y="474" type="line"/>
      <point x="748" y="116" type="line"/>
      <point x="668" y="102"/>
      <point x="586" y="93"/>
    </contour>
  </outline>
</glyph>
<glyph name="uni0A28" format="1">
  <advance width="1069"/>
  <unicode hex="0A28"/>
  <outline>
    <contour>
      <point x="903" y="154" type="curve" smooth="yes"/>
      <point x="903" y="211"/>
      <point x="815" y="285"/>
      <point x="547" y="360" type="curve"/>
      <point x="547" y="481" type="line"/>
      <point x="1111" y="481" type="line"/>
      <point x="1111" y="499" type="line"/>
      <point x="-48" y="499" type="line"/>
      <point x="-48" y="481" type="line"/>
      <point x="516" y="481" type="line"/>
      <point x="516" y="359" type="line"/>
      <point x="256" y="287"/>
      <point x="164" y="209"/>
      <point x="164" y="154" type="curve" smooth="yes"/>
      <point x="164" y="106"/>
      <point x="232" y="50"/>
      <point x="341" y="22" type="curve" smooth="yes"/>
      <point x="371" y="14" type="line"/>
      <point x="377" y="33" type="line"/>
      <point x="350" y="39" type="line" smooth="yes"/>
      <point x="263" y="59"/>
      <point x="196" y="107"/>
      <point x="196" y="154" type="curve" smooth="yes"/>
      <point x="196" y="210"/>
      <point x="314" y="286"/>
      <point x="532" y="343" type="curve"/>
      <point x="779" y="276"/>
      <point x="869" y="211"/>
      <point x="869" y="153" type="curve" smooth="yes"/>
      <point x="869" y="108"/>
      <point x="809" y="67"/>
      <point x="707" y="37" type="curve" smooth="yes"/>
      <point x="689" y="32" type="line"/>
      <point x="699" y="14" type="line"/>
      <point x="723" y="21" type="line" smooth="yes"/>
      <point x="836" y="56"/>
      <point x="903" y="104"/>
    </contour>
  </outline>
</glyph>
<glyph name="uni0A2A" format="1">
  <advance width="965"/>
  <unicode hex="0A2A"/>
  <outline>
    <contour>
      <point x="266" y="474" type="line"/>
      <point x="265" y="478" type="line"/>
      <point x="265" y="492" type="line"/>
      <point x="0" y="492" type="line"/>
      <point x="0" y="474" type="line"/>
      <point x="232" y="474" type="line"/>
      <point x="232" y="312" type="line" smooth="yes"/>
      <point x="232" y="287"/>
      <point x="196" y="201"/>
      <point x="176" y="153" type="curve"/>
      <point x="250" y="107"/>
      <point x="364" y="74"/>
      <point x="484" y="74" type="curve" smooth="yes"/>
      <point x="485" y="74" type="line" smooth="yes"/>
      <point x="566" y="74"/>
      <point x="653" y="81"/>
      <point x="723" y="92" type="curve"/>
      <point x="723" y="0" type="line"/>
      <point x="754" y="0" type="line"/>
      <point x="754" y="474" type="line"/>
      <point x="965" y="474" type="line"/>
      <point x="965" y="492" type="line"/>
      <point x="723" y="492" type="line"/>
      <point x="723" y="111" type="line"/>
      <point x="643" y="97"/>
      <point x="563" y="93"/>
      <point x="485" y="93" type="curve" smooth="yes"/>
      <point x="484" y="93" type="line" smooth="yes"/>
      <point x="386" y="93"/>
      <point x="283" y="119"/>
      <point x="213" y="159" type="curve"/>
      <point x="230" y="205"/>
      <point x="264" y="286"/>
      <point x="265" y="307" type="curve" smooth="yes"/>
      <point x="265" y="474" type="line"/>
    </contour>
  </outline>
</glyph>
<glyph name="uni0A2B" format="1">
  <advance width="976"/>
  <unicode hex="0A2B"/>
  <outline>
    <contour>
      <point x="385" y="332" type="curve" smooth="yes"/>
      <point x="765" y="332" type="line"/>
      <point x="765" y="481" type="line"/>
      <point x="976" y="481" type="line"/>
      <point x="976" y="500" type="line"/>
      <point x="0" y="500" type="line"/>
      <point x="0" y="481" type="line"/>
      <point x="734" y="481" type="line"/>
      <point x="734" y="350" type="line"/>
      <point x="375" y="350" type="line" smooth="yes"/>
      <point x="224" y="350"/>
      <point x="151" y="303"/>
      <point x="151" y="242" type="curve" smooth="yes"/>
      <point x="151" y="241" type="line" smooth="yes"/>
      <point x="151" y="118"/>
      <point x="390" y="15"/>
      <point x="626" y="15" type="curve" smooth="yes"/>
      <point x="627" y="15" type="line" smooth="yes"/>
      <point x="766" y="15"/>
      <point x="835" y="60"/>
      <point x="835" y="113" type="curve" smooth="yes"/>
      <point x="835" y="114" type="line" smooth="yes"/>
      <point x="835" y="160"/>
      <point x="773" y="206"/>
      <point x="644" y="206" type="curve" smooth="yes"/>
      <point x="643" y="206" type="line" smooth="yes"/>
      <point x="532" y="206"/>
      <point x="421" y="163"/>
      <point x="332" y="93" type="curve"/>
      <point x="331" y="92" type="line"/>
      <point x="243" y="131"/>
      <point x="185" y="184"/>
      <point x="185" y="237" type="curve" smooth="yes"/>
      <point x="185" y="238" type="line" smooth="yes"/>
      <point x="185" y="293"/>
      <point x="248" y="332"/>
    </contour>
    <contour>
      <point x="642" y="187" type="curve" smooth="yes"/>
      <point x="643" y="187" type="line" smooth="yes"/>
      <point x="750" y="187"/>
      <point x="803" y="150"/>
      <point x="803" y="113" type="curve" smooth="yes"/>
      <point x="803" y="113" type="line" smooth="yes"/>
      <point x="803" y="66"/>
      <point x="738" y="34"/>
      <point x="630" y="34" type="curve" smooth="yes"/>
      <point x="629" y="34" type="line" smooth="yes"/>
      <point x="531" y="34"/>
      <point x="436" y="52"/>
      <point x="359" y="81" type="curve"/>
      <point x="442" y="150"/>
      <point x="552" y="187"/>
    </contour>
  </outline>
</glyph>
<glyph name="uni0A2F" format="1">
  <advance width="1258"/>
  <unicode hex="0A2F"/>
  <outline>
    <contour>
      <point x="1258" y="474" type="line"/>
      <point x="1258" y="492" type="line"/>
      <point x="0" y="492" type="line"/>
      <point x="0" y="474" type="line"/>
      <point x="231" y="474" type="line"/>
      <point x="231" y="306" type="line" smooth="yes"/>
      <point x="231" y="282"/>
      <point x="195" y="191"/>
      <point x="176" y="143" type="curve"/>
      <point x="253" y="93"/>
      <point x="390" y="64"/>
      <point x="527" y="64" type="curve" smooth="yes"/>
      <point x="528" y="64" type="line" smooth="yes"/>
      <point x="598" y="64"/>
      <point x="641" y="72"/>
      <point x="656" y="80" type="curve" smooth="yes"/>
      <point x="667" y="87"/>
      <point x="672" y="95"/>
      <point x="672" y="106" type="curve" smooth="yes"/>
      <point x="672" y="276" type="line"/>
      <point x="1015" y="276" type="line"/>
      <point x="1015" y="0" type="line"/>
      <point x="1047" y="0" type="line"/>
      <point x="1047" y="474" type="line"/>
    </contour>
    <contour>
      <point x="641" y="294" type="line"/>
      <point x="641" y="111" type="line" smooth="yes"/>
      <point x="641" y="100"/>
      <point x="639" y="97"/>
      <point x="633" y="93" type="curve" smooth="yes"/>
      <point x="621" y="87"/>
      <point x="591" y="82"/>
      <point x="528" y="82" type="curve" smooth="yes"/>
      <point x="527" y="82" type="line" smooth="yes"/>
      <point x="410" y="82"/>
      <point x="286" y="106"/>
      <point x="212" y="148" type="curve"/>
      <point x="230" y="195"/>
      <point x="263" y="281"/>
      <point x="264" y="302" type="curve" smooth="yes"/>
      <point x="264" y="474" type="line"/>
      <point x="1015" y="474" type="line"/>
      <point x="1015" y="294" type="line"/>
    </contour>
  </outline>
</glyph>
<glyph name="uni0A30" format="1">
  <advance width="936.0"/>
  <unicode hex="0A30"/>
  <outline>
    <contour>
      <point x="936" y="481" type="line"/>
      <point x="936" y="500" type="line"/>
      <point x="0" y="500" type="line"/>
      <point x="0" y="481" type="line"/>
      <point x="694" y="481" type="line"/>
      <point x="694" y="321" type="line"/>
      <point x="365" y="321" type="line" smooth="yes"/>
      <point x="208" y="321"/>
      <point x="145" y="285"/>
      <point x="145" y="232" type="curve" smooth="yes"/>
      <point x="145" y="231" type="line" smooth="yes"/>
      <point x="145" y="130"/>
      <point x="380" y="15"/>
      <point x="564" y="15" type="curve" smooth="yes"/>
      <point x="565" y="15" type="line" smooth="yes"/>
      <point x="664" y="15"/>
      <point x="725" y="49"/>
      <point x="725" y="129" type="curve" smooth="yes"/>
      <point x="725" y="481" type="line"/>
    </contour>
    <contour>
      <point x="568" y="34" type="curve" smooth="yes"/>
      <point x="567" y="34" type="line" smooth="yes"/>
      <point x="408" y="34"/>
      <point x="179" y="140"/>
      <point x="179" y="231" type="curve" smooth="yes"/>
      <point x="179" y="231" type="line" smooth="yes"/>
      <point x="179" y="276"/>
      <point x="230" y="302"/>
      <point x="368" y="302" type="curve" smooth="yes"/>
      <point x="694" y="302" type="line"/>
      <point x="694" y="131" type="line" smooth="yes"/>
      <point x="694" y="63"/>
      <point x="644" y="34"/>
    </contour>
  </outline>
</glyph>
<glyph name="uni0A33" format="1">
  <advance width="1152.0"/>
  <unicode hex="0A33"/>
  <outline>
    <contour>
      <point x="1152" y="474" type="line"/>
      <point x="1152" y="492" type="line"/>
      <point x="0" y="492" type="line"/>
      <point x="0" y="474" type="line"/>
      <point x="281" y="474" type="line"/>
      <point x="297" y="415"/>
      <point x="330" y="361"/>
      <point x="377" y="314" type="curve"/>
      <point x="375" y="314" type="line" smooth="yes"/>
      <point x="248" y="279"/>
      <point x="149" y="207"/>
      <point x="149" y="151" type="curve" smooth="yes"/>
      <point x="149" y="91"/>
      <point x="203" y="41"/>
      <point x="364" y="10" type="curve" smooth="yes"/>
      <point x="374" y="8" type="line"/>
      <point x="386" y="25" type="line"/>
      <point x="365" y="29" type="line" smooth="yes"/>
      <point x="220" y="57"/>
      <point x="182" y="101"/>
      <point x="182" y="150" type="curve" smooth="yes"/>
      <point x="182" y="206"/>
      <point x="290" y="272"/>
      <point x="392" y="300" type="curve"/>
      <point x="444" y="253"/>
      <point x="509" y="215"/>
      <point x="581" y="190" type="curve"/>
      <point x="653" y="215"/>
      <point x="714" y="253"/>
      <point x="761" y="299" type="curve"/>
      <point x="863" y="271"/>
      <point x="970" y="204"/>
      <point x="970" y="151" type="curve" smooth="yes"/>
      <point x="970" y="98"/>
      <point x="922" y="59"/>
      <point x="788" y="30" type="curve" smooth="yes"/>
      <point x="766" y="25" type="line"/>
      <point x="778" y="8" type="line"/>
      <point x="788" y="10" type="line" smooth="yes"/>
      <point x="947" y="40"/>
      <point x="1004" y="90"/>
      <point x="1004" y="151" type="curve" smooth="yes"/>
      <point x="1004" y="207"/>
      <point x="904" y="279"/>
      <point x="777" y="314" type="curve"/>
      <point x="775" y="314" type="line"/>
      <point x="821" y="364"/>
      <point x="851" y="420"/>
      <point x="861" y="474" type="curve"/>
    </contour>
    <contour>
      <point x="581" y="209" type="curve"/>
      <point x="453" y="255"/>
      <point x="343" y="365"/>
      <point x="312" y="474" type="curve"/>
      <point x="830" y="474" type="line"/>
      <point x="806" y="358"/>
      <point x="707" y="260"/>
    </contour>
    <contour>
      <point x="1065" y="0" type="line"/>
      <point x="1103" y="0" type="line"/>
      <point x="1103" y="56" type="line"/>
      <point x="1065" y="56" type="line"/>
    </contour>
  </outline>
</glyph>
<glyph name="uni0A35" format="1">
  <advance width="1111"/>
  <unicode hex="0A35"/>
  <outline>
    <contour>
      <point x="898" y="330" type="line"/>
      <point x="898" y="485" type="line"/>
      <point x="1111" y="485" type="line"/>
      <point x="1111" y="504" type="line"/>
      <point x="0" y="504" type="line"/>
      <point x="0" y="485" type="line"/>
      <point x="867" y="485" type="line"/>
      <point x="867" y="348" type="line"/>
      <point x="320" y="348" type="line" smooth="yes"/>
      <point x="194" y="348"/>
      <point x="143" y="318"/>
      <point x="143" y="274" type="curve" smooth="yes"/>
      <point x="143" y="273" type="line" smooth="yes"/>
      <point x="143" y="216"/>
      <point x="221" y="173"/>
      <point x="391" y="173" type="curve"/>
      <point x="412" y="72"/>
      <point x="524" y="24"/>
      <point x="725" y="24" type="curve" smooth="yes"/>
      <point x="924" y="24" type="line"/>
      <point x="924" y="43" type="line"/>
      <point x="726" y="43" type="line" smooth="yes"/>
      <point x="541" y="43"/>
      <point x="443" y="81"/>
      <point x="423" y="173" type="curve"/>
      <point x="925" y="173" type="line"/>
      <point x="925" y="191" type="line"/>
      <point x="393" y="191" type="line" smooth="yes"/>
      <point x="238" y="191"/>
      <point x="177" y="225"/>
      <point x="177" y="271" type="curve" smooth="yes"/>
      <point x="177" y="271" type="line" smooth="yes"/>
      <point x="177" y="306"/>
      <point x="216" y="330"/>
      <point x="323" y="330" type="curve" smooth="yes"/>
    </contour>
  </outline>
</glyph>
<glyph name="uni0A36" format="1">
  <advance width="1054"/>
  <unicode hex="0A36"/>
  <outline>
    <contour>
      <point x="1054" y="474" type="line"/>
      <point x="1054" y="492" type="line"/>
      <point x="0" y="492" type="line"/>
      <point x="0" y="474" type="line"/>
      <point x="242" y="474" type="line"/>
      <point x="257" y="432"/>
      <point x="313" y="265"/>
      <point x="321" y="233" type="curve"/>
      <point x="307" y="202"/>
      <point x="213" y="75"/>
      <point x="194" y="53" type="curve"/>
      <point x="231" y="46" type="line"/>
      <point x="249" y="69"/>
      <point x="332" y="182"/>
      <point x="353" y="225" type="curve"/>
      <point x="813" y="225" type="line"/>
      <point x="813" y="0" type="line"/>
      <point x="844" y="0" type="line"/>
      <point x="844" y="474" type="line"/>
    </contour>
    <contour>
      <point x="275" y="474" type="curve"/>
      <point x="813" y="474" type="line"/>
      <point x="813" y="243" type="line"/>
      <point x="352" y="243" type="line"/>
      <point x="336" y="298"/>
      <point x="294" y="428"/>
    </contour>
    <contour>
      <point x="522" y="0" type="line"/>
      <point x="560" y="0" type="line"/>
      <point x="560" y="56" type="line"/>
      <point x="522" y="56" type="line"/>
    </contour>
  </outline>
</glyph>
<glyph name="uni0A3E" format="1">
  <advance width="424"/>
  <unicode hex="0A3E"/>
  <outline>
    <contour>
      <point x="424" y="625" type="line"/>
      <point x="424" y="643" type="line"/>
      <point x="0" y="643" type="line"/>
      <point x="0" y="625" type="line"/>
      <point x="196" y="625" type="line"/>
      <point x="196" y="311" type="line"/>
      <point x="228" y="311" type="line"/>
      <point x="228" y="625" type="line"/>
    </contour>
  </outline>
</glyph>
<glyph name="uni0A42" format="1">
  <advance width="0.0"/>
  <unicode hex="0A42"/>
  <outline>
    <contour>
      <point x="-818" y="-375" type="line"/>
      <point x="-745" y="-390"/>
      <point x="-632" y="-406"/>
      <point x="-509" y="-406" type="curve" smooth="yes"/>
      <point x="-383" y="-406"/>
      <point x="-259" y="-391"/>
      <point x="-180" y="-375" type="curve"/>
      <point x="-180" y="-357" type="line"/>
      <point x="-263" y="-372"/>
      <point x="-366" y="-387"/>
      <point x="-509" y="-387" type="curve" smooth="yes"/>
      <point x="-652" y="-387"/>
      <point x="-734" y="-372"/>
      <point x="-818" y="-357" type="curve"/>
    </contour>
    <contour>
      <point x="-800" y="-501" type="line"/>
      <point x="-727" y="-516"/>
      <point x="-621" y="-530"/>
      <point x="-509" y="-530" type="curve" smooth="yes"/>
      <point x="-393" y="-530"/>
      <point x="-277" y="-517"/>
      <point x="-198" y="-501" type="curve"/>
      <point x="-198" y="-483" type="line"/>
      <point x="-281" y="-499"/>
      <point x="-377" y="-511"/>
      <point x="-509" y="-511" type="curve" smooth="yes"/>
      <point x="-641" y="-511"/>
      <point x="-716" y="-499"/>
      <point x="-800" y="-483" type="curve"/>
    </contour>
  </outline>
</glyph>
<glyph name="uni0A47" format="1">
  <advance width="9.0"/>
  <unicode hex="0A47"/>
  <outline>
    <contour>
      <point x="-307" y="1198" type="line"/>
      <point x="-239" y="945" type="line"/>
      <point x="-207" y="945" type="line"/>
      <point x="-275" y="1202" type="line"/>
    </contour>
    <contour>
      <point x="-551" y="944" type="line"/>
      <point x="-618" y="1201" type="line"/>
      <point x="-651" y="1197" type="line"/>
      <point x="-583" y="944" type="line"/>
    </contour>
  </outline>
</glyph>
<glyph name="uni0A4D" format="1">
  <advance width="4"/>
  <unicode hex="0A4D"/>
  <outline>
    <contour>
      <point x="-432" y="-243" type="line"/>
      <point x="-285" y="-248"/>
      <point x="-201" y="-264"/>
      <point x="-33" y="-357" type="curve"/>
      <point x="-17" y="-343" type="line"/>
      <point x="-149" y="-265"/>
      <point x="-271" y="-227"/>
      <point x="-434" y="-225" type="curve"/>
    </contour>
  </outline>
</glyph>
<glyph name="uni0A5B" format="1">
  <advance width="1006"/>
  <unicode hex="0A5B"/>
  <outline>
    <contour>
      <point x="1006" y="474" type="line"/>
      <point x="1006" y="492" type="line"/>
      <point x="0" y="492" type="line"/>
      <point x="0" y="474" type="line"/>
      <point x="764" y="474" type="line"/>
      <point x="764" y="254" type="line"/>
      <point x="276" y="254" type="line"/>
      <point x="176" y="373" type="line"/>
      <point x="147" y="364" type="line"/>
      <point x="253" y="244" type="line"/>
      <point x="253" y="0" type="line"/>
      <point x="284" y="0" type="line"/>
      <point x="284" y="235" type="line"/>
      <point x="764" y="235" type="line"/>
      <point x="764" y="0" type="line"/>
      <point x="796" y="0" type="line"/>
      <point x="796" y="474" type="line"/>
    </contour>
    <contour>
      <point x="504" y="0" type="line"/>
      <point x="542" y="0" type="line"/>
      <point x="542" y="56" type="line"/>
      <point x="504" y="56" type="line"/>
    </contour>
  </outline>
</glyph>
<glyph name="uni0A5C" format="1">
  <advance width="1022"/>
  <unicode hex="0A5C"/>
  <outline>
    <contour>
      <point x="1022" y="453" type="line"/>
      <point x="1022" y="472" type="line"/>
      <point x="0" y="472" type="line"/>
      <point x="0" y="453" type="line"/>
      <point x="790" y="453" type="line"/>
      <point x="790" y="446" type="line" smooth="yes"/>
      <point x="790" y="367"/>
      <point x="698" y="289"/>
      <point x="488" y="289" type="curve" smooth="yes"/>
      <point x="290" y="289" type="line"/>
      <point x="297" y="270" type="line"/>
      <point x="513" y="270" type="line" smooth="yes"/>
      <point x="708" y="270"/>
      <point x="816" y="205"/>
      <point x="816" y="159" type="curve" smooth="yes"/>
      <point x="816" y="97"/>
      <point x="735" y="59"/>
      <point x="562" y="59" type="curve" smooth="yes"/>
      <point x="415" y="59"/>
      <point x="292" y="84"/>
      <point x="169" y="121" type="curve"/>
      <point x="159" y="105" type="line"/>
      <point x="159" y="104"/>
      <point x="160" y="104"/>
      <point x="160" y="104" type="curve"/>
      <point x="159" y="104" type="line"/>
      <point x="176" y="82"/>
      <point x="258" y="-11"/>
      <point x="299" y="-41" type="curve"/>
      <point x="303" y="-41"/>
      <point x="323" y="-40"/>
      <point x="334" y="-38" type="curve"/>
      <point x="299" y="-15"/>
      <point x="235" y="53"/>
      <point x="203" y="92" type="curve"/>
      <point x="321" y="58"/>
      <point x="443" y="40"/>
      <point x="559" y="40" type="curve" smooth="yes"/>
      <point x="603" y="40"/>
      <point x="642" y="42"/>
      <point x="676" y="48" type="curve"/>
      <point x="708" y="17"/>
      <point x="766" y="-29"/>
      <point x="784" y="-42" type="curve"/>
      <point x="788" y="-41"/>
      <point x="806" y="-40"/>
      <point x="819" y="-39" type="curve"/>
      <point x="797" y="-25"/>
      <point x="738" y="25"/>
      <point x="707" y="53" type="curve"/>
      <point x="802" y="72"/>
      <point x="849" y="111"/>
      <point x="849" y="158" type="curve" smooth="yes"/>
      <point x="849" y="210"/>
      <point x="776" y="263"/>
      <point x="615" y="282" type="curve"/>
      <point x="762" y="307"/>
      <point x="818" y="367"/>
      <point x="822" y="453" type="curve"/>
    </contour>
  </outline>
</glyph>
<glyph name="uni0A5E" format="1">
  <advance width="976"/>
  <unicode hex="0A5E"/>
  <outline>
    <contour>
      <point x="976" y="474" type="line"/>
      <point x="976" y="492" type="line"/>
      <point x="0" y="492" type="line"/>
      <point x="0" y="474" type="line"/>
      <point x="734" y="474" type="line"/>
      <point x="734" y="343" type="line"/>
      <point x="375" y="343" type="line" smooth="yes"/>
      <point x="224" y="343"/>
      <point x="151" y="296"/>
      <point x="151" y="234" type="curve" smooth="yes"/>
      <point x="151" y="234" type="line" smooth="yes"/>
      <point x="151" y="111"/>
      <point x="390" y="8"/>
      <point x="626" y="8" type="curve" smooth="yes"/>
      <point x="627" y="8" type="line" smooth="yes"/>
      <point x="766" y="8"/>
      <point x="835" y="53"/>
      <point x="835" y="106" type="curve" smooth="yes"/>
      <point x="835" y="107" type="line" smooth="yes"/>
      <point x="835" y="152"/>
      <point x="773" y="198"/>
      <point x="644" y="198" type="curve" smooth="yes"/>
      <point x="643" y="198" type="line" smooth="yes"/>
      <point x="532" y="198"/>
      <point x="421" y="156"/>
      <point x="332" y="85" type="curve"/>
      <point x="331" y="85" type="line"/>
      <point x="243" y="124"/>
      <point x="185" y="177"/>
      <point x="185" y="230" type="curve" smooth="yes"/>
      <point x="185" y="231" type="line" smooth="yes"/>
      <point x="185" y="286"/>
      <point x="248" y="324"/>
      <point x="385" y="324" type="curve" smooth="yes"/>
      <point x="765" y="324" type="line"/>
      <point x="765" y="474" type="line"/>
    </contour>
    <contour>
      <point x="642" y="180" type="curve" smooth="yes"/>
      <point x="643" y="180" type="line" smooth="yes"/>
      <point x="750" y="180"/>
      <point x="803" y="143"/>
      <point x="803" y="106" type="curve" smooth="yes"/>
      <point x="803" y="106" type="line" smooth="yes"/>
      <point x="803" y="59"/>
      <point x="738" y="26"/>
      <point x="630" y="26" type="curve" smooth="yes"/>
      <point x="629" y="26" type="line" smooth="yes"/>
      <point x="531" y="26"/>
      <point x="436" y="44"/>
      <point x="359" y="74" type="curve"/>
      <point x="442" y="143"/>
      <point x="552" y="180"/>
    </contour>
    <contour>
      <point x="109" y="0" type="line"/>
      <point x="147" y="0" type="line"/>
      <point x="147" y="56" type="line"/>
      <point x="109" y="56" type="line"/>
    </contour>
  </outline>
</glyph>
<glyph name="uni0A66" format="1">
  <advance width="878"/>
  <unicode hex="0A66"/>
  <outline>
    <contour>
      <point x="439" y="473" type="curve" smooth="yes"/>
      <point x="251" y="473"/>
      <point x="103" y="375"/>
      <point x="103" y="239" type="curve" smooth="yes"/>
      <point x="103" y="105"/>
      <point x="251" y="1"/>
      <point x="439" y="1" type="curve" smooth="yes"/>
      <point x="626" y="1"/>
      <point x="776" y="105"/>
      <point x="776" y="239" type="curve" smooth="yes"/>
      <point x="776" y="375"/>
      <point x="626" y="473"/>
    </contour>
    <contour>
      <point x="438" y="453" type="curve" smooth="yes"/>
      <point x="608" y="453"/>
      <point x="743" y="363"/>
      <point x="743" y="238" type="curve" smooth="yes"/>
      <point x="743" y="115"/>
      <point x="608" y="21"/>
      <point x="438" y="21" type="curve" smooth="yes"/>
      <point x="269" y="21"/>
      <point x="135" y="115"/>
      <point x="135" y="238" type="curve" smooth="yes"/>
      <point x="135" y="363"/>
      <point x="269" y="453"/>
    </contour>
  </outline>
</glyph>
<glyph name="uni0A68" format="1">
  <advance width="877"/>
  <unicode hex="0A68"/>
  <outline>
    <contour>
      <point x="788" y="14" type="line"/>
      <point x="703" y="72"/>
      <point x="600" y="118"/>
      <point x="473" y="178" type="curve"/>
      <point x="642" y="204"/>
      <point x="752" y="268"/>
      <point x="752" y="338" type="curve" smooth="yes"/>
      <point x="752" y="412"/>
      <point x="642" y="474"/>
      <point x="454" y="474" type="curve" smooth="yes"/>
      <point x="355" y="474"/>
      <point x="240" y="452"/>
      <point x="130" y="419" type="curve"/>
      <point x="130" y="400" type="line"/>
      <point x="249" y="436"/>
      <point x="349" y="455"/>
      <point x="453" y="455" type="curve" smooth="yes"/>
      <point x="626" y="455"/>
      <point x="719" y="401"/>
      <point x="719" y="337" type="curve" smooth="yes"/>
      <point x="719" y="277"/>
      <point x="617" y="211"/>
      <point x="432" y="188" type="curve"/>
      <point x="333" y="189"/>
      <point x="316" y="187"/>
      <point x="231" y="189" type="curve"/>
      <point x="230" y="169" type="line"/>
      <point x="302" y="168"/>
      <point x="321" y="170"/>
      <point x="438" y="170" type="curve"/>
      <point x="553" y="119"/>
      <point x="666" y="69"/>
      <point x="761" y="1" type="curve"/>
    </contour>
  </outline>
</glyph>
<glyph name="uni0A69" format="1">
  <advance width="940"/>
  <unicode hex="0A69"/>
  <outline>
    <contour>
      <point x="438" y="-34" type="line"/>
      <point x="418" y="-15"/>
      <point x="367" y="22"/>
      <point x="342" y="42" type="curve"/>
      <point x="410" y="36"/>
      <point x="438" y="34"/>
      <point x="504" y="35" type="curve" smooth="yes"/>
      <point x="628" y="36"/>
      <point x="729" y="76"/>
      <point x="729" y="131" type="curve" smooth="yes"/>
      <point x="729" y="173"/>
      <point x="681" y="212"/>
      <point x="580" y="232" type="curve"/>
      <point x="695" y="245"/>
      <point x="774" y="292"/>
      <point x="774" y="350" type="curve" smooth="yes"/>
      <point x="774" y="398"/>
      <point x="694" y="453"/>
      <point x="493" y="453" type="curve" smooth="yes"/>
      <point x="372" y="453"/>
      <point x="273" y="443"/>
      <point x="174" y="419" type="curve"/>
      <point x="190" y="402" type="line"/>
      <point x="293" y="428"/>
      <point x="375" y="435"/>
      <point x="490" y="435" type="curve" smooth="yes"/>
      <point x="672" y="435"/>
      <point x="741" y="385"/>
      <point x="741" y="346" type="curve" smooth="yes"/>
      <point x="741" y="293"/>
      <point x="641" y="248"/>
      <point x="514" y="243" type="curve"/>
      <point x="427" y="244"/>
      <point x="350" y="244"/>
      <point x="295" y="244" type="curve"/>
      <point x="295" y="225" type="line"/>
      <point x="339" y="224"/>
      <point x="383" y="226"/>
      <point x="518" y="225" type="curve"/>
      <point x="654" y="210"/>
      <point x="697" y="165"/>
      <point x="697" y="125" type="curve" smooth="yes"/>
      <point x="697" y="91"/>
      <point x="619" y="54"/>
      <point x="500" y="53" type="curve" smooth="yes"/>
      <point x="460" y="52"/>
      <point x="397" y="55"/>
      <point x="323" y="62" type="curve"/>
      <point x="302" y="76"/>
      <point x="249" y="111"/>
      <point x="220" y="133" type="curve"/>
      <point x="188" y="124" type="line"/>
      <point x="247" y="81"/>
      <point x="367" y="-3"/>
      <point x="407" y="-39" type="curve"/>
    </contour>
  </outline>
</glyph>
<glyph name="uni0A6A" format="1">
  <advance width="967"/>
  <unicode hex="0A6A"/>
  <outline>
    <contour>
      <point x="244" y="121" type="curve" smooth="yes"/>
      <point x="244" y="67"/>
      <point x="317" y="-3"/>
      <point x="476" y="-3" type="curve" smooth="yes"/>
      <point x="642" y="-3"/>
      <point x="709" y="64"/>
      <point x="709" y="123" type="curve" smooth="yes"/>
      <point x="709" y="165"/>
      <point x="675" y="209"/>
      <point x="603" y="250" type="curve" smooth="yes"/>
      <point x="499" y="310" type="line"/>
      <point x="599" y="364"/>
      <point x="716" y="421"/>
      <point x="847" y="462" type="curve"/>
      <point x="831" y="474" type="line"/>
      <point x="691" y="435"/>
      <point x="576" y="378"/>
      <point x="476" y="323" type="curve"/>
      <point x="372" y="382"/>
      <point x="256" y="443"/>
      <point x="140" y="476" type="curve"/>
      <point x="120" y="462" type="line"/>
      <point x="221" y="431"/>
      <point x="340" y="370"/>
      <point x="451" y="309" type="curve"/>
      <point x="350" y="251" type="line" smooth="yes"/>
      <point x="278" y="210"/>
      <point x="244" y="171"/>
    </contour>
    <contour>
      <point x="576" y="239" type="line" smooth="yes"/>
      <point x="643" y="200"/>
      <point x="675" y="156"/>
      <point x="675" y="124" type="curve" smooth="yes"/>
      <point x="675" y="68"/>
      <point x="608" y="16"/>
      <point x="476" y="16" type="curve" smooth="yes"/>
      <point x="347" y="16"/>
      <point x="278" y="70"/>
      <point x="278" y="122" type="curve" smooth="yes"/>
      <point x="278" y="162"/>
      <point x="312" y="204"/>
      <point x="374" y="239" type="curve" smooth="yes"/>
      <point x="405" y="257"/>
      <point x="439" y="276"/>
      <point x="475" y="296" type="curve"/>
    </contour>
  </outline>
</glyph>
<glyph name="uni0A6E" format="1">
  <advance width="995"/>
  <unicode hex="0A6E"/>
  <outline>
    <contour>
      <point x="233" y="345" type="line"/>
      <point x="231" y="349" type="line"/>
      <point x="817" y="349" type="line"/>
      <point x="817" y="368" type="line"/>
      <point x="227" y="368" type="line"/>
      <point x="221" y="402"/>
      <point x="217" y="454"/>
      <point x="212" y="475" type="curve"/>
      <point x="176" y="472" type="line"/>
      <point x="183" y="449"/>
      <point x="190" y="372"/>
      <point x="201" y="345" type="curve"/>
      <point x="211" y="312" type="line" smooth="yes"/>
      <point x="275" y="96"/>
      <point x="434" y="0"/>
      <point x="671" y="0" type="curve" smooth="yes"/>
      <point x="734" y="0"/>
      <point x="802" y="6"/>
      <point x="854" y="13" type="curve"/>
      <point x="846" y="32" type="line"/>
      <point x="789" y="23"/>
      <point x="725" y="20"/>
      <point x="671" y="20" type="curve" smooth="yes"/>
      <point x="484" y="20"/>
      <point x="316" y="82"/>
      <point x="243" y="312" type="curve" smooth="yes"/>
      <point x="232" y="345" type="line"/>
    </contour>
  </outline>
</glyph>
<glyph name="uni0A6F" format="1">
  <advance width="1022"/>
  <unicode hex="0A6F"/>
  <outline>
    <contour>
      <point x="233" y="345" type="line"/>
      <point x="231" y="349" type="line"/>
      <point x="817" y="349" type="line"/>
      <point x="817" y="368" type="line"/>
      <point x="734" y="368" type="line"/>
      <point x="724" y="379" type="line" smooth="yes"/>
      <point x="702" y="399"/>
      <point x="683" y="420"/>
      <point x="683" y="443" type="curve" smooth="yes"/>
      <point x="683" y="480"/>
      <point x="707" y="502"/>
      <point x="781" y="502" type="curve" smooth="yes"/>
      <point x="835" y="502" type="line"/>
      <point x="831" y="518" type="line"/>
      <point x="774" y="518" type="line" smooth="yes"/>
      <point x="687" y="517"/>
      <point x="653" y="490"/>
      <point x="653" y="448" type="curve" smooth="yes"/>
      <point x="653" y="417"/>
      <point x="674" y="394"/>
      <point x="698" y="371" type="curve" smooth="yes"/>
      <point x="701" y="368" type="line"/>
      <point x="227" y="368" type="line"/>
      <point x="221" y="402"/>
      <point x="217" y="454"/>
      <point x="212" y="475" type="curve"/>
      <point x="176" y="472" type="line"/>
      <point x="183" y="449"/>
      <point x="190" y="372"/>
      <point x="201" y="345" type="curve"/>
      <point x="211" y="312" type="line" smooth="yes"/>
      <point x="275" y="96"/>
      <point x="434" y="0"/>
      <point x="671" y="0" type="curve" smooth="yes"/>
      <point x="734" y="0"/>
      <point x="802" y="6"/>
      <point x="854" y="13" type="curve"/>
      <point x="846" y="32" type="line"/>
      <point x="789" y="23"/>
      <point x="725" y="20"/>
      <point x="671" y="20" type="curve" smooth="yes"/>
      <point x="484" y="20"/>
      <point x="316" y="82"/>
      <point x="243" y="312" type="curve" smooth="yes"/>
      <point x="232" y="345" type="line"/>
    </contour>
  </outline>
</glyph>
<glyph name="uni0A71" format="1">
  <advance width="-1"/>
  <unicode hex="0A71"/>
  <outline>
    <contour>
      <point x="-270" y="1140" type="curve" smooth="yes"/>
      <point x="-125" y="1140"/>
      <point x="-53" y="1202"/>
      <point x="-66" y="1286" type="curve"/>
      <point x="-97" y="1291" type="line"/>
      <point x="-86" y="1211"/>
      <point x="-145" y="1159"/>
      <point x="-263" y="1159" type="curve" smooth="yes"/>
      <point x="-397" y="1159"/>
      <point x="-458" y="1202"/>
      <point x="-452" y="1291" type="curve"/>
      <point x="-483" y="1285" type="line"/>
      <point x="-489" y="1187"/>
      <point x="-405" y="1140"/>
    </contour>
  </outline>
</glyph>
<glyph name="endash" format="1">
  <advance width="922"/>
  <unicode hex="2013"/>
  <outline>
    <contour>
      <point x="836" y="431" type="line"/>
      <point x="86" y="431" type="line"/>
      <point x="88" y="412" type="line"/>
      <point x="836" y="412" type="line"/>
    </contour>
  </outline>
</glyph>
<glyph name="quoteleft" format="1">
  <advance width="500"/>
  <unicode hex="2018"/>
  <outline>
    <contour>
      <point x="247" y="595" type="line"/>
      <point x="247" y="645" type="line" smooth="yes"/>
      <point x="247" y="705"/>
      <point x="260" y="765"/>
      <point x="302" y="842" type="curve"/>
      <point x="276" y="844" type="line"/>
      <point x="232" y="770"/>
      <point x="214" y="700"/>
      <point x="214" y="647" type="curve" smooth="yes"/>
      <point x="214" y="595" type="line"/>
    </contour>
  </outline>
</glyph>
<glyph name="quotedblleft" format="1">
  <advance width="842"/>
  <unicode hex="201C"/>
  <outline>
    <contour>
      <point x="589" y="595" type="line"/>
      <point x="589" y="645" type="line" smooth="yes"/>
      <point x="589" y="705"/>
      <point x="602" y="765"/>
      <point x="644" y="842" type="curve"/>
      <point x="618" y="844" type="line"/>
      <point x="574" y="770"/>
      <point x="556" y="700"/>
      <point x="556" y="647" type="curve" smooth="yes"/>
      <point x="556" y="595" type="line"/>
    </contour>
    <contour>
      <point x="248" y="595" type="line"/>
      <point x="248" y="645" type="line" smooth="yes"/>
      <point x="248" y="705"/>
      <point x="262" y="765"/>
      <point x="304" y="842" type="curve"/>
      <point x="278" y="844" type="line"/>
      <point x="234" y="770"/>
      <point x="216" y="700"/>
      <point x="216" y="647" type="curve" smooth="yes"/>
      <point x="216" y="595" type="line"/>
    </contour>
  </outline>
</glyph>
<glyph name="quotedblright" format="1">
  <advance width="842"/>
  <unicode hex="201D"/>
  <outline>
    <contour>
      <point x="235" y="842" type="line"/>
      <point x="235" y="792" type="line" smooth="yes"/>
      <point x="235" y="732"/>
      <point x="221" y="672"/>
      <point x="179" y="595" type="curve"/>
      <point x="205" y="593" type="line"/>
      <point x="249" y="667"/>
      <point x="267" y="737"/>
      <point x="267" y="790" type="curve" smooth="yes"/>
      <point x="267" y="842" type="line"/>
    </contour>
    <contour>
      <point x="575" y="842" type="line"/>
      <point x="575" y="792" type="line" smooth="yes"/>
      <point x="575" y="732"/>
      <point x="562" y="672"/>
      <point x="519" y="595" type="curve"/>
      <point x="545" y="593" type="line"/>
      <point x="590" y="667"/>
      <point x="608" y="737"/>
      <point x="608" y="790" type="curve" smooth="yes"/>
      <point x="608" y="842" type="line"/>
    </contour>
  </outline>
</glyph>
<glyph name="bullet" format="1">
  <advance width="763"/>
  <unicode hex="2022"/>
  <outline>
    <contour>
      <point x="383" y="460" type="line" smooth="yes"/>
      <point x="327" y="460"/>
      <point x="284" y="435"/>
      <point x="284" y="404" type="curve" smooth="yes"/>
      <point x="284" y="372"/>
      <point x="327" y="347"/>
      <point x="383" y="347" type="curve" smooth="yes"/>
      <point x="434" y="347"/>
      <point x="477" y="372"/>
      <point x="477" y="404" type="curve" smooth="yes"/>
      <point x="477" y="435"/>
      <point x="434" y="460"/>
      <point x="383" y="460" type="curve" smooth="yes"/>
    </contour>
  </outline>
</glyph>
<glyph name="ellipsis" format="1">
  <advance width="1634"/>
  <unicode hex="2026"/>
  <outline>
    <contour>
      <point x="256" y="0" type="line"/>
      <point x="293" y="0" type="line"/>
      <point x="293" y="71" type="line"/>
      <point x="256" y="71" type="line"/>
    </contour>
    <contour>
      <point x="813" y="0" type="line"/>
      <point x="851" y="0" type="line"/>
      <point x="851" y="71" type="line"/>
      <point x="813" y="71" type="line"/>
    </contour>
    <contour>
      <point x="1362" y="0" type="line"/>
      <point x="1400" y="0" type="line"/>
      <point x="1400" y="71" type="line"/>
      <point x="1362" y="71" type="line"/>
    </contour>
  </outline>
</glyph>
<glyph name="trademark" format="1">
  <advance width="1349"/>
  <unicode hex="2122"/>
  <outline>
    <contour>
      <point x="693" y="941" type="line"/>
      <point x="693" y="743" type="line"/>
      <point x="718" y="743" type="line"/>
      <point x="718" y="914" type="line"/>
      <point x="865" y="790" type="line"/>
      <point x="871" y="790" type="line"/>
      <point x="1018" y="914" type="line"/>
      <point x="1018" y="743" type="line"/>
      <point x="1043" y="743" type="line"/>
      <point x="1043" y="941" type="line"/>
      <point x="1020" y="941" type="line"/>
      <point x="869" y="812" type="line"/>
      <point x="716" y="941" type="line"/>
    </contour>
    <contour>
      <point x="589" y="927" type="line"/>
      <point x="589" y="941" type="line"/>
      <point x="306" y="941" type="line"/>
      <point x="306" y="927" type="line"/>
      <point x="435" y="927" type="line"/>
      <point x="435" y="743" type="line"/>
      <point x="460" y="743" type="line"/>
      <point x="460" y="927" type="line"/>
    </contour>
  </outline>
</glyph>
<glyph name="minus" format="1">
  <advance width="1106"/>
  <unicode hex="2212"/>
  <outline>
    <contour>
      <point x="975" y="702" type="line"/>
      <point x="975" y="721" type="line"/>
      <point x="131" y="721" type="line"/>
      <point x="131" y="702" type="line"/>
    </contour>
  </outline>
</glyph>
<glyph name="_0254" format="1">
  <advance width="424"/>
  <outline>
    <contour>
      <point x="424" y="474" type="line"/>
      <point x="424" y="492" type="line"/>
      <point x="228" y="492" type="line"/>
      <point x="228" y="608" type="line" smooth="yes"/>
      <point x="228" y="698"/>
      <point x="304" y="738"/>
      <point x="427" y="738" type="curve" smooth="yes"/>
      <point x="547" y="738"/>
      <point x="618" y="690"/>
      <point x="618" y="607" type="curve" smooth="yes"/>
      <point x="618" y="583" type="line"/>
      <point x="650" y="584" type="line"/>
      <point x="650" y="612" type="line" smooth="yes"/>
      <point x="650" y="700"/>
      <point x="568" y="757"/>
      <point x="428" y="757" type="curve" smooth="yes"/>
      <point x="280" y="757"/>
      <point x="196" y="707"/>
      <point x="196" y="620" type="curve" smooth="yes"/>
      <point x="196" y="492" type="line"/>
      <point x="0" y="492" type="line"/>
      <point x="0" y="474" type="line"/>
      <point x="196" y="474" type="line"/>
      <point x="196" y="0" type="line"/>
      <point x="228" y="0" type="line"/>
      <point x="228" y="474" type="line"/>
    </contour>
  </outline>
</glyph>
<glyph name="_129" format="1">
  <advance width="0.0"/>
  <outline>
    <contour>
      <point x="-307" y="1198" type="line"/>
      <point x="-239" y="945" type="line"/>
      <point x="-207" y="945" type="line"/>
      <point x="-275" y="1203" type="line"/>
    </contour>
    <contour>
      <point x="-38" y="1048" type="line"/>
      <point x="0" y="1048" type="line"/>
      <point x="0" y="1104" type="line"/>
      <point x="-38" y="1104" type="line"/>
    </contour>
  </outline>
</glyph>
<glyph name="_130" format="1">
  <advance width="0.0"/>
  <outline>
    <contour>
      <point x="-307" y="1198" type="line"/>
      <point x="-239" y="945" type="line"/>
      <point x="-207" y="945" type="line"/>
      <point x="-275" y="1202" type="line"/>
    </contour>
    <contour>
      <point x="-551" y="944" type="line"/>
      <point x="-618" y="1201" type="line"/>
      <point x="-651" y="1197" type="line"/>
      <point x="-583" y="944" type="line"/>
    </contour>
    <contour>
      <point x="-38" y="1048" type="line"/>
      <point x="0" y="1048" type="line"/>
      <point x="0" y="1103" type="line"/>
      <point x="-38" y="1103" type="line"/>
    </contour>
  </outline>
</glyph>
<glyph name="_197" format="1">
  <advance width="1188.0"/>
  <outline>
    <contour>
      <point x="1210" y="364" type="line"/>
      <point x="0" y="364" type="line"/>
      <point x="0" y="290" type="line"/>
      <point x="900" y="290" type="line"/>
      <point x="900" y="94" type="line"/>
      <point x="276" y="94" type="line" smooth="yes"/>
      <point x="223" y="94"/>
      <point x="180" y="85"/>
      <point x="147" y="69" type="curve" smooth="yes"/>
      <point x="104" y="48"/>
      <point x="82" y="15"/>
      <point x="82" y="-29" type="curve" smooth="yes"/>
      <point x="82" y="-89"/>
      <point x="155" y="-152"/>
      <point x="302" y="-218" type="curve" smooth="yes"/>
      <point x="450" y="-285"/>
      <point x="595" y="-319"/>
      <point x="738" y="-319" type="curve" smooth="yes"/>
      <point x="942" y="-319"/>
      <point x="1044" y="-250"/>
      <point x="1044" y="-111" type="curve" smooth="yes"/>
      <point x="1044" y="290" type="line"/>
      <point x="1210" y="290" type="line"/>
    </contour>
    <contour>
      <point x="900" y="-100" type="line" smooth="yes"/>
      <point x="900" y="-191"/>
      <point x="846" y="-236"/>
      <point x="738" y="-236" type="curve" smooth="yes"/>
      <point x="636" y="-236"/>
      <point x="528" y="-211"/>
      <point x="413" y="-159" type="curve" smooth="yes"/>
      <point x="306" y="-111"/>
      <point x="252" y="-71"/>
      <point x="252" y="-39" type="curve" smooth="yes"/>
      <point x="252" y="-23"/>
      <point x="256" y="-11"/>
      <point x="263" y="-6" type="curve" smooth="yes"/>
      <point x="278" y="6"/>
      <point x="311" y="12"/>
      <point x="362" y="12" type="curve" smooth="yes"/>
      <point x="900" y="12" type="line"/>
    </contour>
    <contour>
      <point x="946" y="-390" type="line"/>
      <point x="830" y="-437" type="line"/>
      <point x="1096" y="-651" type="line"/>
      <point x="1210" y="-601" type="line"/>
    </contour>
  </outline>
</glyph>
<glyph name="_199" format="1">
  <advance width="1300"/>
  <outline>
    <contour>
      <point x="1321" y="364" type="line"/>
      <point x="0" y="364" type="line"/>
      <point x="0" y="290" type="line"/>
      <point x="273" y="290" type="line"/>
      <point x="296" y="216"/>
      <point x="325" y="159"/>
      <point x="360" y="117" type="curve"/>
      <point x="272" y="84"/>
      <point x="209" y="56"/>
      <point x="172" y="32" type="curve" smooth="yes"/>
      <point x="114" y="-5"/>
      <point x="86" y="-46"/>
      <point x="86" y="-92" type="curve" smooth="yes"/>
      <point x="86" y="-149"/>
      <point x="131" y="-199"/>
      <point x="222" y="-244" type="curve" smooth="yes"/>
      <point x="297" y="-281"/>
      <point x="390" y="-308"/>
      <point x="499" y="-326" type="curve"/>
      <point x="536" y="-246" type="line"/>
      <point x="464" y="-234"/>
      <point x="399" y="-218"/>
      <point x="344" y="-197" type="curve" smooth="yes"/>
      <point x="268" y="-169"/>
      <point x="230" y="-138"/>
      <point x="230" y="-105" type="curve" smooth="yes"/>
      <point x="230" y="-70"/>
      <point x="249" y="-39"/>
      <point x="287" y="-13" type="curve" smooth="yes"/>
      <point x="315" y="6"/>
      <point x="361" y="26"/>
      <point x="425" y="48" type="curve"/>
      <point x="473" y="9"/>
      <point x="545" y="-23"/>
      <point x="643" y="-49" type="curve"/>
      <point x="741" y="-23"/>
      <point x="813" y="9"/>
      <point x="860" y="48" type="curve"/>
      <point x="924" y="26"/>
      <point x="970" y="6"/>
      <point x="998" y="-13" type="curve" smooth="yes"/>
      <point x="1036" y="-39"/>
      <point x="1055" y="-70"/>
      <point x="1055" y="-105" type="curve" smooth="yes"/>
      <point x="1055" y="-138"/>
      <point x="1017" y="-169"/>
      <point x="941" y="-197" type="curve" smooth="yes"/>
      <point x="887" y="-218"/>
      <point x="822" y="-234"/>
      <point x="749" y="-246" type="curve"/>
      <point x="787" y="-326" type="line"/>
      <point x="896" y="-308"/>
      <point x="988" y="-281"/>
      <point x="1063" y="-244" type="curve" smooth="yes"/>
      <point x="1154" y="-199"/>
      <point x="1200" y="-149"/>
      <point x="1200" y="-92" type="curve" smooth="yes"/>
      <point x="1200" y="-46"/>
      <point x="1171" y="-5"/>
      <point x="1113" y="32" type="curve" smooth="yes"/>
      <point x="1076" y="56"/>
      <point x="1013" y="84"/>
      <point x="925" y="117" type="curve"/>
      <point x="960" y="159"/>
      <point x="989" y="216"/>
      <point x="1013" y="290" type="curve"/>
      <point x="1321" y="290" type="line"/>
    </contour>
    <contour>
      <point x="869" y="290" type="line"/>
      <point x="854" y="187"/>
      <point x="779" y="103"/>
      <point x="643" y="37" type="curve"/>
      <point x="507" y="103"/>
      <point x="431" y="187"/>
      <point x="417" y="290" type="curve"/>
    </contour>
    <contour>
      <point x="256" y="-332" type="curve" smooth="yes"/>
      <point x="256" y="-303"/>
      <point x="213" y="-279"/>
      <point x="162" y="-279" type="curve" smooth="yes"/>
      <point x="111" y="-279"/>
      <point x="68" y="-303"/>
      <point x="68" y="-332" type="curve" smooth="yes"/>
      <point x="68" y="-362"/>
      <point x="111" y="-386"/>
      <point x="162" y="-386" type="curve" smooth="yes"/>
      <point x="213" y="-386"/>
      <point x="256" y="-362"/>
    </contour>
    <contour>
      <point x="901" y="-390" type="line"/>
      <point x="785" y="-437" type="line"/>
      <point x="1051" y="-651" type="line"/>
      <point x="1165" y="-601" type="line"/>
    </contour>
  </outline>
</glyph>
<glyph name=".notdef" format="1">
  <advance width="792.0"/>
  <outline>
    <contour>
      <point x="792" y="0" type="line"/>
      <point x="792" y="634" type="line"/>
      <point x="0" y="634" type="line"/>
      <point x="0" y="0" type="line"/>
    </contour>
    <contour>
      <point x="665" y="588" type="line"/>
      <point x="395" y="357" type="line"/>
      <point x="127" y="588" type="line"/>
    </contour>
    <contour>
      <point x="711" y="86" type="line"/>
      <point x="443" y="317" type="line"/>
      <point x="711" y="548" type="line"/>
    </contour>
    <contour>
      <point x="127" y="45" type="line"/>
      <point x="395" y="276" type="line"/>
      <point x="665" y="45" type="line"/>
    </contour>
    <contour>
      <point x="79" y="548" type="line"/>
      <point x="349" y="317" type="line"/>
      <point x="79" y="86" type="line"/>
    </contour>
  </outline>
</glyph>
<glyph name="afii301" format="1">
  <advance width="0.0"/>
  <outline>
    <contour>
      <point x="43" y="659" type="line"/>
      <point x="197" y="745" type="line"/>
      <point x="153" y="770" type="line"/>
      <point x="0" y="682" type="line"/>
      <point x="-153" y="770" type="line"/>
      <point x="-197" y="745" type="line"/>
      <point x="-43" y="659" type="line"/>
      <point x="-197" y="572" type="line"/>
      <point x="-153" y="546" type="line"/>
      <point x="-32" y="616" type="line"/>
      <point x="-32" y="-275" type="line"/>
      <point x="32" y="-275" type="line"/>
      <point x="32" y="616" type="line"/>
      <point x="153" y="546" type="line"/>
      <point x="197" y="572" type="line"/>
    </contour>
  </outline>
</glyph>
<glyph name="ampersand.001" format="1">
  <advance width="1217"/>
  <outline>
    <contour>
      <point x="299" y="117" type="curve" smooth="yes"/>
      <point x="299" y="116" type="line" smooth="yes"/>
      <point x="299" y="48"/>
      <point x="401" y="-10"/>
      <point x="550" y="-10" type="curve" smooth="yes"/>
      <point x="671" y="-10"/>
      <point x="768" y="30"/>
      <point x="836" y="79" type="curve"/>
      <point x="980" y="-10" type="line"/>
      <point x="1003" y="2" type="line"/>
      <point x="854" y="93" type="line"/>
      <point x="906" y="135"/>
      <point x="943" y="180"/>
      <point x="977" y="232" type="curve"/>
      <point x="945" y="238" type="line"/>
      <point x="912" y="186"/>
      <point x="878" y="146"/>
      <point x="832" y="107" type="curve"/>
      <point x="580" y="263" type="line"/>
      <point x="759" y="305"/>
      <point x="799" y="345"/>
      <point x="799" y="391" type="curve" smooth="yes"/>
      <point x="799" y="393" type="line" smooth="yes"/>
      <point x="799" y="442"/>
      <point x="726" y="490"/>
      <point x="611" y="490" type="curve" smooth="yes"/>
      <point x="487" y="490"/>
      <point x="419" y="437"/>
      <point x="419" y="390" type="curve" smooth="yes"/>
      <point x="419" y="389" type="line" smooth="yes"/>
      <point x="419" y="354"/>
      <point x="446" y="319"/>
      <point x="526" y="270" type="curve"/>
      <point x="528" y="268" type="line"/>
      <point x="356" y="224"/>
      <point x="299" y="180"/>
    </contour>
    <contour>
      <point x="550" y="9" type="curve" smooth="yes"/>
      <point x="417" y="9"/>
      <point x="333" y="60"/>
      <point x="333" y="116" type="curve" smooth="yes"/>
      <point x="333" y="117" type="line" smooth="yes"/>
      <point x="333" y="173"/>
      <point x="393" y="217"/>
      <point x="549" y="256" type="curve"/>
      <point x="813" y="93" type="line"/>
      <point x="743" y="41"/>
      <point x="654" y="9"/>
    </contour>
    <contour>
      <point x="451" y="389" type="curve" smooth="yes"/>
      <point x="451" y="391" type="line" smooth="yes"/>
      <point x="451" y="432"/>
      <point x="506" y="472"/>
      <point x="611" y="472" type="curve" smooth="yes"/>
      <point x="712" y="472"/>
      <point x="767" y="434"/>
      <point x="767" y="393" type="curve" smooth="yes"/>
      <point x="767" y="391" type="line" smooth="yes"/>
      <point x="767" y="348"/>
      <point x="720" y="315"/>
      <point x="559" y="276" type="curve"/>
      <point x="553" y="280" type="line" smooth="yes"/>
      <point x="474" y="328"/>
      <point x="451" y="358"/>
    </contour>
  </outline>
</glyph>
<glyph name="ampersand.002" format="1">
  <advance width="1217"/>
  <outline>
    <contour>
      <point x="308" y="106" type="curve" smooth="yes"/>
      <point x="308" y="105" type="line" smooth="yes"/>
      <point x="308" y="43"/>
      <point x="408" y="-10"/>
      <point x="546" y="-10" type="curve" smooth="yes"/>
      <point x="657" y="-10"/>
      <point x="731" y="10"/>
      <point x="806" y="52" type="curve" smooth="yes"/>
      <point x="827" y="65" type="line"/>
      <point x="944" y="-10" type="line"/>
      <point x="974" y="-1" type="line"/>
      <point x="850" y="79" type="line"/>
      <point x="897" y="110"/>
      <point x="942" y="149"/>
      <point x="995" y="209" type="curve"/>
      <point x="966" y="218" type="line"/>
      <point x="916" y="157"/>
      <point x="866" y="118"/>
      <point x="827" y="93" type="curve"/>
      <point x="555" y="267" type="line"/>
      <point x="560" y="269" type="line" smooth="yes"/>
      <point x="718" y="329"/>
      <point x="749" y="366"/>
      <point x="749" y="410" type="curve" smooth="yes"/>
      <point x="749" y="451"/>
      <point x="686" y="490"/>
      <point x="568" y="490" type="curve" smooth="yes"/>
      <point x="446" y="490"/>
      <point x="380" y="454"/>
      <point x="380" y="403" type="curve" smooth="yes"/>
      <point x="380" y="357"/>
      <point x="419" y="324"/>
      <point x="509" y="270" type="curve"/>
      <point x="361" y="212"/>
      <point x="308" y="159"/>
    </contour>
    <contour>
      <point x="790" y="70" type="line" smooth="yes"/>
      <point x="713" y="26"/>
      <point x="634" y="9"/>
      <point x="552" y="9" type="curve" smooth="yes"/>
      <point x="424" y="9"/>
      <point x="342" y="54"/>
      <point x="342" y="105" type="curve" smooth="yes"/>
      <point x="342" y="106" type="line" smooth="yes"/>
      <point x="342" y="156"/>
      <point x="389" y="201"/>
      <point x="529" y="257" type="curve"/>
      <point x="806" y="79" type="line"/>
    </contour>
    <contour>
      <point x="412" y="397" type="curve" smooth="yes"/>
      <point x="412" y="444"/>
      <point x="468" y="472"/>
      <point x="565" y="472" type="curve" smooth="yes"/>
      <point x="663" y="472"/>
      <point x="716" y="440"/>
      <point x="716" y="408" type="curve" smooth="yes"/>
      <point x="716" y="374"/>
      <point x="689" y="338"/>
      <point x="540" y="281" type="curve" smooth="yes"/>
      <point x="536" y="280" type="line"/>
      <point x="446" y="338"/>
      <point x="412" y="364"/>
    </contour>
  </outline>
</glyph>
<glyph name="comma.001" format="1">
  <advance width="395"/>
  <outline>
    <contour>
      <point x="179" y="-109" type="line"/>
      <point x="179" y="-179" type="line" smooth="yes"/>
      <point x="179" y="-263"/>
      <point x="142" y="-314"/>
      <point x="81" y="-370" type="curve"/>
      <point x="101" y="-374" type="line"/>
      <point x="167" y="-319"/>
      <point x="212" y="-255"/>
      <point x="212" y="-179" type="curve" smooth="yes"/>
      <point x="212" y="-109" type="line"/>
    </contour>
  </outline>
</glyph>
<glyph name="published" format="1">
  <advance width="456"/>
  <outline>
    <contour>
      <point x="456" y="474" type="line"/>
      <point x="456" y="492" type="line"/>
      <point x="0" y="492" type="line"/>
      <point x="0" y="474" type="line"/>
      <point x="212" y="474" type="line"/>
      <point x="212" y="0" type="line"/>
      <point x="244" y="0" type="line"/>
      <point x="244" y="474" type="line"/>
    </contour>
  </outline>
</glyph>
<glyph name="question.002" format="1">
  <advance width="1100"/>
  <outline>
    <contour>
      <point x="481" y="163" type="line"/>
      <point x="506" y="163" type="line"/>
      <point x="508" y="273" type="line"/>
      <point x="709" y="291"/>
      <point x="818" y="351"/>
      <point x="818" y="425" type="curve" smooth="yes"/>
      <point x="818" y="493"/>
      <point x="728" y="555"/>
      <point x="542" y="555" type="curve" smooth="yes"/>
      <point x="432" y="555"/>
      <point x="338" y="530"/>
      <point x="262" y="498" type="curve"/>
      <point x="282" y="485" type="line"/>
      <point x="355" y="516"/>
      <point x="448" y="537"/>
      <point x="539" y="537" type="curve" smooth="yes"/>
      <point x="717" y="537"/>
      <point x="785" y="483"/>
      <point x="785" y="424" type="curve" smooth="yes"/>
      <point x="785" y="358"/>
      <point x="683" y="304"/>
      <point x="480" y="289" type="curve"/>
      <point x="476" y="287" type="line"/>
    </contour>
    <contour>
      <point x="477" y="0" type="line"/>
      <point x="515" y="0" type="line"/>
      <point x="515" y="71" type="line"/>
      <point x="477" y="71" type="line"/>
    </contour>
  </outline>
</glyph>
<glyph name="quoteleft.001" format="1">
  <advance width="500"/>
  <outline>
    <contour>
      <point x="248" y="564" type="line"/>
      <point x="248" y="634" type="line" smooth="yes"/>
      <point x="248" y="718"/>
      <point x="285" y="768"/>
      <point x="347" y="825" type="curve"/>
      <point x="327" y="829" type="line"/>
      <point x="261" y="774"/>
      <point x="216" y="710"/>
      <point x="216" y="634" type="curve" smooth="yes"/>
      <point x="216" y="564" type="line"/>
    </contour>
  </outline>
</glyph>
<glyph name="quoteright.001" format="1">
  <advance width="500"/>
  <outline>
    <contour>
      <point x="251" y="829" type="line"/>
      <point x="251" y="759" type="line" smooth="yes"/>
      <point x="251" y="675"/>
      <point x="214" y="624"/>
      <point x="153" y="568" type="curve"/>
      <point x="173" y="564" type="line"/>
      <point x="239" y="619"/>
      <point x="284" y="683"/>
      <point x="284" y="759" type="curve" smooth="yes"/>
      <point x="284" y="829" type="line"/>
    </contour>
  </outline>
</glyph>
<glyph name="semicolon.001" format="1">
  <advance width="395"/>
  <outline>
    <contour>
      <point x="180" y="117" type="line"/>
      <point x="218" y="117" type="line"/>
      <point x="218" y="188" type="line"/>
      <point x="180" y="188" type="line"/>
    </contour>
    <contour>
      <point x="179" y="-109" type="line"/>
      <point x="179" y="-179" type="line" smooth="yes"/>
      <point x="179" y="-263"/>
      <point x="142" y="-314"/>
      <point x="81" y="-370" type="curve"/>
      <point x="101" y="-374" type="line"/>
      <point x="167" y="-319"/>
      <point x="212" y="-255"/>
      <point x="212" y="-179" type="curve" smooth="yes"/>
      <point x="212" y="-109" type="line"/>
    </contour>
  </outline>
</glyph>
<glyph name="u0A05_u0A3C" format="1">
  <advance width="1346"/>
  <outline>
    <contour>
      <point x="1368" y="680" type="line"/>
      <point x="1058" y="680" type="line"/>
      <point x="1058" y="379" type="line"/>
      <point x="1043" y="380"/>
      <point x="1013" y="381"/>
      <point x="970" y="381" type="curve" smooth="yes"/>
      <point x="920" y="381"/>
      <point x="881" y="380"/>
      <point x="855" y="377" type="curve"/>
      <point x="847" y="435"/>
      <point x="823" y="491"/>
      <point x="780" y="546" type="curve" smooth="yes"/>
      <point x="725" y="619"/>
      <point x="656" y="665"/>
      <point x="572" y="685" type="curve"/>
      <point x="527" y="670"/>
      <point x="482" y="646"/>
      <point x="434" y="614" type="curve" smooth="yes"/>
      <point x="337" y="544" type="line"/>
      <point x="298" y="596"/>
      <point x="233" y="641"/>
      <point x="142" y="680" type="curve"/>
      <point x="0" y="680" type="line"/>
      <point x="0" y="606" type="line"/>
      <point x="95" y="606" type="line"/>
      <point x="130" y="591"/>
      <point x="160" y="573"/>
      <point x="186" y="551" type="curve" smooth="yes"/>
      <point x="216" y="524"/>
      <point x="231" y="500"/>
      <point x="231" y="475" type="curve" smooth="yes"/>
      <point x="231" y="459"/>
      <point x="220" y="440"/>
      <point x="197" y="418" type="curve" smooth="yes"/>
      <point x="175" y="395"/>
      <point x="164" y="374"/>
      <point x="164" y="356" type="curve" smooth="yes"/>
      <point x="164" y="314"/>
      <point x="209" y="288"/>
      <point x="271" y="288" type="curve" smooth="yes"/>
      <point x="349" y="288"/>
      <point x="389" y="324"/>
      <point x="389" y="396" type="curve" smooth="yes"/>
      <point x="389" y="413"/>
      <point x="387" y="430"/>
      <point x="383" y="447" type="curve"/>
      <point x="444" y="507"/>
      <point x="507" y="554"/>
      <point x="572" y="586" type="curve"/>
      <point x="607" y="560"/>
      <point x="636" y="528"/>
      <point x="662" y="491" type="curve" smooth="yes"/>
      <point x="689" y="451"/>
      <point x="702" y="418"/>
      <point x="702" y="389" type="curve" smooth="yes"/>
      <point x="702" y="366"/>
      <point x="688" y="340"/>
      <point x="658" y="310" type="curve" smooth="yes"/>
      <point x="628" y="280"/>
      <point x="614" y="258"/>
      <point x="614" y="245" type="curve" smooth="yes"/>
      <point x="614" y="195"/>
      <point x="647" y="170"/>
      <point x="714" y="170" type="curve" smooth="yes"/>
      <point x="787" y="170"/>
      <point x="830" y="214"/>
      <point x="845" y="301" type="curve"/>
      <point x="878" y="305"/>
      <point x="921" y="307"/>
      <point x="970" y="307" type="curve" smooth="yes"/>
      <point x="996" y="307"/>
      <point x="1025" y="305"/>
      <point x="1058" y="303" type="curve"/>
      <point x="1058" y="0" type="line"/>
      <point x="1202" y="0" type="line"/>
      <point x="1202" y="606" type="line"/>
      <point x="1368" y="606" type="line"/>
    </contour>
    <contour>
      <point x="368" y="78" type="curve" smooth="yes"/>
      <point x="368" y="108"/>
      <point x="326" y="132"/>
      <point x="275" y="132" type="curve" smooth="yes"/>
      <point x="223" y="132"/>
      <point x="181" y="108"/>
      <point x="181" y="78" type="curve" smooth="yes"/>
      <point x="181" y="49"/>
      <point x="223" y="25"/>
      <point x="275" y="25" type="curve" smooth="yes"/>
      <point x="326" y="25"/>
      <point x="368" y="49"/>
    </contour>
  </outline>
</glyph>
<glyph name="u0A07_u0A3C" format="1">
  <advance width="1478"/>
  <outline>
    <contour>
      <point x="1500" y="548" type="line"/>
      <point x="375" y="548" type="line"/>
      <point x="375" y="590"/>
      <point x="392" y="628"/>
      <point x="425" y="661" type="curve" smooth="yes"/>
      <point x="469" y="705"/>
      <point x="532" y="728"/>
      <point x="615" y="728" type="curve" smooth="yes"/>
      <point x="659" y="728"/>
      <point x="698" y="719"/>
      <point x="735" y="703" type="curve" smooth="yes"/>
      <point x="775" y="685"/>
      <point x="798" y="662"/>
      <point x="806" y="634" type="curve"/>
      <point x="950" y="634" type="line"/>
      <point x="945" y="679"/>
      <point x="909" y="720"/>
      <point x="842" y="756" type="curve" smooth="yes"/>
      <point x="774" y="792"/>
      <point x="698" y="810"/>
      <point x="615" y="810" type="curve" smooth="yes"/>
      <point x="482" y="810"/>
      <point x="383" y="779"/>
      <point x="313" y="717" type="curve" smooth="yes"/>
      <point x="258" y="668"/>
      <point x="231" y="612"/>
      <point x="231" y="548" type="curve"/>
      <point x="0" y="548" type="line"/>
      <point x="0" y="474" type="line"/>
      <point x="231" y="474" type="line"/>
      <point x="231" y="-132" type="line"/>
      <point x="375" y="-132" type="line"/>
      <point x="375" y="474" type="line"/>
      <point x="552" y="474" type="line"/>
      <point x="554" y="358"/>
      <point x="591" y="279"/>
      <point x="661" y="236" type="curve" smooth="yes"/>
      <point x="682" y="222"/>
      <point x="706" y="212"/>
      <point x="730" y="203" type="curve"/>
      <point x="664" y="181"/>
      <point x="615" y="160"/>
      <point x="581" y="139" type="curve" smooth="yes"/>
      <point x="552" y="121"/>
      <point x="520" y="95"/>
      <point x="486" y="61" type="curve"/>
      <point x="677" y="-68"/>
      <point x="859" y="-132"/>
      <point x="1031" y="-132" type="curve" smooth="yes"/>
      <point x="1134" y="-132"/>
      <point x="1218" y="-122"/>
      <point x="1281" y="-103" type="curve" smooth="yes"/>
      <point x="1347" y="-82"/>
      <point x="1399" y="-48"/>
      <point x="1436" y="-2" type="curve"/>
      <point x="1347" y="-23"/>
      <point x="1281" y="-36"/>
      <point x="1237" y="-42" type="curve" smooth="yes"/>
      <point x="1193" y="-47"/>
      <point x="1123" y="-50"/>
      <point x="1031" y="-50" type="curve" smooth="yes"/>
      <point x="911" y="-50"/>
      <point x="787" y="-10"/>
      <point x="660" y="68" type="curve"/>
      <point x="691" y="95"/>
      <point x="735" y="118"/>
      <point x="791" y="138" type="curve" smooth="yes"/>
      <point x="854" y="160"/>
      <point x="915" y="171"/>
      <point x="976" y="171" type="curve" smooth="yes"/>
      <point x="1326" y="171" type="line"/>
      <point x="1326" y="474" type="line"/>
      <point x="1500" y="474" type="line"/>
    </contour>
    <contour>
      <point x="899" y="255" type="line" smooth="yes"/>
      <point x="815" y="255"/>
      <point x="757" y="280"/>
      <point x="725" y="330" type="curve" smooth="yes"/>
      <point x="705" y="362"/>
      <point x="695" y="410"/>
      <point x="695" y="474" type="curve"/>
      <point x="1181" y="474" type="line"/>
      <point x="1181" y="255" type="line"/>
    </contour>
    <contour>
      <point x="589" y="-218" type="curve" smooth="yes"/>
      <point x="589" y="-189"/>
      <point x="546" y="-165"/>
      <point x="495" y="-165" type="curve" smooth="yes"/>
      <point x="444" y="-165"/>
      <point x="401" y="-189"/>
      <point x="401" y="-218" type="curve" smooth="yes"/>
      <point x="401" y="-248"/>
      <point x="444" y="-272"/>
      <point x="495" y="-272" type="curve" smooth="yes"/>
      <point x="546" y="-272"/>
      <point x="589" y="-248"/>
    </contour>
  </outline>
</glyph>
<glyph name="u0A08_u0A3C" format="1">
  <advance width="1478"/>
  <outline>
    <contour>
      <point x="1499" y="548" type="line"/>
      <point x="1274" y="548" type="line"/>
      <point x="1274" y="614"/>
      <point x="1248" y="670"/>
      <point x="1199" y="717" type="curve" smooth="yes"/>
      <point x="1133" y="779"/>
      <point x="1035" y="810"/>
      <point x="905" y="810" type="curve" smooth="yes"/>
      <point x="821" y="810"/>
      <point x="744" y="792"/>
      <point x="677" y="756" type="curve" smooth="yes"/>
      <point x="609" y="720"/>
      <point x="574" y="679"/>
      <point x="570" y="634" type="curve"/>
      <point x="714" y="634" type="line"/>
      <point x="721" y="662"/>
      <point x="744" y="685"/>
      <point x="784" y="703" type="curve" smooth="yes"/>
      <point x="821" y="719"/>
      <point x="860" y="728"/>
      <point x="905" y="728" type="curve" smooth="yes"/>
      <point x="1042" y="728"/>
      <point x="1114" y="668"/>
      <point x="1121" y="548" type="curve"/>
      <point x="0" y="548" type="line"/>
      <point x="0" y="474" type="line"/>
      <point x="142" y="474" type="line"/>
      <point x="145" y="358"/>
      <point x="182" y="279"/>
      <point x="251" y="236" type="curve" smooth="yes"/>
      <point x="273" y="222"/>
      <point x="296" y="212"/>
      <point x="320" y="203" type="curve"/>
      <point x="255" y="181"/>
      <point x="205" y="160"/>
      <point x="172" y="139" type="curve" smooth="yes"/>
      <point x="142" y="121"/>
      <point x="111" y="95"/>
      <point x="77" y="61" type="curve"/>
      <point x="267" y="-68"/>
      <point x="449" y="-132"/>
      <point x="621" y="-132" type="curve" smooth="yes"/>
      <point x="725" y="-132"/>
      <point x="808" y="-122"/>
      <point x="871" y="-103" type="curve" smooth="yes"/>
      <point x="938" y="-82"/>
      <point x="989" y="-48"/>
      <point x="1026" y="-2" type="curve"/>
      <point x="938" y="-23"/>
      <point x="871" y="-36"/>
      <point x="827" y="-42" type="curve" smooth="yes"/>
      <point x="783" y="-47"/>
      <point x="714" y="-50"/>
      <point x="621" y="-50" type="curve" smooth="yes"/>
      <point x="501" y="-50"/>
      <point x="377" y="-10"/>
      <point x="250" y="68" type="curve"/>
      <point x="282" y="95"/>
      <point x="326" y="118"/>
      <point x="382" y="138" type="curve" smooth="yes"/>
      <point x="445" y="160"/>
      <point x="506" y="171"/>
      <point x="566" y="171" type="curve" smooth="yes"/>
      <point x="916" y="171" type="line"/>
      <point x="916" y="474" type="line"/>
      <point x="1121" y="474" type="line"/>
      <point x="1121" y="-132" type="line"/>
      <point x="1274" y="-132" type="line"/>
      <point x="1274" y="474" type="line"/>
      <point x="1499" y="474" type="line"/>
    </contour>
    <contour>
      <point x="490" y="255" type="line" smooth="yes"/>
      <point x="406" y="255"/>
      <point x="347" y="280"/>
      <point x="316" y="330" type="curve" smooth="yes"/>
      <point x="295" y="362"/>
      <point x="285" y="410"/>
      <point x="285" y="474" type="curve"/>
      <point x="771" y="474" type="line"/>
      <point x="771" y="255" type="line"/>
    </contour>
    <contour>
      <point x="319" y="-218" type="curve" smooth="yes"/>
      <point x="319" y="-189"/>
      <point x="276" y="-165"/>
      <point x="225" y="-165" type="curve" smooth="yes"/>
      <point x="174" y="-165"/>
      <point x="131" y="-189"/>
      <point x="131" y="-218" type="curve" smooth="yes"/>
      <point x="131" y="-248"/>
      <point x="174" y="-272"/>
      <point x="225" y="-272" type="curve" smooth="yes"/>
      <point x="276" y="-272"/>
      <point x="319" y="-248"/>
    </contour>
  </outline>
</glyph>
<glyph name="u0A09_u0A71" format="1">
  <advance width="1328"/>
  <outline>
    <contour>
      <point x="1544" y="713" type="line"/>
      <point x="1544" y="660"/>
      <point x="1502" y="633"/>
      <point x="1420" y="633" type="curve" smooth="yes"/>
      <point x="1338" y="633"/>
      <point x="1297" y="660"/>
      <point x="1297" y="713" type="curve"/>
      <point x="1167" y="713" type="line"/>
      <point x="1167" y="666"/>
      <point x="1188" y="630"/>
      <point x="1230" y="602" type="curve" smooth="yes"/>
      <point x="1274" y="573"/>
      <point x="1338" y="559"/>
      <point x="1420" y="559" type="curve" smooth="yes"/>
      <point x="1503" y="559"/>
      <point x="1567" y="573"/>
      <point x="1611" y="602" type="curve" smooth="yes"/>
      <point x="1652" y="630"/>
      <point x="1673" y="666"/>
      <point x="1673" y="713" type="curve"/>
    </contour>
    <contour>
      <point x="1350" y="485" type="line"/>
      <point x="1182" y="485" type="line"/>
      <point x="1150" y="553"/>
      <point x="1088" y="611"/>
      <point x="994" y="657" type="curve" smooth="yes"/>
      <point x="897" y="704"/>
      <point x="791" y="727"/>
      <point x="675" y="727" type="curve" smooth="yes"/>
      <point x="531" y="727"/>
      <point x="410" y="704"/>
      <point x="311" y="659" type="curve" smooth="yes"/>
      <point x="219" y="617"/>
      <point x="155" y="558"/>
      <point x="120" y="485" type="curve"/>
      <point x="0" y="485" type="line"/>
      <point x="0" y="411" type="line"/>
      <point x="95" y="411" type="line"/>
      <point x="93" y="397"/>
      <point x="92" y="380"/>
      <point x="92" y="361" type="curve" smooth="yes"/>
      <point x="92" y="221"/>
      <point x="125" y="104"/>
      <point x="191" y="10" type="curve" smooth="yes"/>
      <point x="284" y="-123"/>
      <point x="433" y="-189"/>
      <point x="638" y="-189" type="curve" smooth="yes"/>
      <point x="749" y="-189"/>
      <point x="841" y="-177"/>
      <point x="914" y="-153" type="curve" smooth="yes"/>
      <point x="1005" y="-124"/>
      <point x="1051" y="-80"/>
      <point x="1051" y="-21" type="curve" smooth="yes"/>
      <point x="1051" y="9"/>
      <point x="1042" y="35"/>
      <point x="1024" y="57" type="curve" smooth="yes"/>
      <point x="1009" y="76"/>
      <point x="980" y="98"/>
      <point x="940" y="121" type="curve"/>
      <point x="1107" y="177"/>
      <point x="1191" y="257"/>
      <point x="1191" y="362" type="curve" smooth="yes"/>
      <point x="1191" y="411" type="line"/>
      <point x="1350" y="411" type="line"/>
    </contour>
    <contour>
      <point x="1054" y="-326" type="curve"/>
      <point x="1026" y="-304"/>
      <point x="997" y="-282"/>
      <point x="968" y="-260" type="curve"/>
      <point x="931" y="-276"/>
      <point x="879" y="-290"/>
      <point x="812" y="-302" type="curve" smooth="yes"/>
      <point x="744" y="-313"/>
      <point x="688" y="-320"/>
      <point x="641" y="-320" type="curve" smooth="yes"/>
      <point x="591" y="-320"/>
      <point x="535" y="-314"/>
      <point x="471" y="-302" type="curve" smooth="yes"/>
      <point x="408" y="-291"/>
      <point x="356" y="-277"/>
      <point x="314" y="-260" type="curve"/>
      <point x="284" y="-282"/>
      <point x="256" y="-304"/>
      <point x="228" y="-326" type="curve"/>
      <point x="346" y="-377"/>
      <point x="483" y="-402"/>
      <point x="641" y="-402" type="curve" smooth="yes"/>
      <point x="799" y="-402"/>
      <point x="937" y="-377"/>
    </contour>
    <contour>
      <point x="265" y="485" type="line"/>
      <point x="298" y="531"/>
      <point x="349" y="568"/>
      <point x="419" y="598" type="curve" smooth="yes"/>
      <point x="491" y="630"/>
      <point x="569" y="646"/>
      <point x="653" y="646" type="curve" smooth="yes"/>
      <point x="731" y="646"/>
      <point x="806" y="631"/>
      <point x="879" y="601" type="curve" smooth="yes"/>
      <point x="956" y="571"/>
      <point x="1008" y="532"/>
      <point x="1036" y="485" type="curve"/>
    </contour>
    <contour>
      <point x="1045" y="362" type="line" smooth="yes"/>
      <point x="1045" y="323"/>
      <point x="1015" y="284"/>
      <point x="955" y="243" type="curve" smooth="yes"/>
      <point x="893" y="202"/>
      <point x="828" y="180"/>
      <point x="762" y="180" type="curve" smooth="yes"/>
      <point x="257" y="180" type="line"/>
      <point x="243" y="222"/>
      <point x="236" y="270"/>
      <point x="236" y="326" type="curve" smooth="yes"/>
      <point x="236" y="358"/>
      <point x="238" y="385"/>
      <point x="240" y="411" type="curve"/>
      <point x="1045" y="411" type="line"/>
    </contour>
    <contour>
      <point x="916" y="-21" type="curve" smooth="yes"/>
      <point x="916" y="-79"/>
      <point x="824" y="-107"/>
      <point x="638" y="-107" type="curve" smooth="yes"/>
      <point x="551" y="-107"/>
      <point x="473" y="-83"/>
      <point x="402" y="-36" type="curve" smooth="yes"/>
      <point x="345" y="3"/>
      <point x="302" y="50"/>
      <point x="275" y="105" type="curve"/>
      <point x="606" y="105" type="line" smooth="yes"/>
      <point x="684" y="105"/>
      <point x="752" y="95"/>
      <point x="811" y="75" type="curve" smooth="yes"/>
      <point x="881" y="52"/>
      <point x="916" y="20"/>
    </contour>
  </outline>
</glyph>
<glyph name="u0A0A_u0A02" format="1">
  <advance width="1274"/>
  <outline>
    <contour>
      <point x="1296" y="334" type="line"/>
      <point x="1182" y="334" type="line"/>
      <point x="1150" y="403"/>
      <point x="1088" y="461"/>
      <point x="994" y="506" type="curve" smooth="yes"/>
      <point x="897" y="553"/>
      <point x="791" y="577"/>
      <point x="675" y="577" type="curve" smooth="yes"/>
      <point x="531" y="577"/>
      <point x="410" y="554"/>
      <point x="311" y="509" type="curve" smooth="yes"/>
      <point x="219" y="466"/>
      <point x="155" y="408"/>
      <point x="120" y="334" type="curve"/>
      <point x="0" y="334" type="line"/>
      <point x="0" y="260" type="line"/>
      <point x="95" y="260" type="line"/>
      <point x="93" y="246"/>
      <point x="92" y="230"/>
      <point x="92" y="210" type="curve" smooth="yes"/>
      <point x="92" y="71"/>
      <point x="125" y="-46"/>
      <point x="191" y="-140" type="curve" smooth="yes"/>
      <point x="284" y="-273"/>
      <point x="433" y="-340"/>
      <point x="638" y="-340" type="curve" smooth="yes"/>
      <point x="749" y="-340"/>
      <point x="841" y="-328"/>
      <point x="914" y="-304" type="curve" smooth="yes"/>
      <point x="1005" y="-274"/>
      <point x="1051" y="-230"/>
      <point x="1051" y="-172" type="curve" smooth="yes"/>
      <point x="1051" y="-141"/>
      <point x="1042" y="-115"/>
      <point x="1024" y="-93" type="curve" smooth="yes"/>
      <point x="1009" y="-74"/>
      <point x="980" y="-53"/>
      <point x="940" y="-30" type="curve"/>
      <point x="1107" y="27"/>
      <point x="1191" y="107"/>
      <point x="1191" y="211" type="curve" smooth="yes"/>
      <point x="1191" y="260" type="line"/>
      <point x="1296" y="260" type="line"/>
    </contour>
    <contour>
      <point x="265" y="334" type="line"/>
      <point x="298" y="380"/>
      <point x="349" y="418"/>
      <point x="419" y="448" type="curve" smooth="yes"/>
      <point x="491" y="479"/>
      <point x="569" y="495"/>
      <point x="653" y="495" type="curve" smooth="yes"/>
      <point x="731" y="495"/>
      <point x="806" y="480"/>
      <point x="879" y="451" type="curve" smooth="yes"/>
      <point x="956" y="420"/>
      <point x="1008" y="381"/>
      <point x="1036" y="334" type="curve"/>
    </contour>
    <contour>
      <point x="1045" y="211" type="line" smooth="yes"/>
      <point x="1045" y="173"/>
      <point x="1015" y="134"/>
      <point x="955" y="93" type="curve" smooth="yes"/>
      <point x="893" y="51"/>
      <point x="828" y="30"/>
      <point x="762" y="30" type="curve" smooth="yes"/>
      <point x="257" y="30" type="line"/>
      <point x="243" y="71"/>
      <point x="236" y="120"/>
      <point x="236" y="176" type="curve" smooth="yes"/>
      <point x="236" y="207"/>
      <point x="238" y="235"/>
      <point x="240" y="260" type="curve"/>
      <point x="1045" y="260" type="line"/>
    </contour>
    <contour>
      <point x="916" y="-172" type="curve" smooth="yes"/>
      <point x="916" y="-229"/>
      <point x="824" y="-257"/>
      <point x="638" y="-257" type="curve" smooth="yes"/>
      <point x="551" y="-257"/>
      <point x="473" y="-234"/>
      <point x="402" y="-186" type="curve" smooth="yes"/>
      <point x="345" y="-148"/>
      <point x="302" y="-101"/>
      <point x="275" y="-46" type="curve"/>
      <point x="606" y="-46" type="line" smooth="yes"/>
      <point x="684" y="-46"/>
      <point x="752" y="-55"/>
      <point x="811" y="-75" type="curve" smooth="yes"/>
      <point x="881" y="-98"/>
      <point x="916" y="-130"/>
    </contour>
    <contour>
      <point x="1045" y="-477" type="curve"/>
      <point x="1017" y="-455"/>
      <point x="988" y="-432"/>
      <point x="959" y="-411" type="curve"/>
      <point x="930" y="-423"/>
      <point x="885" y="-435"/>
      <point x="823" y="-448" type="curve" smooth="yes"/>
      <point x="750" y="-463"/>
      <point x="687" y="-470"/>
      <point x="632" y="-470" type="curve" smooth="yes"/>
      <point x="577" y="-470"/>
      <point x="516" y="-463"/>
      <point x="448" y="-450" type="curve" smooth="yes"/>
      <point x="389" y="-438"/>
      <point x="341" y="-425"/>
      <point x="305" y="-411" type="curve"/>
      <point x="275" y="-432"/>
      <point x="247" y="-455"/>
      <point x="219" y="-477" type="curve"/>
      <point x="337" y="-527"/>
      <point x="474" y="-552"/>
      <point x="632" y="-552" type="curve" smooth="yes"/>
      <point x="789" y="-552"/>
      <point x="927" y="-527"/>
    </contour>
    <contour>
      <point x="1045" y="-636" type="curve"/>
      <point x="1017" y="-614"/>
      <point x="988" y="-592"/>
      <point x="959" y="-570" type="curve"/>
      <point x="930" y="-583"/>
      <point x="885" y="-595"/>
      <point x="823" y="-607" type="curve" smooth="yes"/>
      <point x="750" y="-622"/>
      <point x="687" y="-630"/>
      <point x="632" y="-630" type="curve" smooth="yes"/>
      <point x="577" y="-630"/>
      <point x="516" y="-623"/>
      <point x="448" y="-610" type="curve" smooth="yes"/>
      <point x="389" y="-598"/>
      <point x="341" y="-585"/>
      <point x="305" y="-570" type="curve"/>
      <point x="275" y="-592"/>
      <point x="247" y="-614"/>
      <point x="219" y="-636" type="curve"/>
      <point x="337" y="-687"/>
      <point x="474" y="-712"/>
      <point x="632" y="-712" type="curve" smooth="yes"/>
      <point x="789" y="-712"/>
      <point x="927" y="-687"/>
    </contour>
    <contour>
      <point x="1205" y="597" type="curve" smooth="yes"/>
      <point x="1205" y="625"/>
      <point x="1165" y="649"/>
      <point x="1114" y="649" type="curve" smooth="yes"/>
      <point x="1064" y="649"/>
      <point x="1023" y="625"/>
      <point x="1023" y="597" type="curve" smooth="yes"/>
      <point x="1023" y="568"/>
      <point x="1064" y="545"/>
      <point x="1114" y="545" type="curve" smooth="yes"/>
      <point x="1165" y="545"/>
      <point x="1205" y="568"/>
    </contour>
  </outline>
</glyph>
<glyph name="u0A13_u0A3C" format="1">
  <advance width="1274"/>
  <outline>
    <contour>
      <point x="1296" y="633" type="line"/>
      <point x="265" y="633" type="line"/>
      <point x="298" y="679"/>
      <point x="349" y="717"/>
      <point x="419" y="747" type="curve" smooth="yes"/>
      <point x="491" y="778"/>
      <point x="569" y="794"/>
      <point x="653" y="794" type="curve" smooth="yes"/>
      <point x="801" y="794"/>
      <point x="899" y="774"/>
      <point x="947" y="736" type="curve"/>
      <point x="1132" y="736" type="line"/>
      <point x="1105" y="773"/>
      <point x="1052" y="805"/>
      <point x="973" y="832" type="curve" smooth="yes"/>
      <point x="885" y="861"/>
      <point x="786" y="875"/>
      <point x="675" y="875" type="curve" smooth="yes"/>
      <point x="531" y="875"/>
      <point x="410" y="853"/>
      <point x="311" y="808" type="curve" smooth="yes"/>
      <point x="219" y="765"/>
      <point x="155" y="707"/>
      <point x="120" y="633" type="curve"/>
      <point x="0" y="633" type="line"/>
      <point x="0" y="559" type="line"/>
      <point x="95" y="559" type="line"/>
      <point x="93" y="545"/>
      <point x="92" y="529"/>
      <point x="92" y="509" type="curve" smooth="yes"/>
      <point x="92" y="370"/>
      <point x="125" y="253"/>
      <point x="191" y="158" type="curve" smooth="yes"/>
      <point x="284" y="26"/>
      <point x="433" y="-41"/>
      <point x="638" y="-41" type="curve" smooth="yes"/>
      <point x="749" y="-41"/>
      <point x="841" y="-29"/>
      <point x="914" y="-5" type="curve" smooth="yes"/>
      <point x="1005" y="25"/>
      <point x="1051" y="69"/>
      <point x="1051" y="127" type="curve" smooth="yes"/>
      <point x="1051" y="157"/>
      <point x="1042" y="184"/>
      <point x="1024" y="205" type="curve" smooth="yes"/>
      <point x="1009" y="224"/>
      <point x="980" y="246"/>
      <point x="940" y="269" type="curve"/>
      <point x="1107" y="325"/>
      <point x="1191" y="406"/>
      <point x="1191" y="510" type="curve" smooth="yes"/>
      <point x="1191" y="559" type="line"/>
      <point x="1296" y="559" type="line"/>
    </contour>
    <contour>
      <point x="1045" y="510" type="line" smooth="yes"/>
      <point x="1045" y="472"/>
      <point x="1015" y="432"/>
      <point x="955" y="392" type="curve" smooth="yes"/>
      <point x="893" y="350"/>
      <point x="828" y="329"/>
      <point x="762" y="329" type="curve" smooth="yes"/>
      <point x="257" y="329" type="line"/>
      <point x="243" y="370"/>
      <point x="236" y="418"/>
      <point x="236" y="475" type="curve" smooth="yes"/>
      <point x="236" y="506"/>
      <point x="238" y="534"/>
      <point x="240" y="559" type="curve"/>
      <point x="1045" y="559" type="line"/>
    </contour>
    <contour>
      <point x="916" y="127" type="curve" smooth="yes"/>
      <point x="916" y="70"/>
      <point x="824" y="42"/>
      <point x="638" y="42" type="curve" smooth="yes"/>
      <point x="551" y="42"/>
      <point x="473" y="65"/>
      <point x="402" y="113" type="curve" smooth="yes"/>
      <point x="345" y="151"/>
      <point x="302" y="198"/>
      <point x="275" y="253" type="curve"/>
      <point x="606" y="253" type="line" smooth="yes"/>
      <point x="684" y="253"/>
      <point x="752" y="243"/>
      <point x="811" y="224" type="curve" smooth="yes"/>
      <point x="881" y="201"/>
      <point x="916" y="169"/>
    </contour>
    <contour>
      <point x="221" y="-42" type="curve" smooth="yes"/>
      <point x="221" y="-13"/>
      <point x="179" y="11"/>
      <point x="128" y="11" type="curve" smooth="yes"/>
      <point x="77" y="11"/>
      <point x="34" y="-13"/>
      <point x="34" y="-42" type="curve" smooth="yes"/>
      <point x="34" y="-72"/>
      <point x="77" y="-96"/>
      <point x="128" y="-96" type="curve" smooth="yes"/>
      <point x="179" y="-96"/>
      <point x="221" y="-72"/>
    </contour>
  </outline>
</glyph>
<glyph name="u0A14_u0A3C" format="1">
  <advance width="1346"/>
  <outline>
    <contour>
      <point x="1368" y="680" type="line"/>
      <point x="1058" y="680" type="line"/>
      <point x="1058" y="379" type="line"/>
      <point x="1043" y="380"/>
      <point x="1013" y="381"/>
      <point x="970" y="381" type="curve" smooth="yes"/>
      <point x="920" y="381"/>
      <point x="881" y="380"/>
      <point x="855" y="377" type="curve"/>
      <point x="847" y="435"/>
      <point x="823" y="491"/>
      <point x="780" y="546" type="curve" smooth="yes"/>
      <point x="725" y="619"/>
      <point x="656" y="665"/>
      <point x="572" y="685" type="curve"/>
      <point x="527" y="670"/>
      <point x="482" y="646"/>
      <point x="434" y="614" type="curve" smooth="yes"/>
      <point x="337" y="544" type="line"/>
      <point x="298" y="596"/>
      <point x="233" y="641"/>
      <point x="142" y="680" type="curve"/>
      <point x="0" y="680" type="line"/>
      <point x="0" y="606" type="line"/>
      <point x="95" y="606" type="line"/>
      <point x="130" y="591"/>
      <point x="160" y="573"/>
      <point x="186" y="551" type="curve" smooth="yes"/>
      <point x="216" y="524"/>
      <point x="231" y="500"/>
      <point x="231" y="475" type="curve" smooth="yes"/>
      <point x="231" y="459"/>
      <point x="220" y="440"/>
      <point x="197" y="418" type="curve" smooth="yes"/>
      <point x="175" y="395"/>
      <point x="164" y="374"/>
      <point x="164" y="356" type="curve" smooth="yes"/>
      <point x="164" y="314"/>
      <point x="209" y="288"/>
      <point x="271" y="288" type="curve" smooth="yes"/>
      <point x="349" y="288"/>
      <point x="389" y="324"/>
      <point x="389" y="396" type="curve" smooth="yes"/>
      <point x="389" y="413"/>
      <point x="387" y="430"/>
      <point x="383" y="447" type="curve"/>
      <point x="444" y="507"/>
      <point x="507" y="554"/>
      <point x="572" y="586" type="curve"/>
      <point x="607" y="560"/>
      <point x="636" y="528"/>
      <point x="662" y="491" type="curve" smooth="yes"/>
      <point x="689" y="451"/>
      <point x="702" y="418"/>
      <point x="702" y="389" type="curve" smooth="yes"/>
      <point x="702" y="366"/>
      <point x="688" y="340"/>
      <point x="658" y="310" type="curve" smooth="yes"/>
      <point x="628" y="280"/>
      <point x="614" y="258"/>
      <point x="614" y="245" type="curve" smooth="yes"/>
      <point x="614" y="195"/>
      <point x="647" y="170"/>
      <point x="714" y="170" type="curve" smooth="yes"/>
      <point x="787" y="170"/>
      <point x="830" y="214"/>
      <point x="845" y="301" type="curve"/>
      <point x="878" y="305"/>
      <point x="921" y="307"/>
      <point x="970" y="307" type="curve" smooth="yes"/>
      <point x="996" y="307"/>
      <point x="1025" y="305"/>
      <point x="1058" y="303" type="curve"/>
      <point x="1058" y="0" type="line"/>
      <point x="1202" y="0" type="line"/>
      <point x="1202" y="606" type="line"/>
      <point x="1368" y="606" type="line"/>
    </contour>
    <contour>
      <point x="1399" y="705" type="line"/>
      <point x="1399" y="781"/>
      <point x="1355" y="836"/>
      <point x="1267" y="870" type="curve" smooth="yes"/>
      <point x="1236" y="882"/>
      <point x="1155" y="899"/>
      <point x="1024" y="922" type="curve" smooth="yes"/>
      <point x="937" y="937"/>
      <point x="893" y="959"/>
      <point x="893" y="990" type="curve"/>
      <point x="749" y="990" type="line"/>
      <point x="749" y="951"/>
      <point x="774" y="921"/>
      <point x="824" y="900" type="curve" smooth="yes"/>
      <point x="860" y="885"/>
      <point x="915" y="872"/>
      <point x="994" y="861" type="curve"/>
      <point x="899" y="823"/>
      <point x="851" y="771"/>
      <point x="851" y="705" type="curve"/>
      <point x="995" y="705" type="line"/>
      <point x="995" y="737"/>
      <point x="1011" y="763"/>
      <point x="1042" y="783" type="curve" smooth="yes"/>
      <point x="1070" y="801"/>
      <point x="1101" y="810"/>
      <point x="1134" y="810" type="curve" smooth="yes"/>
      <point x="1169" y="810"/>
      <point x="1198" y="801"/>
      <point x="1220" y="783" type="curve" smooth="yes"/>
      <point x="1245" y="764"/>
      <point x="1256" y="737"/>
      <point x="1256" y="705" type="curve"/>
    </contour>
    <contour>
      <point x="368" y="78" type="curve" smooth="yes"/>
      <point x="368" y="108"/>
      <point x="326" y="132"/>
      <point x="275" y="132" type="curve" smooth="yes"/>
      <point x="223" y="132"/>
      <point x="181" y="108"/>
      <point x="181" y="78" type="curve" smooth="yes"/>
      <point x="181" y="49"/>
      <point x="223" y="25"/>
      <point x="275" y="25" type="curve" smooth="yes"/>
      <point x="326" y="25"/>
      <point x="368" y="49"/>
    </contour>
  </outline>
</glyph>
<glyph name="u0A15_u0A3C_u0A4D" format="1">
  <advance width="1224.0"/>
  <outline>
    <contour>
      <point x="1246" y="364" type="line"/>
      <point x="0" y="364" type="line"/>
      <point x="0" y="290" type="line"/>
      <point x="936" y="290" type="line"/>
      <point x="936" y="185"/>
      <point x="917" y="105"/>
      <point x="880" y="50" type="curve"/>
      <point x="770" y="122"/>
      <point x="619" y="157"/>
      <point x="428" y="157" type="curve" smooth="yes"/>
      <point x="333" y="157"/>
      <point x="253" y="142"/>
      <point x="187" y="112" type="curve" smooth="yes"/>
      <point x="116" y="79"/>
      <point x="81" y="37"/>
      <point x="81" y="-17" type="curve" smooth="yes"/>
      <point x="81" y="-73"/>
      <point x="117" y="-117"/>
      <point x="188" y="-150" type="curve" smooth="yes"/>
      <point x="256" y="-182"/>
      <point x="338" y="-197"/>
      <point x="438" y="-197" type="curve" smooth="yes"/>
      <point x="625" y="-197"/>
      <point x="771" y="-166"/>
      <point x="879" y="-103" type="curve"/>
      <point x="917" y="-145"/>
      <point x="936" y="-216"/>
      <point x="936" y="-316" type="curve"/>
      <point x="1080" y="-316" type="line"/>
      <point x="1080" y="-195"/>
      <point x="1046" y="-98"/>
      <point x="977" y="-26" type="curve"/>
      <point x="1046" y="47"/>
      <point x="1080" y="153"/>
      <point x="1080" y="290" type="curve"/>
      <point x="1246" y="290" type="line"/>
    </contour>
    <contour>
      <point x="804" y="-27" type="curve"/>
      <point x="706" y="-86"/>
      <point x="583" y="-115"/>
      <point x="438" y="-115" type="curve" smooth="yes"/>
      <point x="379" y="-115"/>
      <point x="329" y="-107"/>
      <point x="291" y="-92" type="curve" smooth="yes"/>
      <point x="247" y="-74"/>
      <point x="224" y="-49"/>
      <point x="224" y="-17" type="curve" smooth="yes"/>
      <point x="224" y="12"/>
      <point x="247" y="35"/>
      <point x="291" y="52" type="curve" smooth="yes"/>
      <point x="329" y="67"/>
      <point x="375" y="75"/>
      <point x="428" y="75" type="curve" smooth="yes"/>
      <point x="585" y="75"/>
      <point x="711" y="41"/>
    </contour>
    <contour>
      <point x="251" y="-281" type="curve" smooth="yes"/>
      <point x="251" y="-251"/>
      <point x="209" y="-227"/>
      <point x="158" y="-227" type="curve" smooth="yes"/>
      <point x="106" y="-227"/>
      <point x="64" y="-251"/>
      <point x="64" y="-281" type="curve" smooth="yes"/>
      <point x="64" y="-310"/>
      <point x="106" y="-334"/>
      <point x="158" y="-334" type="curve" smooth="yes"/>
      <point x="209" y="-334"/>
      <point x="251" y="-310"/>
    </contour>
    <contour>
      <point x="1063" y="-390" type="line"/>
      <point x="947" y="-437" type="line"/>
      <point x="1213" y="-651" type="line"/>
      <point x="1327" y="-601" type="line"/>
    </contour>
  </outline>
</glyph>
<glyph name="u0A16_u0A4D" format="1">
  <advance width="1188.0"/>
  <outline>
    <contour>
      <point x="1210" y="364" type="line"/>
      <point x="900" y="364" type="line"/>
      <point x="900" y="155" type="line"/>
      <point x="366" y="155" type="line"/>
      <point x="364" y="221"/>
      <point x="331" y="290"/>
      <point x="269" y="364" type="curve"/>
      <point x="0" y="364" type="line"/>
      <point x="0" y="290" type="line"/>
      <point x="172" y="290" type="line"/>
      <point x="205" y="250"/>
      <point x="222" y="200"/>
      <point x="222" y="139" type="curve" smooth="yes"/>
      <point x="222" y="81"/>
      <point x="177" y="16"/>
      <point x="87" y="-55" type="curve"/>
      <point x="207" y="-126"/>
      <point x="368" y="-161"/>
      <point x="572" y="-161" type="curve" smooth="yes"/>
      <point x="697" y="-161"/>
      <point x="806" y="-146"/>
      <point x="900" y="-115" type="curve"/>
      <point x="900" y="-316" type="line"/>
      <point x="1044" y="-316" type="line"/>
      <point x="1044" y="290" type="line"/>
      <point x="1210" y="290" type="line"/>
    </contour>
    <contour>
      <point x="900" y="-17" type="line"/>
      <point x="821" y="-58"/>
      <point x="711" y="-78"/>
      <point x="572" y="-78" type="curve" smooth="yes"/>
      <point x="439" y="-78"/>
      <point x="340" y="-63"/>
      <point x="275" y="-34" type="curve"/>
      <point x="322" y="5"/>
      <point x="350" y="43"/>
      <point x="360" y="81" type="curve"/>
      <point x="900" y="81" type="line"/>
    </contour>
    <contour>
      <point x="1027" y="-390" type="line"/>
      <point x="911" y="-437" type="line"/>
      <point x="1177" y="-651" type="line"/>
      <point x="1291" y="-601" type="line"/>
    </contour>
  </outline>
</glyph>
<glyph name="u0A18_u0A3C" format="1">
  <advance width="1300"/>
  <outline>
    <contour>
      <point x="1321" y="680" type="line"/>
      <point x="1012" y="680" type="line"/>
      <point x="1012" y="269" type="line"/>
      <point x="980" y="265"/>
      <point x="940" y="263"/>
      <point x="890" y="263" type="curve" smooth="yes"/>
      <point x="786" y="263"/>
      <point x="724" y="285"/>
      <point x="703" y="330" type="curve"/>
      <point x="732" y="440"/>
      <point x="746" y="527"/>
      <point x="746" y="591" type="curve" smooth="yes"/>
      <point x="746" y="613"/>
      <point x="739" y="633"/>
      <point x="725" y="650" type="curve" smooth="yes"/>
      <point x="709" y="670"/>
      <point x="687" y="680"/>
      <point x="658" y="680" type="curve" smooth="yes"/>
      <point x="637" y="680"/>
      <point x="617" y="673"/>
      <point x="600" y="660" type="curve" smooth="yes"/>
      <point x="580" y="643"/>
      <point x="569" y="621"/>
      <point x="569" y="594" type="curve" smooth="yes"/>
      <point x="569" y="468"/>
      <point x="572" y="384"/>
      <point x="580" y="342" type="curve"/>
      <point x="547" y="312"/>
      <point x="495" y="296"/>
      <point x="422" y="296" type="curve" smooth="yes"/>
      <point x="361" y="296"/>
      <point x="309" y="308"/>
      <point x="266" y="333" type="curve"/>
      <point x="337" y="379"/>
      <point x="372" y="437"/>
      <point x="372" y="507" type="curve" smooth="yes"/>
      <point x="372" y="542"/>
      <point x="359" y="574"/>
      <point x="333" y="602" type="curve" smooth="yes"/>
      <point x="313" y="624"/>
      <point x="278" y="649"/>
      <point x="229" y="680" type="curve"/>
      <point x="0" y="680" type="line"/>
      <point x="0" y="606" type="line"/>
      <point x="176" y="606" type="line"/>
      <point x="211" y="571"/>
      <point x="228" y="538"/>
      <point x="228" y="507" type="curve" smooth="yes"/>
      <point x="228" y="462"/>
      <point x="212" y="425"/>
      <point x="180" y="394" type="curve"/>
      <point x="99" y="331" type="line"/>
      <point x="129" y="297"/>
      <point x="177" y="268"/>
      <point x="246" y="245" type="curve" smooth="yes"/>
      <point x="308" y="225"/>
      <point x="366" y="214"/>
      <point x="422" y="214" type="curve" smooth="yes"/>
      <point x="496" y="214"/>
      <point x="562" y="228"/>
      <point x="619" y="254" type="curve"/>
      <point x="673" y="205"/>
      <point x="763" y="180"/>
      <point x="890" y="180" type="curve" smooth="yes"/>
      <point x="945" y="180"/>
      <point x="986" y="182"/>
      <point x="1012" y="185" type="curve"/>
      <point x="1012" y="0" type="line"/>
      <point x="1156" y="0" type="line"/>
      <point x="1156" y="606" type="line"/>
      <point x="1321" y="606" type="line"/>
    </contour>
    <contour>
      <point x="285" y="97" type="curve" smooth="yes"/>
      <point x="285" y="126"/>
      <point x="243" y="150"/>
      <point x="192" y="150" type="curve" smooth="yes"/>
      <point x="140" y="150"/>
      <point x="98" y="126"/>
      <point x="98" y="97" type="curve" smooth="yes"/>
      <point x="98" y="67"/>
      <point x="140" y="43"/>
      <point x="192" y="43" type="curve" smooth="yes"/>
      <point x="243" y="43"/>
      <point x="285" y="67"/>
    </contour>
  </outline>
</glyph>
<glyph name="u0A19_u0A3C" format="1">
  <advance width="1134.0"/>
  <outline>
    <contour>
      <point x="1156" y="571" type="line"/>
      <point x="0" y="571" type="line"/>
      <point x="0" y="497" type="line"/>
      <point x="99" y="497" type="line"/>
      <point x="99" y="314" type="line"/>
      <point x="653" y="314" type="line" smooth="yes"/>
      <point x="828" y="314"/>
      <point x="916" y="279"/>
      <point x="916" y="209" type="curve" smooth="yes"/>
      <point x="916" y="150"/>
      <point x="844" y="102"/>
      <point x="700" y="65" type="curve"/>
      <point x="573" y="143"/>
      <point x="453" y="182"/>
      <point x="338" y="182" type="curve" smooth="yes"/>
      <point x="174" y="182"/>
      <point x="92" y="144"/>
      <point x="92" y="67" type="curve" smooth="yes"/>
      <point x="92" y="28"/>
      <point x="126" y="-3"/>
      <point x="194" y="-27" type="curve" smooth="yes"/>
      <point x="253" y="-48"/>
      <point x="319" y="-58"/>
      <point x="391" y="-58" type="curve" smooth="yes"/>
      <point x="463" y="-58"/>
      <point x="551" y="-49"/>
      <point x="656" y="-30" type="curve"/>
      <point x="707" y="-65"/>
      <point x="744" y="-91"/>
      <point x="769" y="-109" type="curve"/>
      <point x="880" y="-57" type="line"/>
      <point x="800" y="0" type="line"/>
      <point x="974" y="49"/>
      <point x="1060" y="119"/>
      <point x="1060" y="209" type="curve" smooth="yes"/>
      <point x="1060" y="275"/>
      <point x="1019" y="323"/>
      <point x="936" y="355" type="curve" smooth="yes"/>
      <point x="867" y="383"/>
      <point x="772" y="396"/>
      <point x="653" y="396" type="curve" smooth="yes"/>
      <point x="243" y="396" type="line"/>
      <point x="243" y="497" type="line"/>
      <point x="1156" y="497" type="line"/>
    </contour>
    <contour>
      <point x="547" y="38" type="curve"/>
      <point x="487" y="29"/>
      <point x="429" y="24"/>
      <point x="374" y="24" type="curve" smooth="yes"/>
      <point x="343" y="24"/>
      <point x="314" y="27"/>
      <point x="286" y="31" type="curve" smooth="yes"/>
      <point x="247" y="38"/>
      <point x="227" y="48"/>
      <point x="227" y="62" type="curve" smooth="yes"/>
      <point x="227" y="94"/>
      <point x="264" y="110"/>
      <point x="338" y="110" type="curve" smooth="yes"/>
      <point x="391" y="110"/>
      <point x="460" y="86"/>
    </contour>
    <contour>
      <point x="245" y="-170" type="curve" smooth="yes"/>
      <point x="245" y="-141"/>
      <point x="203" y="-117"/>
      <point x="151" y="-117" type="curve" smooth="yes"/>
      <point x="100" y="-117"/>
      <point x="58" y="-141"/>
      <point x="58" y="-170" type="curve" smooth="yes"/>
      <point x="58" y="-200"/>
      <point x="100" y="-224"/>
      <point x="151" y="-224" type="curve" smooth="yes"/>
      <point x="203" y="-224"/>
      <point x="245" y="-200"/>
    </contour>
  </outline>
</glyph>
<glyph name="u0A19_u0A4D" format="1">
  <advance width="1134.0"/>
  <outline>
    <contour>
      <point x="1156" y="364" type="line"/>
      <point x="0" y="364" type="line"/>
      <point x="0" y="290" type="line"/>
      <point x="99" y="290" type="line"/>
      <point x="99" y="107" type="line"/>
      <point x="653" y="107" type="line" smooth="yes"/>
      <point x="828" y="107"/>
      <point x="916" y="72"/>
      <point x="916" y="2" type="curve" smooth="yes"/>
      <point x="916" y="-57"/>
      <point x="844" y="-105"/>
      <point x="700" y="-142" type="curve"/>
      <point x="573" y="-64"/>
      <point x="453" y="-25"/>
      <point x="338" y="-25" type="curve" smooth="yes"/>
      <point x="174" y="-25"/>
      <point x="92" y="-63"/>
      <point x="92" y="-140" type="curve" smooth="yes"/>
      <point x="92" y="-179"/>
      <point x="126" y="-210"/>
      <point x="194" y="-234" type="curve" smooth="yes"/>
      <point x="253" y="-255"/>
      <point x="319" y="-265"/>
      <point x="391" y="-265" type="curve" smooth="yes"/>
      <point x="463" y="-265"/>
      <point x="551" y="-256"/>
      <point x="656" y="-237" type="curve"/>
      <point x="707" y="-272"/>
      <point x="744" y="-298"/>
      <point x="769" y="-316" type="curve"/>
      <point x="880" y="-264" type="line"/>
      <point x="800" y="-208" type="line"/>
      <point x="974" y="-158"/>
      <point x="1060" y="-88"/>
      <point x="1060" y="2" type="curve" smooth="yes"/>
      <point x="1060" y="67"/>
      <point x="1019" y="116"/>
      <point x="936" y="148" type="curve" smooth="yes"/>
      <point x="867" y="176"/>
      <point x="772" y="189"/>
      <point x="653" y="189" type="curve" smooth="yes"/>
      <point x="243" y="189" type="line"/>
      <point x="243" y="290" type="line"/>
      <point x="1156" y="290" type="line"/>
    </contour>
    <contour>
      <point x="547" y="-169" type="curve"/>
      <point x="487" y="-178"/>
      <point x="429" y="-183"/>
      <point x="374" y="-183" type="curve" smooth="yes"/>
      <point x="343" y="-183"/>
      <point x="314" y="-180"/>
      <point x="286" y="-176" type="curve" smooth="yes"/>
      <point x="247" y="-169"/>
      <point x="227" y="-159"/>
      <point x="227" y="-145" type="curve" smooth="yes"/>
      <point x="227" y="-113"/>
      <point x="264" y="-97"/>
      <point x="338" y="-97" type="curve" smooth="yes"/>
      <point x="391" y="-97"/>
      <point x="460" y="-121"/>
    </contour>
    <contour>
      <point x="964" y="-390" type="line"/>
      <point x="848" y="-437" type="line"/>
      <point x="1114" y="-651" type="line"/>
      <point x="1228" y="-601" type="line"/>
    </contour>
  </outline>
</glyph>
<glyph name="u0A1A_u0A3C" format="1">
  <advance width="1292"/>
  <outline>
    <contour>
      <point x="1314" y="638" type="line"/>
      <point x="0" y="638" type="line"/>
      <point x="0" y="564" type="line"/>
      <point x="1004" y="564" type="line"/>
      <point x="1004" y="378" type="line"/>
      <point x="374" y="378" type="line"/>
      <point x="352" y="427"/>
      <point x="316" y="452"/>
      <point x="266" y="452" type="curve" smooth="yes"/>
      <point x="235" y="452"/>
      <point x="197" y="442"/>
      <point x="153" y="423" type="curve" smooth="yes"/>
      <point x="104" y="401"/>
      <point x="78" y="379"/>
      <point x="78" y="355" type="curve" smooth="yes"/>
      <point x="78" y="319"/>
      <point x="136" y="300"/>
      <point x="251" y="299" type="curve"/>
      <point x="251" y="188" type="line" smooth="yes"/>
      <point x="251" y="115"/>
      <point x="294" y="57"/>
      <point x="382" y="15" type="curve" smooth="yes"/>
      <point x="459" y="-23"/>
      <point x="554" y="-42"/>
      <point x="669" y="-42" type="curve" smooth="yes"/>
      <point x="988" y="-42"/>
      <point x="1148" y="38"/>
      <point x="1148" y="196" type="curve" smooth="yes"/>
      <point x="1148" y="564" type="line"/>
      <point x="1314" y="564" type="line"/>
    </contour>
    <contour>
      <point x="1004" y="193" type="line" smooth="yes"/>
      <point x="1004" y="92"/>
      <point x="893" y="41"/>
      <point x="669" y="41" type="curve" smooth="yes"/>
      <point x="597" y="41"/>
      <point x="537" y="50"/>
      <point x="490" y="69" type="curve" smooth="yes"/>
      <point x="428" y="93"/>
      <point x="397" y="131"/>
      <point x="397" y="182" type="curve" smooth="yes"/>
      <point x="397" y="296" type="line"/>
      <point x="1004" y="296" type="line"/>
    </contour>
    <contour>
      <point x="275" y="-32" type="curve" smooth="yes"/>
      <point x="275" y="-3"/>
      <point x="232" y="21"/>
      <point x="181" y="21" type="curve" smooth="yes"/>
      <point x="130" y="21"/>
      <point x="87" y="-3"/>
      <point x="87" y="-32" type="curve" smooth="yes"/>
      <point x="87" y="-62"/>
      <point x="130" y="-86"/>
      <point x="181" y="-86" type="curve" smooth="yes"/>
      <point x="232" y="-86"/>
      <point x="275" y="-62"/>
    </contour>
  </outline>
</glyph>
<glyph name="u0A1B_u0A3C_u0A4D" format="1">
  <advance width="1238"/>
  <outline>
    <contour>
      <point x="1260" y="361" type="line"/>
      <point x="0" y="361" type="line"/>
      <point x="0" y="287" type="line"/>
      <point x="948" y="287" type="line"/>
      <point x="948" y="178" type="line"/>
      <point x="542" y="178" type="line" smooth="yes"/>
      <point x="404" y="178"/>
      <point x="305" y="171"/>
      <point x="245" y="156" type="curve" smooth="yes"/>
      <point x="149" y="132"/>
      <point x="102" y="87"/>
      <point x="102" y="19" type="curve" smooth="yes"/>
      <point x="102" y="-28"/>
      <point x="131" y="-62"/>
      <point x="187" y="-83" type="curve"/>
      <point x="127" y="-111"/>
      <point x="97" y="-149"/>
      <point x="97" y="-197" type="curve" smooth="yes"/>
      <point x="97" y="-249"/>
      <point x="145" y="-289"/>
      <point x="241" y="-317" type="curve" smooth="yes"/>
      <point x="317" y="-339"/>
      <point x="406" y="-350"/>
      <point x="509" y="-350" type="curve" smooth="yes"/>
      <point x="558" y="-350" type="line" smooth="yes"/>
      <point x="720" y="-350"/>
      <point x="842" y="-342"/>
      <point x="926" y="-328" type="curve" smooth="yes"/>
      <point x="1071" y="-303"/>
      <point x="1144" y="-256"/>
      <point x="1144" y="-185" type="curve" smooth="yes"/>
      <point x="1144" y="-140"/>
      <point x="1117" y="-103"/>
      <point x="1063" y="-75" type="curve" smooth="yes"/>
      <point x="1011" y="-48"/>
      <point x="945" y="-34"/>
      <point x="865" y="-34" type="curve" smooth="yes"/>
      <point x="441" y="-34" type="line" smooth="yes"/>
      <point x="311" y="-34"/>
      <point x="245" y="-15"/>
      <point x="245" y="24" type="curve" smooth="yes"/>
      <point x="245" y="56"/>
      <point x="276" y="78"/>
      <point x="340" y="88" type="curve" smooth="yes"/>
      <point x="373" y="93"/>
      <point x="428" y="96"/>
      <point x="505" y="96" type="curve" smooth="yes"/>
      <point x="1094" y="96" type="line"/>
      <point x="1094" y="287" type="line"/>
      <point x="1260" y="287" type="line"/>
    </contour>
    <contour>
      <point x="1001" y="-185" type="curve" smooth="yes"/>
      <point x="1001" y="-217"/>
      <point x="958" y="-240"/>
      <point x="872" y="-253" type="curve" smooth="yes"/>
      <point x="833" y="-259"/>
      <point x="768" y="-264"/>
      <point x="675" y="-268" type="curve"/>
      <point x="678" y="-254"/>
      <point x="680" y="-241"/>
      <point x="680" y="-229" type="curve" smooth="yes"/>
      <point x="680" y="-184"/>
      <point x="661" y="-146"/>
      <point x="624" y="-115" type="curve"/>
      <point x="874" y="-115" type="line" smooth="yes"/>
      <point x="950" y="-115"/>
      <point x="1001" y="-141"/>
    </contour>
    <contour>
      <point x="536" y="-227" type="curve" smooth="yes"/>
      <point x="536" y="-241"/>
      <point x="533" y="-255"/>
      <point x="528" y="-267" type="curve"/>
      <point x="464" y="-267"/>
      <point x="405" y="-263"/>
      <point x="354" y="-254" type="curve" smooth="yes"/>
      <point x="279" y="-242"/>
      <point x="241" y="-223"/>
      <point x="241" y="-197" type="curve" smooth="yes"/>
      <point x="241" y="-174"/>
      <point x="260" y="-156"/>
      <point x="297" y="-144" type="curve" smooth="yes"/>
      <point x="329" y="-132"/>
      <point x="365" y="-126"/>
      <point x="407" y="-126" type="curve" smooth="yes"/>
      <point x="451" y="-126"/>
      <point x="484" y="-137"/>
      <point x="507" y="-160" type="curve" smooth="yes"/>
      <point x="526" y="-178"/>
      <point x="536" y="-200"/>
    </contour>
    <contour>
      <point x="238" y="-412" type="curve" smooth="yes"/>
      <point x="238" y="-383"/>
      <point x="195" y="-359"/>
      <point x="144" y="-359" type="curve" smooth="yes"/>
      <point x="93" y="-359"/>
      <point x="50" y="-383"/>
      <point x="50" y="-412" type="curve" smooth="yes"/>
      <point x="50" y="-442"/>
      <point x="93" y="-466"/>
      <point x="144" y="-466" type="curve" smooth="yes"/>
      <point x="195" y="-466"/>
      <point x="238" y="-442"/>
    </contour>
    <contour>
      <point x="721" y="-396" type="line"/>
      <point x="605" y="-443" type="line"/>
      <point x="871" y="-657" type="line"/>
      <point x="985" y="-607" type="line"/>
    </contour>
  </outline>
</glyph>
<glyph name="u0A1D_u0A3C" format="1">
  <advance width="1267"/>
  <outline>
    <contour>
      <point x="1289" y="614" type="line"/>
      <point x="0" y="614" type="line"/>
      <point x="0" y="540" type="line"/>
      <point x="186" y="540" type="line"/>
      <point x="209" y="452"/>
      <point x="252" y="386"/>
      <point x="316" y="341" type="curve"/>
      <point x="101" y="341" type="line"/>
      <point x="101" y="260" type="line"/>
      <point x="655" y="260" type="line" smooth="yes"/>
      <point x="843" y="260"/>
      <point x="937" y="225"/>
      <point x="937" y="157" type="curve" smooth="yes"/>
      <point x="937" y="131"/>
      <point x="912" y="109"/>
      <point x="862" y="89" type="curve" smooth="yes"/>
      <point x="824" y="74"/>
      <point x="779" y="63"/>
      <point x="727" y="56" type="curve"/>
      <point x="680" y="98"/>
      <point x="638" y="129"/>
      <point x="605" y="147" type="curve" smooth="yes"/>
      <point x="549" y="179"/>
      <point x="491" y="195"/>
      <point x="430" y="195" type="curve" smooth="yes"/>
      <point x="372" y="195"/>
      <point x="323" y="185"/>
      <point x="285" y="165" type="curve" smooth="yes"/>
      <point x="246" y="144"/>
      <point x="226" y="117"/>
      <point x="226" y="84" type="curve" smooth="yes"/>
      <point x="226" y="40"/>
      <point x="258" y="7"/>
      <point x="322" y="-15" type="curve" smooth="yes"/>
      <point x="374" y="-33"/>
      <point x="442" y="-42"/>
      <point x="525" y="-42" type="curve" smooth="yes"/>
      <point x="574" y="-42"/>
      <point x="617" y="-40"/>
      <point x="656" y="-37" type="curve"/>
      <point x="688" y="-63"/>
      <point x="712" y="-83"/>
      <point x="727" y="-97" type="curve"/>
      <point x="881" y="-97" type="line"/>
      <point x="844" y="-61"/>
      <point x="815" y="-35"/>
      <point x="797" y="-18" type="curve"/>
      <point x="872" y="-3"/>
      <point x="936" y="19"/>
      <point x="987" y="46" type="curve" smooth="yes"/>
      <point x="1049" y="79"/>
      <point x="1080" y="116"/>
      <point x="1080" y="157" type="curve" smooth="yes"/>
      <point x="1080" y="237"/>
      <point x="1024" y="291"/>
      <point x="913" y="316" type="curve"/>
      <point x="1039" y="363"/>
      <point x="1129" y="438"/>
      <point x="1184" y="540" type="curve"/>
      <point x="1289" y="540" type="line"/>
    </contour>
    <contour>
      <point x="1031" y="540" type="line"/>
      <point x="1017" y="506"/>
      <point x="993" y="476"/>
      <point x="958" y="449" type="curve" smooth="yes"/>
      <point x="920" y="419"/>
      <point x="861" y="393"/>
      <point x="783" y="372" type="curve" smooth="yes"/>
      <point x="707" y="352"/>
      <point x="635" y="342"/>
      <point x="569" y="342" type="curve" smooth="yes"/>
      <point x="473" y="342" type="line"/>
      <point x="398" y="392"/>
      <point x="351" y="458"/>
      <point x="332" y="540" type="curve"/>
    </contour>
    <contour>
      <point x="574" y="42" type="curve"/>
      <point x="557" y="41"/>
      <point x="538" y="41"/>
      <point x="519" y="41" type="curve" smooth="yes"/>
      <point x="419" y="41"/>
      <point x="370" y="55"/>
      <point x="370" y="84" type="curve" smooth="yes"/>
      <point x="370" y="103"/>
      <point x="390" y="112"/>
      <point x="430" y="112" type="curve" smooth="yes"/>
      <point x="471" y="112"/>
      <point x="519" y="89"/>
    </contour>
    <contour>
      <point x="247" y="-82" type="curve" smooth="yes"/>
      <point x="247" y="-53"/>
      <point x="204" y="-29"/>
      <point x="153" y="-29" type="curve" smooth="yes"/>
      <point x="102" y="-29"/>
      <point x="59" y="-53"/>
      <point x="59" y="-82" type="curve" smooth="yes"/>
      <point x="59" y="-112"/>
      <point x="102" y="-136"/>
      <point x="153" y="-136" type="curve" smooth="yes"/>
      <point x="204" y="-136"/>
      <point x="247" y="-112"/>
    </contour>
  </outline>
</glyph>
<glyph name="u0A1D_u0A3C_u0A4D" format="1">
  <advance width="1267"/>
  <outline>
    <contour>
      <point x="1289" y="356" type="line"/>
      <point x="0" y="356" type="line"/>
      <point x="0" y="282" type="line"/>
      <point x="186" y="282" type="line"/>
      <point x="209" y="194"/>
      <point x="252" y="128"/>
      <point x="316" y="84" type="curve"/>
      <point x="101" y="84" type="line"/>
      <point x="101" y="2" type="line"/>
      <point x="655" y="2" type="line" smooth="yes"/>
      <point x="843" y="2"/>
      <point x="937" y="-33"/>
      <point x="937" y="-101" type="curve" smooth="yes"/>
      <point x="937" y="-126"/>
      <point x="912" y="-149"/>
      <point x="862" y="-168" type="curve" smooth="yes"/>
      <point x="824" y="-183"/>
      <point x="779" y="-195"/>
      <point x="727" y="-201" type="curve"/>
      <point x="680" y="-159"/>
      <point x="638" y="-129"/>
      <point x="605" y="-110" type="curve" smooth="yes"/>
      <point x="549" y="-79"/>
      <point x="491" y="-63"/>
      <point x="430" y="-63" type="curve" smooth="yes"/>
      <point x="372" y="-63"/>
      <point x="323" y="-73"/>
      <point x="285" y="-93" type="curve" smooth="yes"/>
      <point x="246" y="-113"/>
      <point x="226" y="-140"/>
      <point x="226" y="-174" type="curve" smooth="yes"/>
      <point x="226" y="-217"/>
      <point x="258" y="-250"/>
      <point x="322" y="-273" type="curve" smooth="yes"/>
      <point x="374" y="-291"/>
      <point x="442" y="-299"/>
      <point x="525" y="-299" type="curve" smooth="yes"/>
      <point x="574" y="-299"/>
      <point x="617" y="-298"/>
      <point x="656" y="-295" type="curve"/>
      <point x="688" y="-321"/>
      <point x="712" y="-341"/>
      <point x="727" y="-354" type="curve"/>
      <point x="881" y="-354" type="line"/>
      <point x="844" y="-319"/>
      <point x="815" y="-293"/>
      <point x="797" y="-275" type="curve"/>
      <point x="872" y="-260"/>
      <point x="936" y="-239"/>
      <point x="987" y="-212" type="curve" smooth="yes"/>
      <point x="1049" y="-178"/>
      <point x="1080" y="-142"/>
      <point x="1080" y="-101" type="curve" smooth="yes"/>
      <point x="1080" y="-20"/>
      <point x="1024" y="33"/>
      <point x="913" y="59" type="curve"/>
      <point x="1039" y="106"/>
      <point x="1129" y="180"/>
      <point x="1184" y="282" type="curve"/>
      <point x="1289" y="282" type="line"/>
    </contour>
    <contour>
      <point x="1031" y="282" type="line"/>
      <point x="1017" y="249"/>
      <point x="993" y="218"/>
      <point x="958" y="191" type="curve" smooth="yes"/>
      <point x="920" y="162"/>
      <point x="861" y="136"/>
      <point x="783" y="115" type="curve" smooth="yes"/>
      <point x="707" y="95"/>
      <point x="635" y="84"/>
      <point x="569" y="84" type="curve" smooth="yes"/>
      <point x="473" y="84" type="line"/>
      <point x="398" y="134"/>
      <point x="351" y="200"/>
      <point x="332" y="282" type="curve"/>
    </contour>
    <contour>
      <point x="574" y="-216" type="curve"/>
      <point x="557" y="-216"/>
      <point x="538" y="-217"/>
      <point x="519" y="-217" type="curve" smooth="yes"/>
      <point x="419" y="-217"/>
      <point x="370" y="-202"/>
      <point x="370" y="-174" type="curve" smooth="yes"/>
      <point x="370" y="-155"/>
      <point x="390" y="-145"/>
      <point x="430" y="-145" type="curve" smooth="yes"/>
      <point x="471" y="-145"/>
      <point x="519" y="-169"/>
    </contour>
    <contour>
      <point x="247" y="-340" type="curve" smooth="yes"/>
      <point x="247" y="-311"/>
      <point x="204" y="-286"/>
      <point x="153" y="-286" type="curve" smooth="yes"/>
      <point x="102" y="-286"/>
      <point x="59" y="-311"/>
      <point x="59" y="-340" type="curve" smooth="yes"/>
      <point x="59" y="-369"/>
      <point x="102" y="-394"/>
      <point x="153" y="-394" type="curve" smooth="yes"/>
      <point x="204" y="-394"/>
      <point x="247" y="-369"/>
    </contour>
    <contour>
      <point x="928" y="-406" type="line"/>
      <point x="812" y="-453" type="line"/>
      <point x="1078" y="-667" type="line"/>
      <point x="1192" y="-617" type="line"/>
    </contour>
  </outline>
</glyph>
<glyph name="u0A1E_u0A3C" format="1">
  <advance width="1267"/>
  <outline>
    <contour>
      <point x="1289" y="631" type="line"/>
      <point x="0" y="631" type="line"/>
      <point x="0" y="557" type="line"/>
      <point x="226" y="557" type="line"/>
      <point x="230" y="489"/>
      <point x="261" y="430"/>
      <point x="318" y="382" type="curve"/>
      <point x="160" y="367"/>
      <point x="82" y="319"/>
      <point x="82" y="237" type="curve" smooth="yes"/>
      <point x="82" y="144"/>
      <point x="197" y="97"/>
      <point x="428" y="97" type="curve"/>
      <point x="413" y="76"/>
      <point x="406" y="56"/>
      <point x="406" y="37" type="curve" smooth="yes"/>
      <point x="406" y="-20"/>
      <point x="450" y="-58"/>
      <point x="538" y="-79" type="curve" smooth="yes"/>
      <point x="597" y="-94"/>
      <point x="683" y="-101"/>
      <point x="797" y="-101" type="curve" smooth="yes"/>
      <point x="1123" y="-101" type="line"/>
      <point x="1123" y="-19" type="line"/>
      <point x="875" y="-19" type="line" smooth="yes"/>
      <point x="870" y="-19"/>
      <point x="858" y="-19"/>
      <point x="839" y="-19" type="curve" smooth="yes"/>
      <point x="792" y="-19" type="line" smooth="yes"/>
      <point x="631" y="-19"/>
      <point x="550" y="0"/>
      <point x="550" y="38" type="curve" smooth="yes"/>
      <point x="550" y="59"/>
      <point x="557" y="77"/>
      <point x="571" y="92" type="curve"/>
      <point x="1123" y="92" type="line"/>
      <point x="1123" y="180" type="line"/>
      <point x="357" y="180" type="line" smooth="yes"/>
      <point x="323" y="180"/>
      <point x="293" y="184"/>
      <point x="269" y="194" type="curve" smooth="yes"/>
      <point x="240" y="204"/>
      <point x="226" y="219"/>
      <point x="226" y="238" type="curve" smooth="yes"/>
      <point x="226" y="279"/>
      <point x="267" y="299"/>
      <point x="351" y="299" type="curve" smooth="yes"/>
      <point x="1123" y="299" type="line"/>
      <point x="1123" y="557" type="line"/>
      <point x="1289" y="557" type="line"/>
    </contour>
    <contour>
      <point x="503" y="382" type="line"/>
      <point x="471" y="397"/>
      <point x="442" y="421"/>
      <point x="416" y="453" type="curve" smooth="yes"/>
      <point x="388" y="488"/>
      <point x="373" y="522"/>
      <point x="370" y="557" type="curve"/>
      <point x="979" y="557" type="line"/>
      <point x="979" y="382" type="line"/>
    </contour>
    <contour>
      <point x="283" y="-40" type="curve" smooth="yes"/>
      <point x="283" y="-10"/>
      <point x="240" y="14"/>
      <point x="189" y="14" type="curve" smooth="yes"/>
      <point x="138" y="14"/>
      <point x="95" y="-10"/>
      <point x="95" y="-40" type="curve" smooth="yes"/>
      <point x="95" y="-69"/>
      <point x="138" y="-93"/>
      <point x="189" y="-93" type="curve" smooth="yes"/>
      <point x="240" y="-93"/>
      <point x="283" y="-69"/>
    </contour>
  </outline>
</glyph>
<glyph name="u0A1E_u0A3C_u0A4D" format="1">
  <advance width="1267"/>
  <outline>
    <contour>
      <point x="1289" y="331" type="line"/>
      <point x="0" y="331" type="line"/>
      <point x="0" y="257" type="line"/>
      <point x="226" y="257" type="line"/>
      <point x="230" y="189"/>
      <point x="261" y="131"/>
      <point x="318" y="82" type="curve"/>
      <point x="160" y="67"/>
      <point x="82" y="19"/>
      <point x="82" y="-63" type="curve" smooth="yes"/>
      <point x="82" y="-156"/>
      <point x="197" y="-203"/>
      <point x="428" y="-203" type="curve"/>
      <point x="413" y="-224"/>
      <point x="406" y="-244"/>
      <point x="406" y="-263" type="curve" smooth="yes"/>
      <point x="406" y="-319"/>
      <point x="450" y="-358"/>
      <point x="538" y="-379" type="curve" smooth="yes"/>
      <point x="597" y="-394"/>
      <point x="683" y="-401"/>
      <point x="797" y="-401" type="curve" smooth="yes"/>
      <point x="1123" y="-401" type="line"/>
      <point x="1123" y="-318" type="line"/>
      <point x="875" y="-318" type="line" smooth="yes"/>
      <point x="870" y="-318"/>
      <point x="858" y="-318"/>
      <point x="839" y="-319" type="curve" smooth="yes"/>
      <point x="792" y="-319" type="line" smooth="yes"/>
      <point x="631" y="-319"/>
      <point x="550" y="-300"/>
      <point x="550" y="-262" type="curve" smooth="yes"/>
      <point x="550" y="-241"/>
      <point x="557" y="-223"/>
      <point x="571" y="-208" type="curve"/>
      <point x="1123" y="-208" type="line"/>
      <point x="1123" y="-120" type="line"/>
      <point x="357" y="-120" type="line" smooth="yes"/>
      <point x="323" y="-120"/>
      <point x="293" y="-115"/>
      <point x="269" y="-106" type="curve" smooth="yes"/>
      <point x="240" y="-95"/>
      <point x="226" y="-80"/>
      <point x="226" y="-62" type="curve" smooth="yes"/>
      <point x="226" y="-21"/>
      <point x="267" y="-1"/>
      <point x="351" y="-1" type="curve" smooth="yes"/>
      <point x="1123" y="-1" type="line"/>
      <point x="1123" y="257" type="line"/>
      <point x="1289" y="257" type="line"/>
    </contour>
    <contour>
      <point x="503" y="82" type="line"/>
      <point x="471" y="97"/>
      <point x="442" y="121"/>
      <point x="416" y="153" type="curve" smooth="yes"/>
      <point x="388" y="188"/>
      <point x="373" y="222"/>
      <point x="370" y="257" type="curve"/>
      <point x="979" y="257" type="line"/>
      <point x="979" y="82" type="line"/>
    </contour>
    <contour>
      <point x="748" y="-458" type="line"/>
      <point x="632" y="-505" type="line"/>
      <point x="898" y="-719" type="line"/>
      <point x="1012" y="-669" type="line"/>
    </contour>
    <contour>
      <point x="283" y="-339" type="curve" smooth="yes"/>
      <point x="283" y="-310"/>
      <point x="240" y="-286"/>
      <point x="189" y="-286" type="curve" smooth="yes"/>
      <point x="138" y="-286"/>
      <point x="95" y="-310"/>
      <point x="95" y="-339" type="curve" smooth="yes"/>
      <point x="95" y="-369"/>
      <point x="138" y="-393"/>
      <point x="189" y="-393" type="curve" smooth="yes"/>
      <point x="240" y="-393"/>
      <point x="283" y="-369"/>
    </contour>
  </outline>
</glyph>
<glyph name="u0A20_u0A3C_u0A4D" format="1">
  <advance width="1267"/>
  <outline>
    <contour>
      <point x="1289" y="364" type="line"/>
      <point x="0" y="364" type="line"/>
      <point x="0" y="290" type="line"/>
      <point x="557" y="290" type="line"/>
      <point x="557" y="173" type="line"/>
      <point x="274" y="111"/>
      <point x="132" y="28"/>
      <point x="132" y="-76" type="curve" smooth="yes"/>
      <point x="132" y="-144"/>
      <point x="186" y="-202"/>
      <point x="293" y="-249" type="curve" smooth="yes"/>
      <point x="393" y="-294"/>
      <point x="505" y="-316"/>
      <point x="630" y="-316" type="curve" smooth="yes"/>
      <point x="755" y="-316"/>
      <point x="867" y="-294"/>
      <point x="967" y="-249" type="curve" smooth="yes"/>
      <point x="1074" y="-202"/>
      <point x="1128" y="-144"/>
      <point x="1128" y="-76" type="curve" smooth="yes"/>
      <point x="1128" y="28"/>
      <point x="986" y="111"/>
      <point x="702" y="173" type="curve"/>
      <point x="702" y="290" type="line"/>
      <point x="1289" y="290" type="line"/>
    </contour>
    <contour>
      <point x="984" y="-76" type="curve" smooth="yes"/>
      <point x="984" y="-121"/>
      <point x="943" y="-159"/>
      <point x="863" y="-191" type="curve" smooth="yes"/>
      <point x="790" y="-220"/>
      <point x="713" y="-235"/>
      <point x="629" y="-235" type="curve" smooth="yes"/>
      <point x="546" y="-235"/>
      <point x="469" y="-220"/>
      <point x="396" y="-191" type="curve" smooth="yes"/>
      <point x="316" y="-159"/>
      <point x="276" y="-121"/>
      <point x="276" y="-76" type="curve" smooth="yes"/>
      <point x="276" y="-36"/>
      <point x="316" y="1"/>
      <point x="395" y="34" type="curve" smooth="yes"/>
      <point x="457" y="60"/>
      <point x="533" y="81"/>
      <point x="623" y="97" type="curve"/>
      <point x="716" y="81"/>
      <point x="794" y="60"/>
      <point x="858" y="34" type="curve" smooth="yes"/>
      <point x="941" y="1"/>
      <point x="984" y="-36"/>
    </contour>
    <contour>
      <point x="238" y="-332" type="curve" smooth="yes"/>
      <point x="238" y="-303"/>
      <point x="195" y="-279"/>
      <point x="144" y="-279" type="curve" smooth="yes"/>
      <point x="93" y="-279"/>
      <point x="50" y="-303"/>
      <point x="50" y="-332" type="curve" smooth="yes"/>
      <point x="50" y="-362"/>
      <point x="93" y="-386"/>
      <point x="144" y="-386" type="curve" smooth="yes"/>
      <point x="195" y="-386"/>
      <point x="238" y="-362"/>
    </contour>
    <contour>
      <point x="721" y="-390" type="line"/>
      <point x="605" y="-437" type="line"/>
      <point x="871" y="-651" type="line"/>
      <point x="985" y="-601" type="line"/>
    </contour>
  </outline>
</glyph>
<glyph name="u0A22_u0A3C" format="1">
  <advance width="1238"/>
  <outline>
    <contour>
      <point x="1260" y="638" type="line"/>
      <point x="0" y="638" type="line"/>
      <point x="0" y="564" type="line"/>
      <point x="950" y="564" type="line"/>
      <point x="950" y="394" type="line"/>
      <point x="330" y="394" type="line"/>
      <point x="304" y="436"/>
      <point x="269" y="457"/>
      <point x="223" y="457" type="curve" smooth="yes"/>
      <point x="185" y="457"/>
      <point x="148" y="446"/>
      <point x="109" y="423" type="curve" smooth="yes"/>
      <point x="70" y="400"/>
      <point x="51" y="379"/>
      <point x="51" y="359" type="curve" smooth="yes"/>
      <point x="51" y="329"/>
      <point x="95" y="310"/>
      <point x="184" y="301" type="curve"/>
      <point x="204" y="181"/>
      <point x="258" y="95"/>
      <point x="346" y="44" type="curve" smooth="yes"/>
      <point x="437" y="-10"/>
      <point x="581" y="-37"/>
      <point x="776" y="-37" type="curve" smooth="yes"/>
      <point x="868" y="-37"/>
      <point x="945" y="-28"/>
      <point x="1007" y="-10" type="curve" smooth="yes"/>
      <point x="1089" y="13"/>
      <point x="1130" y="48"/>
      <point x="1130" y="95" type="curve" smooth="yes"/>
      <point x="1130" y="130"/>
      <point x="1110" y="157"/>
      <point x="1071" y="177" type="curve" smooth="yes"/>
      <point x="1033" y="196"/>
      <point x="984" y="206"/>
      <point x="923" y="206" type="curve" smooth="yes"/>
      <point x="859" y="206"/>
      <point x="796" y="191"/>
      <point x="734" y="162" type="curve" smooth="yes"/>
      <point x="690" y="141"/>
      <point x="638" y="108"/>
      <point x="577" y="62" type="curve"/>
      <point x="429" y="97"/>
      <point x="350" y="180"/>
      <point x="339" y="310" type="curve"/>
      <point x="1094" y="310" type="line"/>
      <point x="1094" y="564" type="line"/>
      <point x="1260" y="564" type="line"/>
    </contour>
    <contour>
      <point x="986" y="96" type="curve" smooth="yes"/>
      <point x="986" y="56"/>
      <point x="919" y="35"/>
      <point x="785" y="35" type="curve" smooth="yes"/>
      <point x="766" y="35"/>
      <point x="744" y="36"/>
      <point x="720" y="37" type="curve"/>
      <point x="802" y="95"/>
      <point x="867" y="124"/>
      <point x="915" y="124" type="curve" smooth="yes"/>
      <point x="962" y="124"/>
      <point x="986" y="114"/>
    </contour>
    <contour>
      <point x="275" y="-32" type="curve" smooth="yes"/>
      <point x="275" y="-3"/>
      <point x="233" y="21"/>
      <point x="182" y="21" type="curve" smooth="yes"/>
      <point x="131" y="21"/>
      <point x="88" y="-3"/>
      <point x="88" y="-32" type="curve" smooth="yes"/>
      <point x="88" y="-62"/>
      <point x="131" y="-86"/>
      <point x="182" y="-86" type="curve" smooth="yes"/>
      <point x="233" y="-86"/>
      <point x="275" y="-62"/>
    </contour>
  </outline>
</glyph>
<glyph name="u0A22_u0A3C_u0A4D" format="1">
  <advance width="1238"/>
  <outline>
    <contour>
      <point x="1260" y="364" type="line"/>
      <point x="0" y="364" type="line"/>
      <point x="0" y="290" type="line"/>
      <point x="950" y="290" type="line"/>
      <point x="950" y="120" type="line"/>
      <point x="330" y="120" type="line"/>
      <point x="304" y="162"/>
      <point x="269" y="183"/>
      <point x="223" y="183" type="curve" smooth="yes"/>
      <point x="185" y="183"/>
      <point x="148" y="172"/>
      <point x="109" y="149" type="curve" smooth="yes"/>
      <point x="70" y="126"/>
      <point x="51" y="105"/>
      <point x="51" y="85" type="curve" smooth="yes"/>
      <point x="51" y="55"/>
      <point x="95" y="35"/>
      <point x="184" y="27" type="curve"/>
      <point x="204" y="-93"/>
      <point x="258" y="-179"/>
      <point x="346" y="-230" type="curve" smooth="yes"/>
      <point x="437" y="-284"/>
      <point x="581" y="-311"/>
      <point x="776" y="-311" type="curve" smooth="yes"/>
      <point x="868" y="-311"/>
      <point x="945" y="-302"/>
      <point x="1007" y="-284" type="curve" smooth="yes"/>
      <point x="1089" y="-261"/>
      <point x="1130" y="-226"/>
      <point x="1130" y="-179" type="curve" smooth="yes"/>
      <point x="1130" y="-144"/>
      <point x="1110" y="-117"/>
      <point x="1071" y="-97" type="curve" smooth="yes"/>
      <point x="1033" y="-78"/>
      <point x="984" y="-68"/>
      <point x="923" y="-68" type="curve" smooth="yes"/>
      <point x="859" y="-68"/>
      <point x="796" y="-83"/>
      <point x="734" y="-112" type="curve" smooth="yes"/>
      <point x="690" y="-133"/>
      <point x="638" y="-166"/>
      <point x="577" y="-212" type="curve"/>
      <point x="429" y="-177"/>
      <point x="350" y="-94"/>
      <point x="339" y="35" type="curve"/>
      <point x="1094" y="35" type="line"/>
      <point x="1094" y="290" type="line"/>
      <point x="1260" y="290" type="line"/>
    </contour>
    <contour>
      <point x="986" y="-178" type="curve" smooth="yes"/>
      <point x="986" y="-218"/>
      <point x="919" y="-239"/>
      <point x="785" y="-239" type="curve" smooth="yes"/>
      <point x="766" y="-239"/>
      <point x="744" y="-238"/>
      <point x="720" y="-237" type="curve"/>
      <point x="802" y="-179"/>
      <point x="867" y="-150"/>
      <point x="915" y="-150" type="curve" smooth="yes"/>
      <point x="962" y="-150"/>
      <point x="986" y="-160"/>
    </contour>
    <contour>
      <point x="275" y="-306" type="curve" smooth="yes"/>
      <point x="275" y="-277"/>
      <point x="233" y="-253"/>
      <point x="182" y="-253" type="curve" smooth="yes"/>
      <point x="131" y="-253"/>
      <point x="88" y="-277"/>
      <point x="88" y="-306" type="curve" smooth="yes"/>
      <point x="88" y="-336"/>
      <point x="131" y="-360"/>
      <point x="182" y="-360" type="curve" smooth="yes"/>
      <point x="233" y="-360"/>
      <point x="275" y="-336"/>
    </contour>
    <contour>
      <point x="766" y="-390" type="line"/>
      <point x="650" y="-437" type="line"/>
      <point x="916" y="-651" type="line"/>
      <point x="1030" y="-601" type="line"/>
    </contour>
  </outline>
</glyph>
<glyph name="u0A23_u0A3C" format="1">
  <advance width="1134.0"/>
  <outline>
    <contour>
      <point x="1156" y="590" type="line"/>
      <point x="0" y="590" type="line"/>
      <point x="0" y="515" type="line"/>
      <point x="301" y="515" type="line"/>
      <point x="325" y="420"/>
      <point x="431" y="353"/>
      <point x="619" y="315" type="curve"/>
      <point x="619" y="270" type="line"/>
      <point x="567" y="275"/>
      <point x="513" y="278"/>
      <point x="457" y="278" type="curve" smooth="yes"/>
      <point x="369" y="278"/>
      <point x="293" y="261"/>
      <point x="230" y="227" type="curve" smooth="yes"/>
      <point x="167" y="193"/>
      <point x="135" y="150"/>
      <point x="135" y="100" type="curve" smooth="yes"/>
      <point x="135" y="34"/>
      <point x="185" y="-16"/>
      <point x="284" y="-49" type="curve" smooth="yes"/>
      <point x="365" y="-76"/>
      <point x="467" y="-89"/>
      <point x="591" y="-89" type="curve" smooth="yes"/>
      <point x="676" y="-89"/>
      <point x="761" y="-80"/>
      <point x="845" y="-61" type="curve" smooth="yes"/>
      <point x="954" y="-37"/>
      <point x="1008" y="-5"/>
      <point x="1008" y="35" type="curve" smooth="yes"/>
      <point x="1008" y="40"/>
      <point x="1004" y="42"/>
      <point x="998" y="42" type="curve" smooth="yes"/>
      <point x="985" y="42"/>
      <point x="935" y="35"/>
      <point x="848" y="20" type="curve" smooth="yes"/>
      <point x="744" y="2"/>
      <point x="659" y="-7"/>
      <point x="591" y="-7" type="curve" smooth="yes"/>
      <point x="383" y="-7"/>
      <point x="278" y="29"/>
      <point x="278" y="100" type="curve" smooth="yes"/>
      <point x="278" y="129"/>
      <point x="299" y="153"/>
      <point x="339" y="171" type="curve" smooth="yes"/>
      <point x="377" y="187"/>
      <point x="422" y="195"/>
      <point x="475" y="195" type="curve" smooth="yes"/>
      <point x="560" y="195"/>
      <point x="645" y="189"/>
      <point x="731" y="176" type="curve"/>
      <point x="731" y="298" type="line"/>
      <point x="788" y="291"/>
      <point x="869" y="288"/>
      <point x="976" y="288" type="curve" smooth="yes"/>
      <point x="1012" y="288" type="line"/>
      <point x="1012" y="368" type="line"/>
      <point x="860" y="368"/>
      <point x="746" y="374"/>
      <point x="671" y="387" type="curve" smooth="yes"/>
      <point x="545" y="409"/>
      <point x="470" y="452"/>
      <point x="447" y="515" type="curve"/>
      <point x="1156" y="515" type="line"/>
    </contour>
    <contour>
      <point x="238" y="-132" type="curve" smooth="yes"/>
      <point x="238" y="-103"/>
      <point x="195" y="-79"/>
      <point x="144" y="-79" type="curve" smooth="yes"/>
      <point x="93" y="-79"/>
      <point x="50" y="-103"/>
      <point x="50" y="-132" type="curve" smooth="yes"/>
      <point x="50" y="-162"/>
      <point x="93" y="-186"/>
      <point x="144" y="-186" type="curve" smooth="yes"/>
      <point x="195" y="-186"/>
      <point x="238" y="-162"/>
    </contour>
  </outline>
</glyph>
<glyph name="u0A23_u0A3C_u0A4D" format="1">
  <advance width="1134.0"/>
  <outline>
    <contour>
      <point x="1156" y="364" type="line"/>
      <point x="0" y="364" type="line"/>
      <point x="0" y="290" type="line"/>
      <point x="301" y="290" type="line"/>
      <point x="325" y="194"/>
      <point x="431" y="127"/>
      <point x="619" y="89" type="curve"/>
      <point x="619" y="44" type="line"/>
      <point x="567" y="49"/>
      <point x="513" y="52"/>
      <point x="457" y="52" type="curve" smooth="yes"/>
      <point x="369" y="52"/>
      <point x="293" y="35"/>
      <point x="230" y="2" type="curve" smooth="yes"/>
      <point x="167" y="-33"/>
      <point x="135" y="-76"/>
      <point x="135" y="-126" type="curve" smooth="yes"/>
      <point x="135" y="-192"/>
      <point x="185" y="-241"/>
      <point x="284" y="-275" type="curve" smooth="yes"/>
      <point x="365" y="-301"/>
      <point x="467" y="-315"/>
      <point x="591" y="-315" type="curve" smooth="yes"/>
      <point x="676" y="-315"/>
      <point x="761" y="-305"/>
      <point x="845" y="-286" type="curve" smooth="yes"/>
      <point x="954" y="-262"/>
      <point x="1008" y="-230"/>
      <point x="1008" y="-190" type="curve" smooth="yes"/>
      <point x="1008" y="-185"/>
      <point x="1004" y="-183"/>
      <point x="998" y="-183" type="curve" smooth="yes"/>
      <point x="985" y="-183"/>
      <point x="935" y="-191"/>
      <point x="848" y="-206" type="curve" smooth="yes"/>
      <point x="744" y="-224"/>
      <point x="659" y="-232"/>
      <point x="591" y="-232" type="curve" smooth="yes"/>
      <point x="383" y="-232"/>
      <point x="278" y="-197"/>
      <point x="278" y="-126" type="curve" smooth="yes"/>
      <point x="278" y="-96"/>
      <point x="299" y="-73"/>
      <point x="339" y="-55" type="curve" smooth="yes"/>
      <point x="377" y="-39"/>
      <point x="422" y="-30"/>
      <point x="475" y="-30" type="curve" smooth="yes"/>
      <point x="560" y="-30"/>
      <point x="645" y="-37"/>
      <point x="731" y="-49" type="curve"/>
      <point x="731" y="73" type="line"/>
      <point x="788" y="66"/>
      <point x="869" y="62"/>
      <point x="976" y="62" type="curve" smooth="yes"/>
      <point x="1012" y="62" type="line"/>
      <point x="1012" y="142" type="line"/>
      <point x="860" y="142"/>
      <point x="746" y="149"/>
      <point x="671" y="162" type="curve" smooth="yes"/>
      <point x="545" y="183"/>
      <point x="470" y="226"/>
      <point x="447" y="290" type="curve"/>
      <point x="1156" y="290" type="line"/>
    </contour>
    <contour>
      <point x="238" y="-358" type="curve" smooth="yes"/>
      <point x="238" y="-329"/>
      <point x="195" y="-304"/>
      <point x="144" y="-304" type="curve" smooth="yes"/>
      <point x="93" y="-304"/>
      <point x="50" y="-329"/>
      <point x="50" y="-358" type="curve" smooth="yes"/>
      <point x="50" y="-387"/>
      <point x="93" y="-412"/>
      <point x="144" y="-412" type="curve" smooth="yes"/>
      <point x="195" y="-412"/>
      <point x="238" y="-387"/>
    </contour>
    <contour>
      <point x="676" y="-390" type="line"/>
      <point x="560" y="-437" type="line"/>
      <point x="826" y="-651" type="line"/>
      <point x="940" y="-601" type="line"/>
    </contour>
  </outline>
</glyph>
